G04 EAGLE Gerber RS-274X export*
G75*
%MOMM*%
%FSLAX34Y34*%
%LPD*%
%INTop Copper*%
%IPPOS*%
%AMOC8*
5,1,8,0,0,1.08239X$1,22.5*%
G01*
%ADD10R,1.000000X1.100000*%
%ADD11R,1.300000X1.500000*%
%ADD12R,1.968500X0.599100*%
%ADD13R,2.510000X3.200000*%
%ADD14R,1.100000X1.000000*%
%ADD15R,1.600000X1.803000*%
%ADD16C,1.790700*%
%ADD17C,0.130000*%
%ADD18C,0.762000*%
%ADD19C,0.508000*%
%ADD20C,0.254000*%
%ADD21C,1.006400*%
%ADD22C,0.806400*%
%ADD23C,0.756400*%
%ADD24C,0.956400*%

G36*
X451388Y10176D02*
X451388Y10176D01*
X451507Y10183D01*
X451545Y10196D01*
X451586Y10201D01*
X451696Y10244D01*
X451809Y10281D01*
X451844Y10303D01*
X451881Y10318D01*
X451977Y10387D01*
X452078Y10451D01*
X452106Y10481D01*
X452139Y10504D01*
X452215Y10596D01*
X452296Y10683D01*
X452316Y10718D01*
X452341Y10749D01*
X452392Y10857D01*
X452450Y10961D01*
X452460Y11001D01*
X452477Y11037D01*
X452499Y11154D01*
X452529Y11269D01*
X452533Y11329D01*
X452537Y11349D01*
X452535Y11370D01*
X452539Y11430D01*
X452539Y345440D01*
X452524Y345558D01*
X452517Y345677D01*
X452504Y345715D01*
X452499Y345756D01*
X452456Y345866D01*
X452419Y345979D01*
X452397Y346014D01*
X452382Y346051D01*
X452313Y346147D01*
X452249Y346248D01*
X452219Y346276D01*
X452196Y346309D01*
X452104Y346385D01*
X452017Y346466D01*
X451982Y346486D01*
X451951Y346511D01*
X451843Y346562D01*
X451739Y346620D01*
X451699Y346630D01*
X451663Y346647D01*
X451546Y346669D01*
X451431Y346699D01*
X451371Y346703D01*
X451351Y346707D01*
X451330Y346705D01*
X451270Y346709D01*
X366286Y346709D01*
X347163Y365832D01*
X347068Y365905D01*
X346979Y365984D01*
X346943Y366002D01*
X346911Y366027D01*
X346802Y366075D01*
X346696Y366129D01*
X346657Y366138D01*
X346620Y366154D01*
X346502Y366172D01*
X346386Y366198D01*
X346345Y366197D01*
X346305Y366203D01*
X346187Y366192D01*
X346068Y366189D01*
X346029Y366177D01*
X345989Y366174D01*
X345877Y366133D01*
X345762Y366100D01*
X345728Y366080D01*
X345690Y366066D01*
X345591Y365999D01*
X345489Y365939D01*
X345443Y365899D01*
X345426Y365887D01*
X345413Y365872D01*
X345368Y365832D01*
X334002Y354467D01*
X333942Y354389D01*
X333874Y354317D01*
X333845Y354264D01*
X333808Y354216D01*
X333768Y354125D01*
X333720Y354038D01*
X333705Y353980D01*
X333681Y353924D01*
X333666Y353826D01*
X333641Y353730D01*
X333635Y353630D01*
X333631Y353610D01*
X333633Y353598D01*
X333631Y353570D01*
X333631Y345629D01*
X333643Y345531D01*
X333646Y345432D01*
X333663Y345374D01*
X333671Y345314D01*
X333707Y345222D01*
X333735Y345127D01*
X333765Y345075D01*
X333788Y345018D01*
X333846Y344938D01*
X333896Y344853D01*
X333962Y344777D01*
X333974Y344761D01*
X333984Y344753D01*
X334002Y344732D01*
X335068Y343666D01*
X335941Y341560D01*
X335941Y334080D01*
X335068Y331974D01*
X334002Y330908D01*
X333942Y330830D01*
X333874Y330758D01*
X333854Y330721D01*
X333830Y330692D01*
X333822Y330675D01*
X333808Y330657D01*
X333768Y330566D01*
X333720Y330479D01*
X333710Y330437D01*
X333694Y330405D01*
X333691Y330388D01*
X333681Y330365D01*
X333666Y330267D01*
X333641Y330171D01*
X333637Y330103D01*
X333635Y330092D01*
X333635Y330081D01*
X333635Y330071D01*
X333631Y330051D01*
X333633Y330039D01*
X333631Y330011D01*
X333631Y247839D01*
X333643Y247741D01*
X333646Y247642D01*
X333663Y247584D01*
X333671Y247524D01*
X333707Y247432D01*
X333735Y247337D01*
X333765Y247285D01*
X333788Y247228D01*
X333846Y247148D01*
X333896Y247063D01*
X333962Y246987D01*
X333974Y246971D01*
X333984Y246963D01*
X334002Y246942D01*
X335068Y245876D01*
X335941Y243770D01*
X335941Y236290D01*
X335068Y234184D01*
X334002Y233118D01*
X333942Y233040D01*
X333874Y232968D01*
X333845Y232915D01*
X333808Y232867D01*
X333768Y232776D01*
X333720Y232689D01*
X333705Y232631D01*
X333681Y232575D01*
X333666Y232477D01*
X333641Y232381D01*
X333635Y232281D01*
X333631Y232261D01*
X333633Y232249D01*
X333631Y232221D01*
X333631Y148779D01*
X333643Y148681D01*
X333646Y148582D01*
X333663Y148524D01*
X333671Y148464D01*
X333707Y148372D01*
X333735Y148277D01*
X333765Y148225D01*
X333788Y148168D01*
X333846Y148088D01*
X333896Y148003D01*
X333962Y147927D01*
X333974Y147911D01*
X333984Y147903D01*
X334002Y147882D01*
X335068Y146816D01*
X335941Y144710D01*
X335941Y137230D01*
X335068Y135124D01*
X334002Y134058D01*
X333942Y133980D01*
X333874Y133908D01*
X333845Y133855D01*
X333808Y133807D01*
X333768Y133716D01*
X333720Y133629D01*
X333705Y133571D01*
X333681Y133515D01*
X333666Y133417D01*
X333641Y133321D01*
X333635Y133221D01*
X333631Y133201D01*
X333633Y133189D01*
X333631Y133161D01*
X333631Y52259D01*
X333643Y52161D01*
X333646Y52062D01*
X333663Y52004D01*
X333671Y51944D01*
X333707Y51852D01*
X333735Y51757D01*
X333765Y51705D01*
X333788Y51648D01*
X333846Y51568D01*
X333896Y51483D01*
X333962Y51407D01*
X333974Y51391D01*
X333984Y51383D01*
X334002Y51362D01*
X335068Y50296D01*
X335941Y48190D01*
X335941Y40710D01*
X335068Y38604D01*
X333456Y36992D01*
X331350Y36119D01*
X320670Y36119D01*
X318564Y36992D01*
X316952Y38604D01*
X316079Y40710D01*
X316079Y48190D01*
X316952Y50296D01*
X318018Y51362D01*
X318078Y51440D01*
X318146Y51512D01*
X318175Y51565D01*
X318212Y51613D01*
X318252Y51704D01*
X318300Y51791D01*
X318315Y51849D01*
X318339Y51905D01*
X318354Y52003D01*
X318379Y52099D01*
X318385Y52199D01*
X318389Y52219D01*
X318387Y52231D01*
X318389Y52259D01*
X318389Y133161D01*
X318377Y133259D01*
X318374Y133358D01*
X318357Y133416D01*
X318349Y133476D01*
X318313Y133568D01*
X318285Y133663D01*
X318255Y133715D01*
X318232Y133772D01*
X318174Y133852D01*
X318124Y133937D01*
X318058Y134013D01*
X318046Y134029D01*
X318036Y134037D01*
X318018Y134058D01*
X316952Y135124D01*
X316079Y137230D01*
X316079Y144710D01*
X316952Y146816D01*
X318018Y147882D01*
X318078Y147960D01*
X318146Y148032D01*
X318175Y148085D01*
X318212Y148133D01*
X318252Y148224D01*
X318300Y148311D01*
X318315Y148369D01*
X318339Y148425D01*
X318354Y148523D01*
X318379Y148619D01*
X318385Y148719D01*
X318389Y148739D01*
X318387Y148751D01*
X318389Y148779D01*
X318389Y232221D01*
X318377Y232319D01*
X318374Y232418D01*
X318357Y232476D01*
X318349Y232536D01*
X318313Y232628D01*
X318285Y232723D01*
X318255Y232775D01*
X318232Y232832D01*
X318174Y232912D01*
X318124Y232997D01*
X318058Y233073D01*
X318046Y233089D01*
X318036Y233097D01*
X318018Y233118D01*
X316952Y234184D01*
X316079Y236290D01*
X316079Y243770D01*
X316952Y245876D01*
X318018Y246942D01*
X318078Y247020D01*
X318146Y247092D01*
X318175Y247145D01*
X318212Y247193D01*
X318252Y247284D01*
X318300Y247371D01*
X318315Y247429D01*
X318339Y247485D01*
X318354Y247583D01*
X318379Y247679D01*
X318385Y247779D01*
X318389Y247799D01*
X318387Y247811D01*
X318389Y247839D01*
X318389Y330011D01*
X318377Y330109D01*
X318374Y330208D01*
X318367Y330232D01*
X318366Y330249D01*
X318355Y330282D01*
X318349Y330326D01*
X318313Y330418D01*
X318285Y330513D01*
X318273Y330534D01*
X318268Y330551D01*
X318248Y330582D01*
X318232Y330622D01*
X318174Y330702D01*
X318124Y330787D01*
X318104Y330810D01*
X318098Y330820D01*
X318084Y330833D01*
X318058Y330863D01*
X318046Y330879D01*
X318036Y330887D01*
X318018Y330908D01*
X316952Y331974D01*
X316079Y334080D01*
X316079Y341560D01*
X316952Y343666D01*
X318018Y344732D01*
X318078Y344810D01*
X318146Y344882D01*
X318175Y344935D01*
X318212Y344983D01*
X318252Y345074D01*
X318300Y345161D01*
X318315Y345219D01*
X318339Y345275D01*
X318354Y345373D01*
X318379Y345469D01*
X318385Y345569D01*
X318389Y345589D01*
X318387Y345601D01*
X318389Y345629D01*
X318389Y358768D01*
X319549Y361569D01*
X334590Y376610D01*
X334663Y376704D01*
X334742Y376793D01*
X334760Y376829D01*
X334785Y376861D01*
X334833Y376970D01*
X334887Y377076D01*
X334896Y377116D01*
X334912Y377153D01*
X334930Y377271D01*
X334956Y377387D01*
X334955Y377427D01*
X334961Y377467D01*
X334950Y377586D01*
X334947Y377704D01*
X334935Y377743D01*
X334932Y377784D01*
X334891Y377896D01*
X334858Y378010D01*
X334838Y378045D01*
X334824Y378083D01*
X334757Y378181D01*
X334697Y378284D01*
X334657Y378329D01*
X334645Y378346D01*
X334630Y378359D01*
X334590Y378405D01*
X316229Y396766D01*
X316229Y440146D01*
X316228Y440155D01*
X316229Y440164D01*
X316208Y440312D01*
X316189Y440461D01*
X316186Y440470D01*
X316185Y440479D01*
X316133Y440631D01*
X316079Y440760D01*
X316079Y448240D01*
X316133Y448369D01*
X316135Y448378D01*
X316140Y448386D01*
X316177Y448530D01*
X316217Y448675D01*
X316217Y448685D01*
X316219Y448694D01*
X316229Y448854D01*
X316229Y492760D01*
X316217Y492858D01*
X316214Y492957D01*
X316197Y493015D01*
X316189Y493076D01*
X316153Y493168D01*
X316125Y493263D01*
X316095Y493315D01*
X316072Y493371D01*
X316014Y493451D01*
X315964Y493537D01*
X315898Y493612D01*
X315886Y493629D01*
X315876Y493636D01*
X315858Y493658D01*
X305698Y503818D01*
X305619Y503878D01*
X305547Y503946D01*
X305494Y503975D01*
X305446Y504012D01*
X305355Y504052D01*
X305269Y504100D01*
X305210Y504115D01*
X305154Y504139D01*
X305056Y504154D01*
X304961Y504179D01*
X304861Y504185D01*
X304840Y504189D01*
X304828Y504187D01*
X304800Y504189D01*
X257648Y504189D01*
X257598Y504183D01*
X257549Y504185D01*
X257441Y504163D01*
X257332Y504149D01*
X257286Y504131D01*
X257237Y504121D01*
X257138Y504073D01*
X257036Y504032D01*
X256996Y504003D01*
X256952Y503981D01*
X256868Y503910D01*
X256779Y503846D01*
X256747Y503807D01*
X256710Y503775D01*
X256646Y503685D01*
X256576Y503601D01*
X256555Y503556D01*
X256526Y503515D01*
X256488Y503412D01*
X256441Y503313D01*
X256431Y503264D01*
X256414Y503218D01*
X256402Y503108D01*
X256381Y503001D01*
X256384Y502951D01*
X256379Y502901D01*
X256394Y502793D01*
X256401Y502683D01*
X256416Y502636D01*
X256423Y502587D01*
X256475Y502434D01*
X256493Y502392D01*
X256493Y498368D01*
X254953Y494652D01*
X254423Y494122D01*
X254405Y494098D01*
X254383Y494079D01*
X254308Y493973D01*
X254228Y493871D01*
X254217Y493843D01*
X254200Y493819D01*
X254154Y493698D01*
X254102Y493579D01*
X254097Y493549D01*
X254087Y493522D01*
X254073Y493393D01*
X254052Y493265D01*
X254055Y493235D01*
X254052Y493206D01*
X254070Y493077D01*
X254082Y492948D01*
X254092Y492920D01*
X254096Y492891D01*
X254148Y492739D01*
X255493Y489493D01*
X255493Y485867D01*
X254105Y482518D01*
X253815Y482228D01*
X253742Y482133D01*
X253663Y482044D01*
X253645Y482008D01*
X253620Y481976D01*
X253573Y481867D01*
X253518Y481761D01*
X253510Y481722D01*
X253494Y481684D01*
X253475Y481567D01*
X253449Y481451D01*
X253450Y481410D01*
X253444Y481370D01*
X253455Y481252D01*
X253458Y481133D01*
X253470Y481094D01*
X253474Y481054D01*
X253514Y480942D01*
X253547Y480827D01*
X253567Y480792D01*
X253581Y480754D01*
X253648Y480656D01*
X253708Y480553D01*
X253748Y480508D01*
X253760Y480491D01*
X253775Y480478D01*
X253815Y480433D01*
X254105Y480142D01*
X255493Y476793D01*
X255493Y473167D01*
X255231Y472536D01*
X255218Y472488D01*
X255197Y472443D01*
X255176Y472335D01*
X255147Y472229D01*
X255146Y472179D01*
X255137Y472130D01*
X255144Y472021D01*
X255142Y471911D01*
X255154Y471863D01*
X255157Y471813D01*
X255191Y471709D01*
X255216Y471602D01*
X255239Y471558D01*
X255255Y471511D01*
X255314Y471418D01*
X255365Y471321D01*
X255398Y471284D01*
X255425Y471242D01*
X255505Y471167D01*
X255579Y471085D01*
X255620Y471058D01*
X255657Y471024D01*
X255753Y470971D01*
X255845Y470911D01*
X255892Y470894D01*
X255935Y470870D01*
X256041Y470843D01*
X256145Y470807D01*
X256195Y470803D01*
X256243Y470791D01*
X256404Y470781D01*
X262460Y470781D01*
X262558Y470793D01*
X262657Y470796D01*
X262715Y470813D01*
X262775Y470821D01*
X262867Y470857D01*
X262962Y470885D01*
X263015Y470915D01*
X263071Y470938D01*
X263151Y470996D01*
X263236Y471046D01*
X263312Y471112D01*
X263328Y471124D01*
X263336Y471134D01*
X263357Y471152D01*
X263402Y471197D01*
X265269Y471971D01*
X278291Y471971D01*
X280158Y471197D01*
X281587Y469768D01*
X282361Y467901D01*
X282361Y455879D01*
X281692Y454266D01*
X281679Y454218D01*
X281658Y454173D01*
X281637Y454065D01*
X281608Y453959D01*
X281608Y453909D01*
X281598Y453860D01*
X281605Y453751D01*
X281603Y453641D01*
X281615Y453593D01*
X281618Y453543D01*
X281652Y453439D01*
X281677Y453332D01*
X281701Y453288D01*
X281716Y453241D01*
X281775Y453148D01*
X281826Y453051D01*
X281860Y453014D01*
X281886Y452972D01*
X281966Y452897D01*
X282040Y452815D01*
X282082Y452788D01*
X282118Y452754D01*
X282214Y452701D01*
X282306Y452641D01*
X282353Y452624D01*
X282396Y452600D01*
X282503Y452573D01*
X282607Y452537D01*
X282656Y452533D01*
X282704Y452521D01*
X282865Y452511D01*
X284845Y452511D01*
X284854Y452512D01*
X284864Y452511D01*
X285012Y452532D01*
X285161Y452551D01*
X285169Y452554D01*
X285178Y452555D01*
X285331Y452607D01*
X285870Y452831D01*
X296550Y452831D01*
X298656Y451958D01*
X300268Y450346D01*
X301141Y448240D01*
X301141Y440760D01*
X300268Y438654D01*
X298656Y437042D01*
X296550Y436169D01*
X285870Y436169D01*
X283674Y437079D01*
X283657Y437092D01*
X283566Y437132D01*
X283479Y437180D01*
X283421Y437195D01*
X283365Y437219D01*
X283267Y437234D01*
X283171Y437259D01*
X283071Y437265D01*
X283051Y437269D01*
X283039Y437267D01*
X283011Y437269D01*
X282370Y437269D01*
X282272Y437257D01*
X282173Y437254D01*
X282115Y437237D01*
X282055Y437229D01*
X281963Y437193D01*
X281868Y437165D01*
X281815Y437135D01*
X281759Y437112D01*
X281679Y437054D01*
X281594Y437004D01*
X281518Y436938D01*
X281502Y436926D01*
X281494Y436916D01*
X281473Y436898D01*
X280158Y435583D01*
X278291Y434809D01*
X265269Y434809D01*
X263402Y435583D01*
X261973Y437012D01*
X261199Y438879D01*
X261199Y450901D01*
X261342Y451244D01*
X261355Y451292D01*
X261376Y451337D01*
X261397Y451445D01*
X261426Y451551D01*
X261426Y451601D01*
X261436Y451650D01*
X261429Y451759D01*
X261431Y451869D01*
X261419Y451917D01*
X261416Y451967D01*
X261382Y452071D01*
X261356Y452178D01*
X261333Y452222D01*
X261318Y452269D01*
X261259Y452362D01*
X261208Y452459D01*
X261174Y452496D01*
X261148Y452538D01*
X261068Y452613D01*
X260994Y452695D01*
X260952Y452722D01*
X260916Y452756D01*
X260820Y452809D01*
X260728Y452869D01*
X260681Y452886D01*
X260638Y452910D01*
X260531Y452937D01*
X260427Y452973D01*
X260378Y452977D01*
X260330Y452989D01*
X260169Y452999D01*
X255700Y452999D01*
X255602Y452987D01*
X255503Y452984D01*
X255445Y452967D01*
X255385Y452959D01*
X255293Y452923D01*
X255198Y452895D01*
X255145Y452865D01*
X255089Y452842D01*
X255009Y452784D01*
X254924Y452734D01*
X254848Y452668D01*
X254832Y452656D01*
X254824Y452646D01*
X254803Y452628D01*
X254223Y452048D01*
X254158Y451964D01*
X254087Y451886D01*
X254061Y451839D01*
X254028Y451797D01*
X253986Y451700D01*
X253936Y451606D01*
X253923Y451554D01*
X253902Y451505D01*
X253885Y451400D01*
X253860Y451298D01*
X253860Y451244D01*
X253852Y451191D01*
X253862Y451085D01*
X253863Y450980D01*
X253880Y450896D01*
X253882Y450874D01*
X253887Y450859D01*
X253895Y450822D01*
X253921Y450724D01*
X253921Y447389D01*
X247610Y447389D01*
X247492Y447374D01*
X247373Y447367D01*
X247335Y447354D01*
X247295Y447349D01*
X247184Y447306D01*
X247071Y447269D01*
X247037Y447247D01*
X246999Y447232D01*
X246903Y447163D01*
X246802Y447099D01*
X246774Y447069D01*
X246742Y447046D01*
X246666Y446954D01*
X246584Y446867D01*
X246565Y446832D01*
X246539Y446801D01*
X246488Y446693D01*
X246431Y446589D01*
X246421Y446549D01*
X246403Y446513D01*
X246383Y446406D01*
X246379Y446436D01*
X246335Y446546D01*
X246299Y446659D01*
X246277Y446694D01*
X246262Y446731D01*
X246192Y446827D01*
X246129Y446928D01*
X246099Y446956D01*
X246075Y446989D01*
X245984Y447065D01*
X245897Y447146D01*
X245862Y447166D01*
X245830Y447191D01*
X245723Y447242D01*
X245618Y447300D01*
X245579Y447310D01*
X245543Y447327D01*
X245426Y447349D01*
X245310Y447379D01*
X245250Y447383D01*
X245230Y447387D01*
X245210Y447385D01*
X245150Y447389D01*
X238839Y447389D01*
X238839Y450724D01*
X238865Y450822D01*
X238880Y450927D01*
X238903Y451030D01*
X238901Y451083D01*
X238909Y451137D01*
X238896Y451242D01*
X238893Y451348D01*
X238878Y451399D01*
X238872Y451453D01*
X238834Y451552D01*
X238805Y451653D01*
X238778Y451699D01*
X238758Y451750D01*
X238697Y451836D01*
X238643Y451927D01*
X238587Y451991D01*
X238574Y452009D01*
X238562Y452019D01*
X238537Y452048D01*
X237073Y453512D01*
X236922Y453876D01*
X236907Y453901D01*
X236898Y453929D01*
X236829Y454039D01*
X236765Y454152D01*
X236744Y454173D01*
X236728Y454198D01*
X236634Y454287D01*
X236543Y454380D01*
X236518Y454396D01*
X236497Y454416D01*
X236383Y454479D01*
X236272Y454547D01*
X236244Y454555D01*
X236218Y454570D01*
X236092Y454602D01*
X235968Y454640D01*
X235939Y454642D01*
X235910Y454649D01*
X235749Y454659D01*
X235059Y454659D01*
X235050Y454658D01*
X235041Y454659D01*
X234892Y454638D01*
X234744Y454619D01*
X234735Y454616D01*
X234726Y454615D01*
X234574Y454563D01*
X233707Y454204D01*
X212001Y454204D01*
X210134Y454977D01*
X208704Y456407D01*
X207931Y458274D01*
X207931Y466286D01*
X208700Y468144D01*
X208727Y468240D01*
X208762Y468332D01*
X208768Y468393D01*
X208784Y468451D01*
X208786Y468550D01*
X208797Y468648D01*
X208788Y468708D01*
X208789Y468769D01*
X208766Y468865D01*
X208752Y468963D01*
X208720Y469058D01*
X208715Y469078D01*
X208709Y469089D01*
X208700Y469116D01*
X207931Y470974D01*
X207931Y478986D01*
X208700Y480844D01*
X208727Y480940D01*
X208762Y481032D01*
X208768Y481093D01*
X208784Y481151D01*
X208786Y481250D01*
X208797Y481348D01*
X208788Y481408D01*
X208789Y481469D01*
X208766Y481565D01*
X208752Y481663D01*
X208720Y481758D01*
X208715Y481778D01*
X208709Y481789D01*
X208700Y481816D01*
X207931Y483674D01*
X207931Y491686D01*
X208700Y493544D01*
X208727Y493640D01*
X208762Y493732D01*
X208768Y493793D01*
X208784Y493851D01*
X208786Y493950D01*
X208797Y494048D01*
X208788Y494108D01*
X208789Y494169D01*
X208766Y494265D01*
X208752Y494363D01*
X208720Y494458D01*
X208715Y494478D01*
X208709Y494489D01*
X208700Y494516D01*
X207931Y496374D01*
X207931Y504386D01*
X208704Y506253D01*
X210245Y507795D01*
X210318Y507889D01*
X210397Y507978D01*
X210415Y508014D01*
X210440Y508046D01*
X210488Y508155D01*
X210542Y508261D01*
X210550Y508300D01*
X210567Y508338D01*
X210585Y508455D01*
X210611Y508571D01*
X210610Y508612D01*
X210616Y508652D01*
X210605Y508770D01*
X210602Y508889D01*
X210590Y508928D01*
X210587Y508968D01*
X210546Y509081D01*
X210513Y509195D01*
X210493Y509230D01*
X210479Y509268D01*
X210412Y509366D01*
X210352Y509469D01*
X210312Y509514D01*
X210300Y509531D01*
X210285Y509544D01*
X210245Y509590D01*
X209478Y510357D01*
X209394Y510422D01*
X209316Y510493D01*
X209269Y510519D01*
X209227Y510552D01*
X209130Y510594D01*
X209036Y510644D01*
X208984Y510657D01*
X208935Y510678D01*
X208830Y510695D01*
X208728Y510720D01*
X208674Y510720D01*
X208621Y510728D01*
X208515Y510718D01*
X208410Y510717D01*
X208326Y510700D01*
X208304Y510698D01*
X208289Y510693D01*
X208252Y510685D01*
X208154Y510659D01*
X203859Y510659D01*
X203859Y519430D01*
X203844Y519548D01*
X203837Y519667D01*
X203824Y519705D01*
X203819Y519745D01*
X203775Y519856D01*
X203739Y519969D01*
X203717Y520004D01*
X203702Y520041D01*
X203632Y520137D01*
X203569Y520238D01*
X203539Y520266D01*
X203515Y520298D01*
X203424Y520374D01*
X203337Y520456D01*
X203302Y520475D01*
X203270Y520501D01*
X203163Y520552D01*
X203059Y520609D01*
X203019Y520620D01*
X202983Y520637D01*
X202866Y520659D01*
X202751Y520689D01*
X202690Y520693D01*
X202670Y520697D01*
X202650Y520695D01*
X202590Y520699D01*
X201319Y520699D01*
X201319Y520701D01*
X202590Y520701D01*
X202708Y520716D01*
X202827Y520723D01*
X202865Y520736D01*
X202905Y520741D01*
X203016Y520785D01*
X203129Y520821D01*
X203164Y520843D01*
X203201Y520858D01*
X203297Y520928D01*
X203398Y520991D01*
X203426Y521021D01*
X203458Y521045D01*
X203534Y521136D01*
X203616Y521223D01*
X203635Y521258D01*
X203661Y521290D01*
X203712Y521397D01*
X203769Y521501D01*
X203780Y521541D01*
X203797Y521577D01*
X203819Y521694D01*
X203849Y521809D01*
X203853Y521870D01*
X203857Y521890D01*
X203855Y521910D01*
X203859Y521970D01*
X203859Y530741D01*
X208154Y530741D01*
X208252Y530715D01*
X208357Y530700D01*
X208460Y530677D01*
X208513Y530679D01*
X208567Y530671D01*
X208672Y530684D01*
X208778Y530687D01*
X208829Y530702D01*
X208883Y530708D01*
X208982Y530746D01*
X209083Y530775D01*
X209129Y530802D01*
X209180Y530822D01*
X209266Y530883D01*
X209357Y530937D01*
X209421Y530993D01*
X209439Y531006D01*
X209449Y531018D01*
X209478Y531043D01*
X210942Y532507D01*
X212809Y533281D01*
X227831Y533281D01*
X229698Y532507D01*
X231127Y531078D01*
X231901Y529211D01*
X231901Y512189D01*
X231081Y510211D01*
X231068Y510163D01*
X231047Y510118D01*
X231026Y510011D01*
X230997Y509904D01*
X230997Y509855D01*
X230987Y509806D01*
X230994Y509696D01*
X230992Y509586D01*
X231004Y509538D01*
X231007Y509489D01*
X231041Y509384D01*
X231067Y509277D01*
X231090Y509233D01*
X231105Y509186D01*
X231164Y509093D01*
X231215Y508996D01*
X231249Y508959D01*
X231275Y508917D01*
X231355Y508842D01*
X231429Y508761D01*
X231471Y508733D01*
X231507Y508699D01*
X231603Y508646D01*
X231695Y508586D01*
X231742Y508570D01*
X231785Y508546D01*
X231892Y508518D01*
X231996Y508483D01*
X232045Y508479D01*
X232093Y508466D01*
X232254Y508456D01*
X233707Y508456D01*
X234574Y508097D01*
X234582Y508095D01*
X234591Y508090D01*
X234736Y508053D01*
X234880Y508013D01*
X234890Y508013D01*
X234899Y508011D01*
X235059Y508001D01*
X236125Y508001D01*
X236221Y508013D01*
X236319Y508016D01*
X236421Y508038D01*
X236440Y508041D01*
X236451Y508045D01*
X236476Y508050D01*
X242966Y509921D01*
X242979Y509926D01*
X243100Y509968D01*
X244368Y510493D01*
X244773Y510493D01*
X244870Y510505D01*
X244967Y510508D01*
X245033Y510522D01*
X245046Y510522D01*
X245097Y510514D01*
X245205Y510525D01*
X245313Y510526D01*
X245362Y510539D01*
X245413Y510544D01*
X245515Y510581D01*
X245620Y510609D01*
X245664Y510634D01*
X245713Y510652D01*
X245802Y510713D01*
X245896Y510766D01*
X245933Y510802D01*
X245976Y510830D01*
X246048Y510912D01*
X246125Y510987D01*
X246152Y511030D01*
X246186Y511069D01*
X246236Y511165D01*
X246292Y511257D01*
X246308Y511306D01*
X246331Y511352D01*
X246355Y511458D01*
X246387Y511561D01*
X246389Y511612D01*
X246400Y511662D01*
X246397Y511771D01*
X246403Y511879D01*
X246392Y511929D01*
X246391Y511980D01*
X246361Y512084D01*
X246339Y512190D01*
X246317Y512237D01*
X246302Y512286D01*
X246247Y512379D01*
X246200Y512476D01*
X246167Y512516D01*
X246141Y512560D01*
X246034Y512681D01*
X240029Y518686D01*
X240029Y534545D01*
X240014Y534663D01*
X240007Y534782D01*
X239994Y534820D01*
X239989Y534861D01*
X239946Y534971D01*
X239909Y535084D01*
X239887Y535119D01*
X239872Y535156D01*
X239803Y535252D01*
X239739Y535353D01*
X239709Y535381D01*
X239686Y535414D01*
X239594Y535490D01*
X239507Y535571D01*
X239472Y535591D01*
X239441Y535616D01*
X239333Y535667D01*
X239229Y535725D01*
X239189Y535735D01*
X239153Y535752D01*
X239036Y535774D01*
X238921Y535804D01*
X238861Y535808D01*
X238841Y535812D01*
X238820Y535810D01*
X238760Y535814D01*
X230479Y535814D01*
X228612Y536588D01*
X227183Y538017D01*
X226645Y539316D01*
X226586Y539419D01*
X226534Y539526D01*
X226507Y539557D01*
X226487Y539592D01*
X226404Y539678D01*
X226327Y539768D01*
X226294Y539791D01*
X226266Y539820D01*
X226164Y539883D01*
X226067Y539951D01*
X226029Y539966D01*
X225995Y539987D01*
X225881Y540022D01*
X225770Y540064D01*
X225729Y540068D01*
X225691Y540080D01*
X225572Y540086D01*
X225454Y540099D01*
X225414Y540094D01*
X225373Y540096D01*
X225257Y540071D01*
X225139Y540055D01*
X225082Y540035D01*
X225062Y540031D01*
X225043Y540022D01*
X224986Y540003D01*
X224061Y539619D01*
X212039Y539619D01*
X210172Y540393D01*
X208697Y541868D01*
X208696Y541869D01*
X208638Y541971D01*
X208608Y542002D01*
X208584Y542037D01*
X208498Y542115D01*
X208417Y542199D01*
X208380Y542222D01*
X208348Y542250D01*
X208245Y542305D01*
X208146Y542365D01*
X208105Y542378D01*
X208066Y542398D01*
X207953Y542425D01*
X207842Y542459D01*
X207799Y542461D01*
X207757Y542471D01*
X207641Y542469D01*
X207524Y542474D01*
X207482Y542465D01*
X207439Y542465D01*
X207327Y542433D01*
X207213Y542410D01*
X207174Y542391D01*
X207133Y542379D01*
X207046Y542336D01*
X206384Y542159D01*
X203549Y542159D01*
X203549Y548970D01*
X203534Y549088D01*
X203527Y549207D01*
X203514Y549245D01*
X203509Y549285D01*
X203466Y549396D01*
X203429Y549509D01*
X203407Y549543D01*
X203392Y549581D01*
X203323Y549677D01*
X203259Y549778D01*
X203229Y549806D01*
X203206Y549838D01*
X203114Y549914D01*
X203027Y549996D01*
X202992Y550015D01*
X202961Y550041D01*
X202853Y550092D01*
X202749Y550149D01*
X202709Y550159D01*
X202673Y550177D01*
X202566Y550197D01*
X202596Y550201D01*
X202706Y550245D01*
X202819Y550281D01*
X202854Y550303D01*
X202891Y550318D01*
X202987Y550388D01*
X203088Y550451D01*
X203116Y550481D01*
X203149Y550505D01*
X203225Y550596D01*
X203306Y550683D01*
X203326Y550718D01*
X203351Y550750D01*
X203402Y550857D01*
X203460Y550962D01*
X203470Y551001D01*
X203487Y551037D01*
X203509Y551154D01*
X203539Y551270D01*
X203543Y551330D01*
X203547Y551350D01*
X203545Y551370D01*
X203549Y551430D01*
X203549Y558241D01*
X206384Y558241D01*
X207046Y558063D01*
X207064Y558052D01*
X207174Y558014D01*
X207281Y557969D01*
X207324Y557962D01*
X207365Y557949D01*
X207481Y557939D01*
X207596Y557922D01*
X207639Y557927D01*
X207682Y557923D01*
X207797Y557943D01*
X207912Y557955D01*
X207953Y557970D01*
X207995Y557978D01*
X208101Y558026D01*
X208210Y558066D01*
X208246Y558091D01*
X208285Y558108D01*
X208376Y558181D01*
X208472Y558248D01*
X208500Y558280D01*
X208534Y558307D01*
X208603Y558400D01*
X208680Y558488D01*
X208699Y558527D01*
X208721Y558557D01*
X210172Y560007D01*
X212039Y560781D01*
X224061Y560781D01*
X225191Y560312D01*
X225306Y560281D01*
X225419Y560242D01*
X225459Y560239D01*
X225498Y560228D01*
X225617Y560226D01*
X225736Y560217D01*
X225776Y560224D01*
X225816Y560223D01*
X225932Y560251D01*
X226049Y560271D01*
X226086Y560288D01*
X226125Y560297D01*
X226231Y560353D01*
X226339Y560402D01*
X226371Y560427D01*
X226407Y560446D01*
X226495Y560526D01*
X226588Y560601D01*
X226612Y560633D01*
X226642Y560660D01*
X226707Y560760D01*
X226779Y560855D01*
X226805Y560909D01*
X226817Y560926D01*
X226823Y560945D01*
X226850Y560999D01*
X227183Y561803D01*
X228612Y563232D01*
X230479Y564006D01*
X238760Y564006D01*
X238878Y564021D01*
X238997Y564028D01*
X239035Y564041D01*
X239076Y564046D01*
X239186Y564089D01*
X239299Y564126D01*
X239334Y564148D01*
X239371Y564163D01*
X239467Y564232D01*
X239568Y564296D01*
X239596Y564326D01*
X239629Y564349D01*
X239705Y564441D01*
X239786Y564528D01*
X239806Y564563D01*
X239831Y564594D01*
X239882Y564702D01*
X239940Y564806D01*
X239950Y564846D01*
X239967Y564882D01*
X239989Y564999D01*
X240019Y565114D01*
X240023Y565174D01*
X240027Y565194D01*
X240025Y565215D01*
X240029Y565275D01*
X240029Y594360D01*
X240017Y594458D01*
X240014Y594557D01*
X239997Y594615D01*
X239989Y594676D01*
X239953Y594768D01*
X239925Y594863D01*
X239895Y594915D01*
X239872Y594971D01*
X239814Y595051D01*
X239764Y595137D01*
X239698Y595212D01*
X239686Y595229D01*
X239676Y595236D01*
X239658Y595258D01*
X227329Y607586D01*
X227329Y688570D01*
X227314Y688688D01*
X227307Y688807D01*
X227294Y688845D01*
X227289Y688886D01*
X227246Y688996D01*
X227209Y689109D01*
X227187Y689144D01*
X227172Y689181D01*
X227103Y689277D01*
X227039Y689378D01*
X227009Y689406D01*
X226986Y689439D01*
X226894Y689515D01*
X226807Y689596D01*
X226772Y689616D01*
X226741Y689641D01*
X226633Y689692D01*
X226529Y689750D01*
X226489Y689760D01*
X226453Y689777D01*
X226336Y689799D01*
X226221Y689829D01*
X226161Y689833D01*
X226141Y689837D01*
X226120Y689835D01*
X226060Y689839D01*
X11430Y689839D01*
X11312Y689824D01*
X11193Y689817D01*
X11155Y689804D01*
X11114Y689799D01*
X11004Y689756D01*
X10891Y689719D01*
X10856Y689697D01*
X10819Y689682D01*
X10723Y689613D01*
X10622Y689549D01*
X10594Y689519D01*
X10561Y689496D01*
X10485Y689404D01*
X10404Y689317D01*
X10384Y689282D01*
X10359Y689251D01*
X10308Y689143D01*
X10250Y689039D01*
X10240Y688999D01*
X10223Y688963D01*
X10201Y688846D01*
X10171Y688731D01*
X10167Y688671D01*
X10163Y688651D01*
X10165Y688630D01*
X10161Y688570D01*
X10161Y11430D01*
X10176Y11312D01*
X10183Y11193D01*
X10196Y11155D01*
X10201Y11114D01*
X10244Y11004D01*
X10281Y10891D01*
X10303Y10856D01*
X10318Y10819D01*
X10387Y10723D01*
X10451Y10622D01*
X10481Y10594D01*
X10504Y10561D01*
X10596Y10485D01*
X10683Y10404D01*
X10718Y10384D01*
X10749Y10359D01*
X10857Y10308D01*
X10961Y10250D01*
X11001Y10240D01*
X11037Y10223D01*
X11154Y10201D01*
X11269Y10171D01*
X11329Y10167D01*
X11349Y10163D01*
X11370Y10165D01*
X11430Y10161D01*
X451270Y10161D01*
X451388Y10176D01*
G37*
G36*
X451388Y353076D02*
X451388Y353076D01*
X451507Y353083D01*
X451545Y353096D01*
X451586Y353101D01*
X451696Y353144D01*
X451809Y353181D01*
X451844Y353203D01*
X451881Y353218D01*
X451977Y353288D01*
X452078Y353351D01*
X452106Y353381D01*
X452139Y353404D01*
X452215Y353496D01*
X452296Y353583D01*
X452316Y353618D01*
X452341Y353649D01*
X452392Y353757D01*
X452450Y353861D01*
X452460Y353901D01*
X452477Y353937D01*
X452499Y354054D01*
X452529Y354169D01*
X452533Y354230D01*
X452537Y354250D01*
X452535Y354270D01*
X452539Y354330D01*
X452539Y688570D01*
X452524Y688688D01*
X452517Y688807D01*
X452504Y688845D01*
X452499Y688886D01*
X452456Y688996D01*
X452419Y689109D01*
X452397Y689144D01*
X452382Y689181D01*
X452313Y689277D01*
X452249Y689378D01*
X452219Y689406D01*
X452196Y689439D01*
X452104Y689515D01*
X452017Y689596D01*
X451982Y689616D01*
X451951Y689641D01*
X451843Y689692D01*
X451739Y689750D01*
X451699Y689760D01*
X451663Y689777D01*
X451546Y689799D01*
X451431Y689829D01*
X451371Y689833D01*
X451351Y689837D01*
X451330Y689835D01*
X451270Y689839D01*
X234950Y689839D01*
X234832Y689824D01*
X234713Y689817D01*
X234675Y689804D01*
X234634Y689799D01*
X234524Y689756D01*
X234411Y689719D01*
X234376Y689697D01*
X234339Y689682D01*
X234243Y689613D01*
X234142Y689549D01*
X234114Y689519D01*
X234081Y689496D01*
X234006Y689404D01*
X233924Y689317D01*
X233904Y689282D01*
X233879Y689251D01*
X233828Y689143D01*
X233770Y689039D01*
X233760Y688999D01*
X233743Y688963D01*
X233721Y688846D01*
X233691Y688731D01*
X233687Y688671D01*
X233683Y688651D01*
X233685Y688630D01*
X233681Y688570D01*
X233681Y642600D01*
X233698Y642462D01*
X233711Y642324D01*
X233718Y642305D01*
X233721Y642285D01*
X233772Y642155D01*
X233819Y642025D01*
X233830Y642008D01*
X233838Y641989D01*
X233919Y641877D01*
X233997Y641762D01*
X234013Y641748D01*
X234024Y641732D01*
X234132Y641643D01*
X234236Y641551D01*
X234254Y641542D01*
X234269Y641529D01*
X234395Y641470D01*
X234519Y641406D01*
X234539Y641402D01*
X234557Y641393D01*
X234693Y641367D01*
X234829Y641337D01*
X234850Y641337D01*
X234870Y641334D01*
X235008Y641342D01*
X235147Y641346D01*
X235167Y641352D01*
X235187Y641353D01*
X235319Y641396D01*
X235453Y641435D01*
X235470Y641445D01*
X235489Y641451D01*
X235607Y641526D01*
X235727Y641596D01*
X235748Y641615D01*
X235758Y641622D01*
X235772Y641636D01*
X235848Y641703D01*
X236352Y642207D01*
X237816Y643271D01*
X239428Y644092D01*
X241148Y644651D01*
X241301Y644675D01*
X241301Y634710D01*
X241316Y634592D01*
X241323Y634473D01*
X241336Y634435D01*
X241341Y634395D01*
X241384Y634284D01*
X241421Y634171D01*
X241443Y634137D01*
X241458Y634099D01*
X241528Y634003D01*
X241591Y633902D01*
X241621Y633874D01*
X241644Y633842D01*
X241736Y633766D01*
X241823Y633684D01*
X241858Y633665D01*
X241889Y633639D01*
X241997Y633588D01*
X242101Y633531D01*
X242141Y633520D01*
X242177Y633503D01*
X242294Y633481D01*
X242409Y633451D01*
X242470Y633447D01*
X242490Y633443D01*
X242510Y633445D01*
X242570Y633441D01*
X243841Y633441D01*
X243841Y633439D01*
X242570Y633439D01*
X242452Y633424D01*
X242333Y633417D01*
X242295Y633404D01*
X242254Y633399D01*
X242144Y633355D01*
X242031Y633319D01*
X241996Y633297D01*
X241959Y633282D01*
X241863Y633212D01*
X241762Y633149D01*
X241734Y633119D01*
X241701Y633095D01*
X241626Y633004D01*
X241544Y632917D01*
X241524Y632882D01*
X241499Y632850D01*
X241448Y632743D01*
X241390Y632638D01*
X241380Y632599D01*
X241363Y632563D01*
X241341Y632446D01*
X241311Y632331D01*
X241307Y632270D01*
X241303Y632250D01*
X241305Y632230D01*
X241301Y632170D01*
X241301Y622205D01*
X241148Y622229D01*
X239428Y622788D01*
X237816Y623609D01*
X236352Y624673D01*
X235848Y625177D01*
X235738Y625262D01*
X235631Y625351D01*
X235612Y625360D01*
X235596Y625372D01*
X235468Y625428D01*
X235343Y625487D01*
X235323Y625490D01*
X235304Y625498D01*
X235166Y625520D01*
X235031Y625546D01*
X235010Y625545D01*
X234990Y625548D01*
X234851Y625535D01*
X234713Y625527D01*
X234694Y625520D01*
X234674Y625519D01*
X234543Y625471D01*
X234411Y625429D01*
X234393Y625418D01*
X234374Y625411D01*
X234260Y625333D01*
X234142Y625258D01*
X234128Y625244D01*
X234111Y625232D01*
X234019Y625128D01*
X233924Y625027D01*
X233914Y625009D01*
X233901Y624994D01*
X233838Y624870D01*
X233770Y624748D01*
X233765Y624729D01*
X233756Y624711D01*
X233726Y624575D01*
X233691Y624440D01*
X233689Y624412D01*
X233687Y624400D01*
X233687Y624380D01*
X233681Y624280D01*
X233681Y608946D01*
X233693Y608848D01*
X233696Y608749D01*
X233713Y608691D01*
X233721Y608631D01*
X233757Y608539D01*
X233785Y608444D01*
X233815Y608391D01*
X233838Y608335D01*
X233896Y608255D01*
X233946Y608170D01*
X234012Y608094D01*
X234024Y608078D01*
X234034Y608070D01*
X234053Y608049D01*
X244144Y597957D01*
X245111Y595623D01*
X245111Y565275D01*
X245126Y565157D01*
X245133Y565038D01*
X245146Y565000D01*
X245151Y564959D01*
X245194Y564849D01*
X245231Y564736D01*
X245253Y564701D01*
X245268Y564664D01*
X245337Y564568D01*
X245401Y564467D01*
X245431Y564439D01*
X245454Y564406D01*
X245546Y564330D01*
X245633Y564249D01*
X245668Y564229D01*
X245699Y564204D01*
X245807Y564153D01*
X245911Y564095D01*
X245951Y564085D01*
X245987Y564068D01*
X246104Y564046D01*
X246219Y564016D01*
X246279Y564012D01*
X246299Y564008D01*
X246320Y564010D01*
X246380Y564006D01*
X248501Y564006D01*
X250368Y563232D01*
X251797Y561803D01*
X252571Y559936D01*
X252571Y539884D01*
X251797Y538017D01*
X250368Y536588D01*
X248501Y535814D01*
X246380Y535814D01*
X246262Y535799D01*
X246143Y535792D01*
X246105Y535779D01*
X246064Y535774D01*
X245954Y535731D01*
X245841Y535694D01*
X245806Y535672D01*
X245769Y535657D01*
X245673Y535588D01*
X245572Y535524D01*
X245544Y535494D01*
X245511Y535471D01*
X245435Y535379D01*
X245354Y535292D01*
X245334Y535257D01*
X245309Y535226D01*
X245258Y535118D01*
X245200Y535014D01*
X245190Y534974D01*
X245173Y534938D01*
X245151Y534821D01*
X245121Y534706D01*
X245117Y534646D01*
X245113Y534626D01*
X245115Y534605D01*
X245111Y534545D01*
X245111Y521970D01*
X245123Y521872D01*
X245126Y521773D01*
X245143Y521715D01*
X245151Y521654D01*
X245187Y521562D01*
X245215Y521467D01*
X245245Y521415D01*
X245268Y521359D01*
X245326Y521279D01*
X245376Y521193D01*
X245442Y521118D01*
X245454Y521101D01*
X245464Y521094D01*
X245482Y521073D01*
X255643Y510913D01*
X255721Y510852D01*
X255793Y510784D01*
X255846Y510755D01*
X255894Y510718D01*
X255985Y510678D01*
X256071Y510630D01*
X256130Y510615D01*
X256186Y510591D01*
X256284Y510576D01*
X256379Y510551D01*
X256479Y510545D01*
X256500Y510541D01*
X256512Y510543D01*
X256540Y510541D01*
X308084Y510541D01*
X321311Y497314D01*
X321311Y451560D01*
X321326Y451442D01*
X321333Y451323D01*
X321346Y451285D01*
X321351Y451244D01*
X321394Y451134D01*
X321431Y451021D01*
X321453Y450986D01*
X321468Y450949D01*
X321538Y450853D01*
X321601Y450752D01*
X321631Y450724D01*
X321654Y450691D01*
X321746Y450615D01*
X321833Y450534D01*
X321868Y450514D01*
X321899Y450489D01*
X322007Y450438D01*
X322111Y450380D01*
X322151Y450370D01*
X322187Y450353D01*
X322304Y450331D01*
X322419Y450301D01*
X322480Y450297D01*
X322500Y450293D01*
X322520Y450295D01*
X322580Y450291D01*
X324386Y450291D01*
X324386Y444855D01*
X324401Y444737D01*
X324408Y444618D01*
X324420Y444580D01*
X324426Y444540D01*
X324441Y444501D01*
X324426Y444421D01*
X324396Y444305D01*
X324392Y444245D01*
X324388Y444225D01*
X324390Y444205D01*
X324386Y444145D01*
X324386Y438709D01*
X322580Y438709D01*
X322462Y438694D01*
X322343Y438687D01*
X322305Y438674D01*
X322264Y438669D01*
X322154Y438626D01*
X322041Y438589D01*
X322006Y438567D01*
X321969Y438552D01*
X321873Y438483D01*
X321772Y438419D01*
X321744Y438389D01*
X321711Y438366D01*
X321636Y438274D01*
X321554Y438187D01*
X321534Y438152D01*
X321509Y438121D01*
X321458Y438013D01*
X321400Y437909D01*
X321390Y437869D01*
X321373Y437833D01*
X321351Y437716D01*
X321321Y437601D01*
X321317Y437541D01*
X321313Y437521D01*
X321315Y437500D01*
X321311Y437440D01*
X321311Y401320D01*
X321323Y401222D01*
X321326Y401123D01*
X321343Y401065D01*
X321351Y401004D01*
X321387Y400912D01*
X321415Y400817D01*
X321445Y400765D01*
X321468Y400709D01*
X321526Y400629D01*
X321576Y400543D01*
X321642Y400468D01*
X321654Y400451D01*
X321664Y400444D01*
X321683Y400423D01*
X368673Y353433D01*
X368751Y353372D01*
X368823Y353304D01*
X368876Y353275D01*
X368924Y353238D01*
X369015Y353198D01*
X369101Y353150D01*
X369160Y353135D01*
X369216Y353111D01*
X369314Y353096D01*
X369409Y353071D01*
X369509Y353065D01*
X369530Y353061D01*
X369542Y353063D01*
X369570Y353061D01*
X451270Y353061D01*
X451388Y353076D01*
G37*
%LPC*%
G36*
X162533Y54154D02*
X162533Y54154D01*
X161666Y54513D01*
X161658Y54515D01*
X161649Y54520D01*
X161504Y54557D01*
X161360Y54597D01*
X161350Y54597D01*
X161341Y54599D01*
X161181Y54609D01*
X122944Y54609D01*
X120143Y55769D01*
X105299Y70613D01*
X104139Y73414D01*
X104139Y186818D01*
X104127Y186916D01*
X104124Y187015D01*
X104107Y187073D01*
X104099Y187133D01*
X104063Y187225D01*
X104035Y187320D01*
X104005Y187373D01*
X103982Y187429D01*
X103924Y187509D01*
X103874Y187594D01*
X103808Y187670D01*
X103796Y187686D01*
X103786Y187694D01*
X103768Y187715D01*
X92465Y199018D01*
X92387Y199078D01*
X92315Y199146D01*
X92262Y199175D01*
X92214Y199212D01*
X92123Y199252D01*
X92036Y199300D01*
X91978Y199315D01*
X91922Y199339D01*
X91824Y199354D01*
X91728Y199379D01*
X91628Y199385D01*
X91608Y199389D01*
X91596Y199387D01*
X91568Y199389D01*
X79299Y199389D01*
X79180Y199374D01*
X79060Y199367D01*
X79023Y199354D01*
X78983Y199349D01*
X78872Y199305D01*
X78758Y199268D01*
X78706Y199240D01*
X78688Y199232D01*
X78671Y199220D01*
X78617Y199191D01*
X73724Y196074D01*
X73679Y196037D01*
X73629Y196007D01*
X73508Y195901D01*
X72720Y195112D01*
X71377Y194556D01*
X71351Y194541D01*
X71322Y194532D01*
X71181Y194454D01*
X71031Y194359D01*
X70940Y194343D01*
X70885Y194325D01*
X70827Y194317D01*
X70675Y194265D01*
X67562Y192976D01*
X61978Y192976D01*
X56820Y195112D01*
X52872Y199060D01*
X50736Y204218D01*
X50736Y209802D01*
X52872Y214960D01*
X56820Y218908D01*
X61978Y221044D01*
X67562Y221044D01*
X70675Y219755D01*
X70731Y219739D01*
X70784Y219715D01*
X70940Y219677D01*
X71031Y219661D01*
X71181Y219566D01*
X71208Y219553D01*
X71233Y219535D01*
X71377Y219464D01*
X72720Y218908D01*
X73508Y218119D01*
X73554Y218084D01*
X73594Y218041D01*
X73724Y217946D01*
X78617Y214829D01*
X78725Y214778D01*
X78830Y214720D01*
X78869Y214711D01*
X78904Y214694D01*
X79022Y214671D01*
X79138Y214641D01*
X79197Y214637D01*
X79217Y214633D01*
X79237Y214635D01*
X79299Y214631D01*
X96766Y214631D01*
X99567Y213471D01*
X114673Y198365D01*
X114757Y198299D01*
X114806Y198253D01*
X114831Y198239D01*
X114889Y198191D01*
X114908Y198182D01*
X114924Y198170D01*
X115052Y198114D01*
X115177Y198055D01*
X115197Y198052D01*
X115216Y198044D01*
X115354Y198022D01*
X115490Y197996D01*
X115510Y197997D01*
X115530Y197994D01*
X115669Y198007D01*
X115807Y198015D01*
X115826Y198022D01*
X115846Y198023D01*
X115978Y198071D01*
X116109Y198113D01*
X116127Y198124D01*
X116146Y198131D01*
X116261Y198209D01*
X116378Y198284D01*
X116392Y198298D01*
X116409Y198310D01*
X116501Y198414D01*
X116596Y198515D01*
X116606Y198533D01*
X116619Y198548D01*
X116683Y198672D01*
X116750Y198794D01*
X116755Y198813D01*
X116764Y198831D01*
X116775Y198883D01*
X116777Y198886D01*
X116781Y198909D01*
X116794Y198967D01*
X116829Y199102D01*
X116831Y199130D01*
X116834Y199142D01*
X116833Y199162D01*
X116834Y199187D01*
X116837Y199198D01*
X116836Y199210D01*
X116839Y199262D01*
X116839Y221108D01*
X116827Y221206D01*
X116824Y221305D01*
X116807Y221363D01*
X116799Y221423D01*
X116763Y221515D01*
X116735Y221610D01*
X116705Y221663D01*
X116682Y221719D01*
X116624Y221799D01*
X116574Y221884D01*
X116508Y221960D01*
X116496Y221976D01*
X116486Y221984D01*
X116468Y222005D01*
X104657Y233816D01*
X104579Y233876D01*
X104507Y233944D01*
X104454Y233973D01*
X104406Y234010D01*
X104315Y234050D01*
X104228Y234098D01*
X104170Y234113D01*
X104114Y234137D01*
X104016Y234152D01*
X103920Y234177D01*
X103820Y234183D01*
X103800Y234187D01*
X103788Y234185D01*
X103760Y234187D01*
X79299Y234187D01*
X79180Y234172D01*
X79060Y234165D01*
X79023Y234152D01*
X78983Y234147D01*
X78872Y234103D01*
X78758Y234066D01*
X78706Y234038D01*
X78688Y234030D01*
X78671Y234018D01*
X78617Y233989D01*
X73801Y230921D01*
X73724Y230872D01*
X73679Y230835D01*
X73629Y230805D01*
X73508Y230699D01*
X72720Y229910D01*
X71377Y229354D01*
X71351Y229339D01*
X71322Y229330D01*
X71181Y229252D01*
X71031Y229157D01*
X70940Y229141D01*
X70885Y229123D01*
X70827Y229115D01*
X70675Y229063D01*
X67562Y227774D01*
X61978Y227774D01*
X56820Y229910D01*
X52872Y233858D01*
X50736Y239016D01*
X50736Y244600D01*
X52872Y249758D01*
X56820Y253706D01*
X61978Y255842D01*
X67562Y255842D01*
X70675Y254553D01*
X70731Y254537D01*
X70784Y254513D01*
X70940Y254475D01*
X71031Y254459D01*
X71181Y254364D01*
X71208Y254351D01*
X71233Y254333D01*
X71377Y254262D01*
X72720Y253706D01*
X73508Y252917D01*
X73554Y252882D01*
X73594Y252839D01*
X73724Y252744D01*
X78617Y249627D01*
X78725Y249576D01*
X78830Y249518D01*
X78869Y249509D01*
X78904Y249492D01*
X79022Y249469D01*
X79138Y249439D01*
X79197Y249435D01*
X79217Y249431D01*
X79237Y249433D01*
X79299Y249429D01*
X108958Y249429D01*
X111759Y248269D01*
X130921Y229107D01*
X132081Y226306D01*
X132081Y202467D01*
X132089Y202398D01*
X132088Y202328D01*
X132109Y202241D01*
X132121Y202151D01*
X132146Y202086D01*
X132163Y202019D01*
X132205Y201939D01*
X132238Y201856D01*
X132279Y201799D01*
X132311Y201738D01*
X132372Y201671D01*
X132424Y201598D01*
X132478Y201554D01*
X132525Y201502D01*
X132600Y201453D01*
X132669Y201396D01*
X132733Y201366D01*
X132791Y201327D01*
X132876Y201298D01*
X132957Y201260D01*
X133026Y201247D01*
X133092Y201224D01*
X133181Y201217D01*
X133269Y201200D01*
X133339Y201205D01*
X133409Y201199D01*
X133497Y201214D01*
X133587Y201220D01*
X133653Y201242D01*
X133722Y201253D01*
X133804Y201290D01*
X133889Y201318D01*
X133948Y201355D01*
X134012Y201384D01*
X134082Y201440D01*
X134158Y201488D01*
X134206Y201539D01*
X134260Y201583D01*
X134315Y201654D01*
X134376Y201720D01*
X134410Y201781D01*
X134452Y201837D01*
X134523Y201981D01*
X134973Y203068D01*
X136402Y204497D01*
X138269Y205271D01*
X151291Y205271D01*
X153158Y204497D01*
X154473Y203182D01*
X154551Y203122D01*
X154623Y203054D01*
X154676Y203025D01*
X154724Y202988D01*
X154815Y202948D01*
X154902Y202900D01*
X154960Y202885D01*
X155016Y202861D01*
X155114Y202846D01*
X155210Y202821D01*
X155310Y202815D01*
X155330Y202811D01*
X155342Y202813D01*
X155370Y202811D01*
X160239Y202811D01*
X160248Y202812D01*
X160258Y202811D01*
X160406Y202832D01*
X160555Y202851D01*
X160563Y202854D01*
X160572Y202855D01*
X160725Y202907D01*
X162533Y203656D01*
X184239Y203656D01*
X186106Y202883D01*
X187536Y201453D01*
X188309Y199586D01*
X188309Y191574D01*
X187536Y189707D01*
X185928Y188099D01*
X185898Y188060D01*
X185830Y187994D01*
X185810Y187962D01*
X185785Y187935D01*
X185748Y187867D01*
X185733Y187847D01*
X185718Y187813D01*
X185663Y187724D01*
X185652Y187688D01*
X185634Y187654D01*
X185613Y187571D01*
X185607Y187556D01*
X185602Y187529D01*
X185569Y187420D01*
X185567Y187382D01*
X185558Y187346D01*
X185559Y187253D01*
X185557Y187242D01*
X185559Y187221D01*
X185553Y187102D01*
X185560Y187065D01*
X185561Y187028D01*
X185592Y186870D01*
X185769Y186210D01*
X185769Y184377D01*
X173614Y184377D01*
X173496Y184362D01*
X173377Y184355D01*
X173372Y184353D01*
X173319Y184367D01*
X173259Y184371D01*
X173239Y184374D01*
X173218Y184373D01*
X173158Y184377D01*
X161003Y184377D01*
X161003Y186300D01*
X160988Y186418D01*
X160980Y186537D01*
X160968Y186575D01*
X160963Y186616D01*
X160919Y186726D01*
X160882Y186839D01*
X160861Y186874D01*
X160846Y186911D01*
X160776Y187007D01*
X160712Y187108D01*
X160683Y187136D01*
X160659Y187169D01*
X160567Y187245D01*
X160481Y187326D01*
X160445Y187346D01*
X160414Y187371D01*
X160306Y187422D01*
X160202Y187480D01*
X160163Y187490D01*
X160126Y187507D01*
X160010Y187529D01*
X159894Y187559D01*
X159834Y187563D01*
X159814Y187567D01*
X159794Y187565D01*
X159734Y187569D01*
X155370Y187569D01*
X155272Y187557D01*
X155173Y187554D01*
X155115Y187537D01*
X155055Y187529D01*
X154963Y187493D01*
X154868Y187465D01*
X154815Y187435D01*
X154759Y187412D01*
X154679Y187354D01*
X154594Y187304D01*
X154518Y187238D01*
X154502Y187226D01*
X154494Y187216D01*
X154473Y187198D01*
X153112Y185837D01*
X153111Y185836D01*
X153009Y185778D01*
X152978Y185748D01*
X152943Y185724D01*
X152865Y185638D01*
X152781Y185557D01*
X152758Y185520D01*
X152730Y185488D01*
X152675Y185385D01*
X152615Y185286D01*
X152602Y185245D01*
X152582Y185206D01*
X152555Y185093D01*
X152521Y184982D01*
X152519Y184939D01*
X152509Y184897D01*
X152511Y184781D01*
X152506Y184664D01*
X152515Y184622D01*
X152515Y184579D01*
X152547Y184467D01*
X152570Y184353D01*
X152589Y184314D01*
X152601Y184273D01*
X152644Y184186D01*
X152821Y183524D01*
X152821Y180689D01*
X146010Y180689D01*
X145892Y180674D01*
X145773Y180667D01*
X145735Y180654D01*
X145695Y180649D01*
X145584Y180606D01*
X145471Y180569D01*
X145437Y180547D01*
X145399Y180532D01*
X145303Y180463D01*
X145202Y180399D01*
X145174Y180369D01*
X145142Y180346D01*
X145066Y180254D01*
X144984Y180167D01*
X144965Y180132D01*
X144939Y180101D01*
X144888Y179993D01*
X144831Y179889D01*
X144821Y179849D01*
X144803Y179813D01*
X144783Y179706D01*
X144779Y179736D01*
X144735Y179846D01*
X144699Y179959D01*
X144677Y179994D01*
X144662Y180031D01*
X144592Y180127D01*
X144529Y180228D01*
X144499Y180256D01*
X144475Y180289D01*
X144384Y180365D01*
X144297Y180446D01*
X144262Y180466D01*
X144230Y180491D01*
X144123Y180542D01*
X144018Y180600D01*
X143979Y180610D01*
X143943Y180627D01*
X143826Y180649D01*
X143710Y180679D01*
X143650Y180683D01*
X143630Y180687D01*
X143610Y180685D01*
X143550Y180689D01*
X136739Y180689D01*
X136739Y183524D01*
X136917Y184186D01*
X136928Y184204D01*
X136966Y184314D01*
X137011Y184421D01*
X137018Y184464D01*
X137031Y184505D01*
X137041Y184621D01*
X137058Y184736D01*
X137053Y184779D01*
X137057Y184822D01*
X137037Y184937D01*
X137025Y185052D01*
X137010Y185093D01*
X137002Y185135D01*
X136954Y185241D01*
X136914Y185350D01*
X136889Y185386D01*
X136872Y185425D01*
X136799Y185516D01*
X136732Y185612D01*
X136700Y185640D01*
X136673Y185674D01*
X136580Y185743D01*
X136492Y185820D01*
X136453Y185839D01*
X136423Y185861D01*
X134973Y187312D01*
X134523Y188399D01*
X134488Y188459D01*
X134462Y188524D01*
X134410Y188597D01*
X134365Y188675D01*
X134317Y188725D01*
X134276Y188782D01*
X134206Y188839D01*
X134144Y188903D01*
X134084Y188940D01*
X134031Y188984D01*
X133949Y189023D01*
X133873Y189070D01*
X133806Y189090D01*
X133743Y189120D01*
X133655Y189137D01*
X133569Y189163D01*
X133499Y189167D01*
X133430Y189180D01*
X133341Y189174D01*
X133251Y189178D01*
X133183Y189164D01*
X133113Y189160D01*
X133028Y189132D01*
X132940Y189114D01*
X132877Y189083D01*
X132811Y189062D01*
X132735Y189014D01*
X132654Y188974D01*
X132601Y188929D01*
X132542Y188892D01*
X132480Y188826D01*
X132412Y188768D01*
X132372Y188711D01*
X132324Y188660D01*
X132281Y188582D01*
X132229Y188508D01*
X132204Y188443D01*
X132170Y188382D01*
X132148Y188295D01*
X132116Y188211D01*
X132108Y188141D01*
X132091Y188074D01*
X132081Y187913D01*
X132081Y171322D01*
X132093Y171224D01*
X132096Y171125D01*
X132113Y171067D01*
X132121Y171007D01*
X132157Y170915D01*
X132185Y170820D01*
X132215Y170767D01*
X132238Y170711D01*
X132296Y170631D01*
X132346Y170546D01*
X132412Y170470D01*
X132424Y170454D01*
X132434Y170446D01*
X132452Y170425D01*
X137405Y165472D01*
X137483Y165412D01*
X137555Y165344D01*
X137608Y165315D01*
X137656Y165278D01*
X137747Y165238D01*
X137834Y165190D01*
X137892Y165175D01*
X137948Y165151D01*
X138046Y165136D01*
X138142Y165111D01*
X138242Y165105D01*
X138262Y165101D01*
X138274Y165103D01*
X138302Y165101D01*
X157194Y165101D01*
X157312Y165116D01*
X157430Y165123D01*
X157469Y165136D01*
X157509Y165141D01*
X157620Y165184D01*
X157733Y165221D01*
X157767Y165243D01*
X157805Y165258D01*
X157901Y165327D01*
X158002Y165391D01*
X158029Y165421D01*
X158062Y165444D01*
X158138Y165536D01*
X158220Y165623D01*
X158239Y165658D01*
X158265Y165689D01*
X158316Y165797D01*
X158373Y165901D01*
X158383Y165941D01*
X158400Y165977D01*
X158423Y166094D01*
X158453Y166209D01*
X158456Y166269D01*
X158460Y166289D01*
X158459Y166310D01*
X158463Y166370D01*
X158463Y174186D01*
X159236Y176053D01*
X160844Y177661D01*
X160874Y177700D01*
X160942Y177766D01*
X160962Y177798D01*
X160987Y177825D01*
X161024Y177893D01*
X161039Y177913D01*
X161054Y177947D01*
X161109Y178036D01*
X161120Y178072D01*
X161138Y178106D01*
X161159Y178189D01*
X161165Y178204D01*
X161170Y178231D01*
X161203Y178340D01*
X161205Y178378D01*
X161214Y178414D01*
X161213Y178507D01*
X161215Y178518D01*
X161213Y178539D01*
X161219Y178658D01*
X161212Y178695D01*
X161211Y178732D01*
X161180Y178890D01*
X161003Y179550D01*
X161003Y181383D01*
X173158Y181383D01*
X173276Y181398D01*
X173395Y181405D01*
X173400Y181407D01*
X173453Y181393D01*
X173513Y181389D01*
X173533Y181386D01*
X173554Y181387D01*
X173614Y181383D01*
X185769Y181383D01*
X185769Y179550D01*
X185592Y178890D01*
X185587Y178853D01*
X185575Y178817D01*
X185566Y178697D01*
X185562Y178679D01*
X185562Y178670D01*
X185549Y178575D01*
X185554Y178538D01*
X185551Y178500D01*
X185571Y178385D01*
X185572Y178362D01*
X185575Y178348D01*
X185586Y178259D01*
X185599Y178224D01*
X185606Y178187D01*
X185651Y178087D01*
X185660Y178056D01*
X185670Y178038D01*
X185700Y177962D01*
X185721Y177932D01*
X185737Y177897D01*
X185800Y177819D01*
X185822Y177782D01*
X185852Y177747D01*
X185884Y177703D01*
X185913Y177679D01*
X185936Y177649D01*
X185952Y177638D01*
X187536Y176053D01*
X188309Y174186D01*
X188309Y166174D01*
X187540Y164316D01*
X187513Y164220D01*
X187478Y164128D01*
X187472Y164067D01*
X187456Y164009D01*
X187454Y163910D01*
X187443Y163812D01*
X187452Y163752D01*
X187451Y163691D01*
X187474Y163595D01*
X187487Y163497D01*
X187520Y163402D01*
X187525Y163382D01*
X187530Y163371D01*
X187540Y163344D01*
X188309Y161486D01*
X188309Y153474D01*
X187536Y151607D01*
X186106Y150177D01*
X184239Y149404D01*
X162533Y149404D01*
X161666Y149763D01*
X161658Y149765D01*
X161649Y149770D01*
X161504Y149807D01*
X161360Y149847D01*
X161350Y149847D01*
X161341Y149849D01*
X161181Y149859D01*
X133104Y149859D01*
X130303Y151019D01*
X127981Y153342D01*
X121547Y159775D01*
X121438Y159860D01*
X121331Y159949D01*
X121312Y159958D01*
X121296Y159970D01*
X121168Y160026D01*
X121043Y160085D01*
X121023Y160088D01*
X121004Y160096D01*
X120866Y160118D01*
X120730Y160144D01*
X120710Y160143D01*
X120690Y160146D01*
X120551Y160133D01*
X120413Y160125D01*
X120394Y160118D01*
X120374Y160117D01*
X120242Y160069D01*
X120111Y160027D01*
X120093Y160016D01*
X120074Y160009D01*
X119959Y159931D01*
X119842Y159856D01*
X119828Y159842D01*
X119811Y159830D01*
X119719Y159726D01*
X119624Y159625D01*
X119614Y159607D01*
X119601Y159592D01*
X119537Y159468D01*
X119470Y159346D01*
X119465Y159327D01*
X119456Y159309D01*
X119426Y159173D01*
X119391Y159038D01*
X119389Y159010D01*
X119386Y158998D01*
X119387Y158978D01*
X119381Y158878D01*
X119381Y78612D01*
X119393Y78514D01*
X119396Y78415D01*
X119413Y78357D01*
X119421Y78297D01*
X119457Y78205D01*
X119485Y78110D01*
X119515Y78057D01*
X119538Y78001D01*
X119596Y77921D01*
X119646Y77836D01*
X119712Y77760D01*
X119724Y77744D01*
X119734Y77736D01*
X119752Y77715D01*
X127245Y70222D01*
X127323Y70162D01*
X127395Y70094D01*
X127448Y70065D01*
X127496Y70028D01*
X127587Y69988D01*
X127674Y69940D01*
X127732Y69925D01*
X127788Y69901D01*
X127886Y69886D01*
X127982Y69861D01*
X128082Y69855D01*
X128102Y69851D01*
X128114Y69853D01*
X128142Y69851D01*
X157194Y69851D01*
X157312Y69866D01*
X157430Y69873D01*
X157469Y69886D01*
X157509Y69891D01*
X157620Y69934D01*
X157733Y69971D01*
X157767Y69993D01*
X157805Y70008D01*
X157901Y70077D01*
X158002Y70141D01*
X158029Y70171D01*
X158062Y70194D01*
X158138Y70286D01*
X158220Y70373D01*
X158239Y70408D01*
X158265Y70439D01*
X158316Y70547D01*
X158373Y70651D01*
X158383Y70691D01*
X158400Y70727D01*
X158423Y70844D01*
X158453Y70959D01*
X158456Y71019D01*
X158460Y71039D01*
X158459Y71060D01*
X158463Y71120D01*
X158463Y78936D01*
X159236Y80803D01*
X160844Y82411D01*
X160874Y82450D01*
X160942Y82516D01*
X160962Y82548D01*
X160987Y82575D01*
X161024Y82643D01*
X161039Y82663D01*
X161054Y82697D01*
X161109Y82786D01*
X161120Y82822D01*
X161138Y82856D01*
X161159Y82939D01*
X161165Y82954D01*
X161170Y82981D01*
X161203Y83090D01*
X161205Y83128D01*
X161214Y83164D01*
X161213Y83257D01*
X161215Y83268D01*
X161213Y83289D01*
X161219Y83408D01*
X161212Y83445D01*
X161211Y83482D01*
X161180Y83640D01*
X161003Y84300D01*
X161003Y86133D01*
X173158Y86133D01*
X173276Y86148D01*
X173395Y86155D01*
X173400Y86157D01*
X173453Y86143D01*
X173513Y86139D01*
X173533Y86136D01*
X173554Y86137D01*
X173614Y86133D01*
X185769Y86133D01*
X185769Y84300D01*
X185592Y83640D01*
X185587Y83603D01*
X185575Y83567D01*
X185566Y83447D01*
X185562Y83429D01*
X185562Y83420D01*
X185549Y83325D01*
X185554Y83288D01*
X185551Y83250D01*
X185571Y83135D01*
X185572Y83112D01*
X185575Y83098D01*
X185586Y83009D01*
X185599Y82974D01*
X185606Y82937D01*
X185651Y82837D01*
X185660Y82806D01*
X185670Y82788D01*
X185700Y82712D01*
X185721Y82682D01*
X185737Y82647D01*
X185800Y82569D01*
X185822Y82532D01*
X185852Y82497D01*
X185884Y82453D01*
X185913Y82429D01*
X185936Y82399D01*
X185952Y82388D01*
X187536Y80803D01*
X188309Y78936D01*
X188309Y70924D01*
X187540Y69066D01*
X187513Y68970D01*
X187478Y68878D01*
X187472Y68817D01*
X187456Y68759D01*
X187454Y68660D01*
X187443Y68562D01*
X187452Y68502D01*
X187451Y68441D01*
X187474Y68345D01*
X187488Y68247D01*
X187520Y68152D01*
X187525Y68132D01*
X187531Y68121D01*
X187540Y68094D01*
X188309Y66236D01*
X188309Y58224D01*
X187536Y56357D01*
X186106Y54927D01*
X184239Y54154D01*
X162533Y54154D01*
G37*
%LPD*%
%LPC*%
G36*
X61978Y332676D02*
X61978Y332676D01*
X56820Y334812D01*
X52872Y338760D01*
X50736Y343918D01*
X50736Y349502D01*
X52025Y352615D01*
X52041Y352671D01*
X52065Y352724D01*
X52103Y352880D01*
X52119Y352971D01*
X52214Y353121D01*
X52227Y353148D01*
X52245Y353173D01*
X52316Y353317D01*
X52872Y354660D01*
X53661Y355448D01*
X53696Y355494D01*
X53739Y355534D01*
X53834Y355664D01*
X53883Y355741D01*
X54039Y355985D01*
X54039Y355986D01*
X54847Y357255D01*
X55655Y358524D01*
X55656Y358524D01*
X56464Y359793D01*
X56951Y360557D01*
X57002Y360665D01*
X57060Y360770D01*
X57069Y360809D01*
X57086Y360845D01*
X57109Y360962D01*
X57139Y361078D01*
X57143Y361137D01*
X57147Y361157D01*
X57145Y361177D01*
X57149Y361239D01*
X57149Y371086D01*
X58309Y373887D01*
X76963Y392541D01*
X79764Y393701D01*
X97918Y393701D01*
X98016Y393713D01*
X98115Y393716D01*
X98173Y393733D01*
X98233Y393741D01*
X98325Y393777D01*
X98420Y393805D01*
X98473Y393835D01*
X98529Y393858D01*
X98609Y393916D01*
X98694Y393966D01*
X98770Y394032D01*
X98786Y394044D01*
X98794Y394054D01*
X98815Y394072D01*
X103768Y399025D01*
X103828Y399103D01*
X103896Y399175D01*
X103925Y399228D01*
X103962Y399276D01*
X104002Y399367D01*
X104050Y399454D01*
X104065Y399512D01*
X104089Y399568D01*
X104104Y399666D01*
X104129Y399762D01*
X104135Y399862D01*
X104139Y399882D01*
X104137Y399894D01*
X104139Y399922D01*
X104139Y452756D01*
X104122Y452893D01*
X104109Y453032D01*
X104102Y453051D01*
X104099Y453071D01*
X104048Y453200D01*
X104001Y453331D01*
X103990Y453348D01*
X103982Y453367D01*
X103901Y453479D01*
X103823Y453594D01*
X103807Y453608D01*
X103796Y453624D01*
X103688Y453713D01*
X103584Y453805D01*
X103566Y453814D01*
X103551Y453827D01*
X103425Y453886D01*
X103301Y453950D01*
X103281Y453954D01*
X103263Y453963D01*
X103127Y453989D01*
X102991Y454019D01*
X102970Y454019D01*
X102951Y454022D01*
X102812Y454014D01*
X102673Y454010D01*
X102653Y454004D01*
X102633Y454003D01*
X102501Y453960D01*
X102367Y453921D01*
X102350Y453911D01*
X102331Y453905D01*
X102213Y453830D01*
X102093Y453760D01*
X102072Y453741D01*
X102062Y453734D01*
X102048Y453720D01*
X101973Y453653D01*
X80432Y432113D01*
X80359Y432018D01*
X80279Y431928D01*
X80262Y431893D01*
X80237Y431862D01*
X80189Y431751D01*
X80135Y431645D01*
X80119Y431588D01*
X80111Y431570D01*
X80108Y431549D01*
X80090Y431490D01*
X78834Y425826D01*
X78829Y425768D01*
X78814Y425712D01*
X78804Y425551D01*
X78804Y424436D01*
X78248Y423094D01*
X78240Y423065D01*
X78226Y423038D01*
X78182Y422883D01*
X78143Y422709D01*
X78090Y422634D01*
X78063Y422582D01*
X78028Y422536D01*
X77957Y422391D01*
X76668Y419278D01*
X72720Y415330D01*
X67562Y413194D01*
X61978Y413194D01*
X56820Y415330D01*
X52872Y419278D01*
X50736Y424436D01*
X50736Y430020D01*
X52872Y435178D01*
X56820Y439126D01*
X59933Y440415D01*
X59984Y440444D01*
X60038Y440464D01*
X60176Y440548D01*
X60251Y440601D01*
X60425Y440640D01*
X60453Y440650D01*
X60483Y440654D01*
X60636Y440706D01*
X61978Y441262D01*
X63093Y441262D01*
X63151Y441270D01*
X63209Y441268D01*
X63368Y441292D01*
X63457Y441312D01*
X63458Y441312D01*
X69032Y442548D01*
X69145Y442589D01*
X69260Y442622D01*
X69294Y442642D01*
X69332Y442656D01*
X69431Y442723D01*
X69534Y442784D01*
X69578Y442823D01*
X69595Y442834D01*
X69609Y442849D01*
X69655Y442890D01*
X104657Y477893D01*
X104742Y478002D01*
X104831Y478109D01*
X104840Y478128D01*
X104852Y478144D01*
X104908Y478272D01*
X104967Y478397D01*
X104970Y478417D01*
X104978Y478436D01*
X105000Y478574D01*
X105026Y478710D01*
X105025Y478730D01*
X105028Y478750D01*
X105015Y478889D01*
X105007Y479027D01*
X105000Y479046D01*
X104999Y479066D01*
X104951Y479198D01*
X104909Y479329D01*
X104898Y479347D01*
X104891Y479366D01*
X104813Y479481D01*
X104738Y479598D01*
X104724Y479612D01*
X104712Y479629D01*
X104608Y479721D01*
X104507Y479816D01*
X104489Y479826D01*
X104474Y479839D01*
X104350Y479902D01*
X104228Y479970D01*
X104209Y479975D01*
X104191Y479984D01*
X104055Y480014D01*
X103920Y480049D01*
X103892Y480051D01*
X103880Y480054D01*
X103860Y480053D01*
X103760Y480059D01*
X93852Y480059D01*
X93754Y480047D01*
X93655Y480044D01*
X93597Y480027D01*
X93537Y480019D01*
X93445Y479983D01*
X93350Y479955D01*
X93297Y479925D01*
X93241Y479902D01*
X93161Y479844D01*
X93076Y479794D01*
X93000Y479728D01*
X92984Y479716D01*
X92976Y479706D01*
X92955Y479688D01*
X80432Y467165D01*
X80359Y467070D01*
X80279Y466980D01*
X80262Y466945D01*
X80237Y466914D01*
X80189Y466803D01*
X80135Y466697D01*
X80119Y466640D01*
X80111Y466622D01*
X80108Y466601D01*
X80090Y466542D01*
X78834Y460878D01*
X78829Y460820D01*
X78814Y460764D01*
X78804Y460603D01*
X78804Y459488D01*
X78248Y458146D01*
X78240Y458117D01*
X78226Y458089D01*
X78182Y457935D01*
X78143Y457761D01*
X78090Y457686D01*
X78063Y457635D01*
X78054Y457623D01*
X78050Y457617D01*
X78049Y457616D01*
X78028Y457588D01*
X77957Y457443D01*
X76668Y454330D01*
X72720Y450382D01*
X67562Y448246D01*
X61978Y448246D01*
X56820Y450382D01*
X52872Y454330D01*
X50736Y459488D01*
X50736Y465072D01*
X52872Y470230D01*
X56820Y474178D01*
X59933Y475467D01*
X59984Y475496D01*
X60038Y475516D01*
X60176Y475600D01*
X60251Y475653D01*
X60425Y475692D01*
X60453Y475702D01*
X60483Y475706D01*
X60636Y475758D01*
X61978Y476314D01*
X63093Y476314D01*
X63151Y476322D01*
X63209Y476320D01*
X63368Y476344D01*
X63457Y476364D01*
X63458Y476364D01*
X69032Y477600D01*
X69145Y477641D01*
X69260Y477674D01*
X69294Y477694D01*
X69332Y477708D01*
X69431Y477775D01*
X69534Y477836D01*
X69578Y477875D01*
X69595Y477886D01*
X69609Y477901D01*
X69655Y477942D01*
X83531Y491818D01*
X85853Y494141D01*
X88654Y495301D01*
X106585Y495301D01*
X106681Y495313D01*
X106779Y495316D01*
X106880Y495338D01*
X106900Y495341D01*
X106911Y495345D01*
X106936Y495350D01*
X107904Y495629D01*
X113426Y497221D01*
X113439Y497226D01*
X113561Y497268D01*
X114828Y497793D01*
X115233Y497793D01*
X115329Y497805D01*
X115427Y497808D01*
X115479Y497819D01*
X115642Y497801D01*
X115656Y497801D01*
X115784Y497793D01*
X118852Y497793D01*
X122568Y496253D01*
X122762Y496059D01*
X122872Y495974D01*
X122979Y495885D01*
X122998Y495877D01*
X123014Y495864D01*
X123141Y495809D01*
X123267Y495750D01*
X123287Y495746D01*
X123306Y495738D01*
X123443Y495716D01*
X123580Y495690D01*
X123600Y495691D01*
X123620Y495688D01*
X123758Y495701D01*
X123897Y495710D01*
X123916Y495716D01*
X123936Y495718D01*
X124068Y495765D01*
X124199Y495808D01*
X124216Y495818D01*
X124236Y495825D01*
X124351Y495904D01*
X124468Y495978D01*
X124482Y495993D01*
X124499Y496004D01*
X124591Y496108D01*
X124686Y496209D01*
X124696Y496227D01*
X124709Y496242D01*
X124773Y496366D01*
X124840Y496488D01*
X124845Y496507D01*
X124854Y496526D01*
X124884Y496662D01*
X124919Y496796D01*
X124921Y496824D01*
X124924Y496836D01*
X124923Y496856D01*
X124929Y496957D01*
X124929Y497881D01*
X129971Y497881D01*
X129971Y492339D01*
X127756Y492339D01*
X127706Y492333D01*
X127657Y492335D01*
X127549Y492313D01*
X127440Y492299D01*
X127394Y492281D01*
X127345Y492271D01*
X127246Y492223D01*
X127144Y492182D01*
X127104Y492153D01*
X127059Y492131D01*
X126976Y492060D01*
X126887Y491996D01*
X126855Y491957D01*
X126817Y491925D01*
X126754Y491835D01*
X126684Y491751D01*
X126663Y491706D01*
X126634Y491665D01*
X126595Y491562D01*
X126549Y491463D01*
X126539Y491414D01*
X126522Y491368D01*
X126509Y491258D01*
X126489Y491151D01*
X126492Y491101D01*
X126486Y491052D01*
X126502Y490943D01*
X126509Y490833D01*
X126524Y490786D01*
X126531Y490737D01*
X126583Y490584D01*
X126953Y489692D01*
X126953Y486362D01*
X126968Y486244D01*
X126975Y486125D01*
X126988Y486087D01*
X126993Y486046D01*
X127036Y485936D01*
X127073Y485823D01*
X127095Y485788D01*
X127110Y485751D01*
X127179Y485655D01*
X127243Y485554D01*
X127273Y485526D01*
X127296Y485493D01*
X127388Y485417D01*
X127475Y485336D01*
X127510Y485316D01*
X127541Y485291D01*
X127649Y485240D01*
X127753Y485182D01*
X127793Y485172D01*
X127829Y485155D01*
X127946Y485133D01*
X128061Y485103D01*
X128121Y485099D01*
X128141Y485095D01*
X128162Y485097D01*
X128222Y485093D01*
X129012Y485093D01*
X132728Y483553D01*
X135573Y480708D01*
X137113Y476992D01*
X137113Y472968D01*
X136569Y471656D01*
X136556Y471608D01*
X136535Y471563D01*
X136514Y471455D01*
X136485Y471349D01*
X136484Y471299D01*
X136475Y471250D01*
X136482Y471141D01*
X136480Y471031D01*
X136492Y470983D01*
X136495Y470933D01*
X136528Y470829D01*
X136554Y470722D01*
X136577Y470678D01*
X136593Y470631D01*
X136651Y470538D01*
X136703Y470441D01*
X136736Y470404D01*
X136763Y470362D01*
X136843Y470287D01*
X136917Y470205D01*
X136958Y470178D01*
X136994Y470144D01*
X137091Y470091D01*
X137182Y470031D01*
X137230Y470014D01*
X137273Y469990D01*
X137379Y469963D01*
X137483Y469927D01*
X137533Y469923D01*
X137581Y469911D01*
X137742Y469901D01*
X157194Y469901D01*
X157312Y469916D01*
X157430Y469923D01*
X157469Y469936D01*
X157509Y469941D01*
X157620Y469984D01*
X157733Y470021D01*
X157767Y470043D01*
X157805Y470058D01*
X157901Y470127D01*
X158002Y470191D01*
X158029Y470221D01*
X158062Y470244D01*
X158138Y470336D01*
X158220Y470423D01*
X158239Y470458D01*
X158265Y470489D01*
X158316Y470597D01*
X158373Y470701D01*
X158383Y470741D01*
X158400Y470777D01*
X158423Y470894D01*
X158453Y471009D01*
X158456Y471069D01*
X158460Y471089D01*
X158459Y471110D01*
X158463Y471170D01*
X158463Y478986D01*
X159236Y480853D01*
X160844Y482461D01*
X160874Y482500D01*
X160942Y482566D01*
X160962Y482598D01*
X160987Y482625D01*
X161024Y482693D01*
X161039Y482713D01*
X161054Y482747D01*
X161109Y482836D01*
X161120Y482872D01*
X161138Y482906D01*
X161159Y482989D01*
X161165Y483004D01*
X161170Y483031D01*
X161203Y483140D01*
X161205Y483178D01*
X161214Y483214D01*
X161213Y483307D01*
X161215Y483318D01*
X161213Y483339D01*
X161219Y483458D01*
X161212Y483495D01*
X161211Y483532D01*
X161180Y483690D01*
X161003Y484350D01*
X161003Y486183D01*
X173158Y486183D01*
X173276Y486198D01*
X173395Y486205D01*
X173400Y486207D01*
X173453Y486193D01*
X173513Y486189D01*
X173533Y486186D01*
X173554Y486187D01*
X173614Y486183D01*
X185769Y486183D01*
X185769Y484350D01*
X185592Y483690D01*
X185587Y483653D01*
X185575Y483617D01*
X185566Y483497D01*
X185562Y483479D01*
X185562Y483470D01*
X185549Y483375D01*
X185554Y483338D01*
X185551Y483300D01*
X185571Y483185D01*
X185572Y483162D01*
X185575Y483148D01*
X185586Y483059D01*
X185599Y483024D01*
X185606Y482987D01*
X185651Y482887D01*
X185660Y482856D01*
X185670Y482838D01*
X185700Y482762D01*
X185721Y482732D01*
X185737Y482697D01*
X185800Y482619D01*
X185822Y482582D01*
X185852Y482547D01*
X185884Y482503D01*
X185913Y482479D01*
X185936Y482449D01*
X185952Y482438D01*
X187536Y480853D01*
X188309Y478986D01*
X188309Y470974D01*
X187540Y469116D01*
X187513Y469020D01*
X187478Y468928D01*
X187472Y468867D01*
X187456Y468809D01*
X187454Y468710D01*
X187443Y468612D01*
X187452Y468552D01*
X187451Y468491D01*
X187474Y468395D01*
X187487Y468297D01*
X187520Y468202D01*
X187525Y468182D01*
X187530Y468171D01*
X187540Y468144D01*
X188309Y466286D01*
X188309Y458274D01*
X187536Y456407D01*
X186106Y454977D01*
X184239Y454204D01*
X162533Y454204D01*
X161666Y454563D01*
X161658Y454565D01*
X161649Y454570D01*
X161504Y454607D01*
X161360Y454647D01*
X161350Y454647D01*
X161341Y454649D01*
X161181Y454659D01*
X124332Y454659D01*
X124234Y454647D01*
X124135Y454644D01*
X124077Y454627D01*
X124017Y454619D01*
X123925Y454583D01*
X123830Y454555D01*
X123777Y454525D01*
X123721Y454502D01*
X123641Y454444D01*
X123556Y454394D01*
X123480Y454328D01*
X123464Y454316D01*
X123456Y454306D01*
X123435Y454288D01*
X119752Y450605D01*
X119692Y450527D01*
X119624Y450455D01*
X119595Y450402D01*
X119558Y450354D01*
X119518Y450263D01*
X119470Y450176D01*
X119455Y450118D01*
X119431Y450062D01*
X119416Y449964D01*
X119391Y449868D01*
X119385Y449768D01*
X119381Y449748D01*
X119383Y449736D01*
X119381Y449708D01*
X119381Y394724D01*
X118221Y391923D01*
X105917Y379619D01*
X103116Y378459D01*
X84962Y378459D01*
X84864Y378447D01*
X84765Y378444D01*
X84707Y378427D01*
X84647Y378419D01*
X84555Y378383D01*
X84460Y378355D01*
X84407Y378325D01*
X84351Y378302D01*
X84271Y378244D01*
X84186Y378194D01*
X84110Y378128D01*
X84094Y378116D01*
X84086Y378106D01*
X84065Y378088D01*
X72762Y366785D01*
X72702Y366707D01*
X72634Y366635D01*
X72605Y366582D01*
X72568Y366534D01*
X72528Y366443D01*
X72480Y366356D01*
X72465Y366298D01*
X72441Y366242D01*
X72426Y366144D01*
X72401Y366048D01*
X72395Y365948D01*
X72391Y365928D01*
X72393Y365916D01*
X72391Y365888D01*
X72391Y361239D01*
X72406Y361120D01*
X72413Y361000D01*
X72426Y360963D01*
X72431Y360923D01*
X72475Y360812D01*
X72512Y360698D01*
X72540Y360646D01*
X72548Y360628D01*
X72560Y360611D01*
X72589Y360557D01*
X75706Y355664D01*
X75743Y355619D01*
X75773Y355569D01*
X75879Y355448D01*
X76668Y354660D01*
X77224Y353317D01*
X77239Y353291D01*
X77248Y353262D01*
X77326Y353121D01*
X77421Y352971D01*
X77437Y352880D01*
X77454Y352825D01*
X77463Y352767D01*
X77515Y352615D01*
X78804Y349502D01*
X78804Y343918D01*
X76668Y338760D01*
X72720Y334812D01*
X67562Y332676D01*
X61978Y332676D01*
G37*
%LPD*%
%LPC*%
G36*
X266539Y34759D02*
X266539Y34759D01*
X264672Y35533D01*
X263243Y36962D01*
X262469Y38829D01*
X262469Y50851D01*
X263138Y52464D01*
X263151Y52512D01*
X263172Y52557D01*
X263193Y52665D01*
X263222Y52771D01*
X263222Y52821D01*
X263232Y52870D01*
X263225Y52979D01*
X263227Y53089D01*
X263215Y53137D01*
X263212Y53187D01*
X263178Y53291D01*
X263153Y53398D01*
X263129Y53442D01*
X263114Y53489D01*
X263055Y53582D01*
X263004Y53679D01*
X262970Y53716D01*
X262944Y53758D01*
X262864Y53833D01*
X262790Y53915D01*
X262748Y53942D01*
X262712Y53976D01*
X262616Y54029D01*
X262524Y54089D01*
X262477Y54106D01*
X262434Y54130D01*
X262327Y54157D01*
X262223Y54193D01*
X262174Y54197D01*
X262126Y54209D01*
X261965Y54219D01*
X258119Y54219D01*
X258090Y54216D01*
X258060Y54218D01*
X257932Y54196D01*
X257803Y54179D01*
X257776Y54169D01*
X257747Y54163D01*
X257628Y54110D01*
X257508Y54062D01*
X257484Y54045D01*
X257457Y54033D01*
X257356Y53952D01*
X257250Y53876D01*
X257231Y53853D01*
X257208Y53834D01*
X257131Y53731D01*
X257048Y53631D01*
X257035Y53604D01*
X257017Y53580D01*
X256961Y53466D01*
X255493Y51998D01*
X255428Y51914D01*
X255357Y51836D01*
X255331Y51789D01*
X255298Y51747D01*
X255256Y51650D01*
X255206Y51556D01*
X255193Y51504D01*
X255172Y51455D01*
X255155Y51350D01*
X255130Y51248D01*
X255130Y51194D01*
X255122Y51141D01*
X255132Y51035D01*
X255133Y50930D01*
X255150Y50846D01*
X255152Y50824D01*
X255157Y50809D01*
X255165Y50772D01*
X255191Y50674D01*
X255191Y47339D01*
X248880Y47339D01*
X248762Y47324D01*
X248643Y47317D01*
X248605Y47304D01*
X248565Y47299D01*
X248454Y47256D01*
X248341Y47219D01*
X248307Y47197D01*
X248269Y47182D01*
X248173Y47113D01*
X248072Y47049D01*
X248044Y47019D01*
X248012Y46996D01*
X247936Y46904D01*
X247854Y46817D01*
X247835Y46782D01*
X247809Y46751D01*
X247758Y46643D01*
X247701Y46539D01*
X247691Y46499D01*
X247673Y46463D01*
X247653Y46356D01*
X247649Y46386D01*
X247605Y46496D01*
X247569Y46609D01*
X247547Y46644D01*
X247532Y46681D01*
X247462Y46777D01*
X247399Y46878D01*
X247369Y46906D01*
X247345Y46939D01*
X247254Y47015D01*
X247167Y47096D01*
X247132Y47116D01*
X247100Y47141D01*
X246993Y47192D01*
X246888Y47250D01*
X246849Y47260D01*
X246813Y47277D01*
X246696Y47299D01*
X246580Y47329D01*
X246520Y47333D01*
X246500Y47337D01*
X246480Y47335D01*
X246420Y47339D01*
X240109Y47339D01*
X240109Y50674D01*
X240135Y50772D01*
X240150Y50877D01*
X240173Y50980D01*
X240171Y51033D01*
X240179Y51087D01*
X240166Y51192D01*
X240163Y51298D01*
X240148Y51349D01*
X240142Y51403D01*
X240104Y51502D01*
X240075Y51603D01*
X240048Y51649D01*
X240028Y51700D01*
X239967Y51786D01*
X239913Y51877D01*
X239857Y51941D01*
X239844Y51959D01*
X239832Y51969D01*
X239807Y51998D01*
X238337Y53468D01*
X238330Y53489D01*
X238260Y53599D01*
X238196Y53712D01*
X238176Y53733D01*
X238160Y53758D01*
X238065Y53847D01*
X237975Y53940D01*
X237950Y53956D01*
X237928Y53976D01*
X237815Y54039D01*
X237704Y54107D01*
X237675Y54115D01*
X237650Y54130D01*
X237524Y54162D01*
X237400Y54200D01*
X237370Y54202D01*
X237342Y54209D01*
X237181Y54219D01*
X234118Y54219D01*
X234108Y54218D01*
X234099Y54219D01*
X233951Y54198D01*
X233802Y54179D01*
X233793Y54176D01*
X233784Y54175D01*
X233723Y54154D01*
X212001Y54154D01*
X210134Y54927D01*
X208704Y56357D01*
X207931Y58224D01*
X207931Y66236D01*
X208700Y68094D01*
X208711Y68132D01*
X208721Y68153D01*
X208729Y68196D01*
X208762Y68282D01*
X208768Y68343D01*
X208784Y68401D01*
X208786Y68500D01*
X208797Y68598D01*
X208788Y68658D01*
X208789Y68719D01*
X208766Y68815D01*
X208753Y68913D01*
X208720Y69008D01*
X208715Y69028D01*
X208710Y69039D01*
X208700Y69066D01*
X207931Y70924D01*
X207931Y78936D01*
X208700Y80794D01*
X208710Y80830D01*
X208718Y80846D01*
X208725Y80883D01*
X208727Y80890D01*
X208762Y80982D01*
X208768Y81043D01*
X208784Y81101D01*
X208786Y81200D01*
X208797Y81298D01*
X208788Y81358D01*
X208789Y81419D01*
X208766Y81515D01*
X208753Y81613D01*
X208720Y81708D01*
X208715Y81728D01*
X208710Y81739D01*
X208700Y81766D01*
X207931Y83624D01*
X207931Y91636D01*
X208700Y93494D01*
X208710Y93528D01*
X208715Y93538D01*
X208719Y93563D01*
X208727Y93590D01*
X208762Y93682D01*
X208768Y93743D01*
X208784Y93801D01*
X208786Y93900D01*
X208797Y93998D01*
X208788Y94058D01*
X208789Y94119D01*
X208766Y94215D01*
X208753Y94313D01*
X208720Y94408D01*
X208715Y94428D01*
X208710Y94439D01*
X208700Y94466D01*
X207931Y96324D01*
X207931Y104336D01*
X208704Y106203D01*
X210134Y107633D01*
X212001Y108406D01*
X213964Y108406D01*
X214082Y108421D01*
X214201Y108429D01*
X214239Y108441D01*
X214280Y108446D01*
X214390Y108490D01*
X214503Y108527D01*
X214538Y108548D01*
X214575Y108563D01*
X214671Y108633D01*
X214772Y108697D01*
X214800Y108726D01*
X214833Y108750D01*
X214909Y108842D01*
X214990Y108928D01*
X215010Y108964D01*
X215035Y108995D01*
X215086Y109103D01*
X215144Y109207D01*
X215154Y109246D01*
X215171Y109283D01*
X215193Y109399D01*
X215223Y109515D01*
X215227Y109575D01*
X215231Y109595D01*
X215229Y109615D01*
X215233Y109675D01*
X215233Y111646D01*
X215221Y111744D01*
X215218Y111843D01*
X215201Y111901D01*
X215193Y111961D01*
X215157Y112053D01*
X215129Y112148D01*
X215099Y112201D01*
X215076Y112257D01*
X215018Y112337D01*
X214968Y112422D01*
X214902Y112498D01*
X214890Y112514D01*
X214880Y112522D01*
X214862Y112543D01*
X214558Y112847D01*
X214474Y112912D01*
X214396Y112983D01*
X214349Y113009D01*
X214307Y113042D01*
X214210Y113084D01*
X214116Y113134D01*
X214064Y113147D01*
X214015Y113168D01*
X213910Y113185D01*
X213808Y113210D01*
X213754Y113210D01*
X213701Y113218D01*
X213595Y113208D01*
X213490Y113207D01*
X213406Y113190D01*
X213384Y113188D01*
X213369Y113183D01*
X213332Y113175D01*
X213234Y113149D01*
X208939Y113149D01*
X208939Y121920D01*
X208924Y122038D01*
X208917Y122157D01*
X208904Y122195D01*
X208899Y122235D01*
X208855Y122346D01*
X208819Y122459D01*
X208797Y122494D01*
X208782Y122531D01*
X208712Y122627D01*
X208649Y122728D01*
X208619Y122756D01*
X208595Y122788D01*
X208504Y122864D01*
X208417Y122946D01*
X208382Y122965D01*
X208350Y122991D01*
X208243Y123042D01*
X208139Y123099D01*
X208099Y123110D01*
X208063Y123127D01*
X207946Y123149D01*
X207831Y123179D01*
X207770Y123183D01*
X207750Y123187D01*
X207730Y123185D01*
X207670Y123189D01*
X206399Y123189D01*
X206399Y123191D01*
X207670Y123191D01*
X207788Y123206D01*
X207907Y123213D01*
X207945Y123226D01*
X207985Y123231D01*
X208096Y123275D01*
X208209Y123311D01*
X208244Y123333D01*
X208281Y123348D01*
X208377Y123418D01*
X208478Y123481D01*
X208506Y123511D01*
X208538Y123535D01*
X208614Y123626D01*
X208696Y123713D01*
X208715Y123748D01*
X208741Y123780D01*
X208792Y123887D01*
X208849Y123991D01*
X208860Y124031D01*
X208877Y124067D01*
X208899Y124184D01*
X208929Y124299D01*
X208933Y124360D01*
X208937Y124380D01*
X208935Y124400D01*
X208939Y124460D01*
X208939Y133231D01*
X213234Y133231D01*
X213332Y133205D01*
X213437Y133190D01*
X213540Y133167D01*
X213594Y133169D01*
X213647Y133161D01*
X213752Y133174D01*
X213858Y133177D01*
X213909Y133192D01*
X213963Y133198D01*
X214062Y133236D01*
X214163Y133265D01*
X214210Y133293D01*
X214260Y133312D01*
X214346Y133373D01*
X214437Y133427D01*
X214501Y133483D01*
X214519Y133496D01*
X214529Y133508D01*
X214558Y133533D01*
X216022Y134997D01*
X217889Y135771D01*
X232911Y135771D01*
X234778Y134997D01*
X236207Y133568D01*
X236981Y131701D01*
X236981Y114679D01*
X236207Y112812D01*
X234778Y111383D01*
X233481Y110845D01*
X233360Y110777D01*
X233237Y110711D01*
X233222Y110698D01*
X233204Y110688D01*
X233105Y110591D01*
X233002Y110498D01*
X232990Y110481D01*
X232976Y110467D01*
X232903Y110348D01*
X232827Y110232D01*
X232820Y110213D01*
X232810Y110195D01*
X232769Y110062D01*
X232724Y109931D01*
X232722Y109911D01*
X232716Y109891D01*
X232709Y109753D01*
X232698Y109614D01*
X232702Y109594D01*
X232701Y109574D01*
X232729Y109438D01*
X232753Y109301D01*
X232761Y109282D01*
X232765Y109262D01*
X232826Y109137D01*
X232883Y109011D01*
X232896Y108995D01*
X232905Y108977D01*
X232995Y108871D01*
X233082Y108762D01*
X233098Y108750D01*
X233111Y108735D01*
X233225Y108654D01*
X233336Y108571D01*
X233361Y108559D01*
X233371Y108552D01*
X233390Y108544D01*
X233481Y108500D01*
X234574Y108047D01*
X234582Y108045D01*
X234591Y108040D01*
X234736Y108003D01*
X234880Y107963D01*
X234890Y107963D01*
X234899Y107961D01*
X235059Y107951D01*
X236899Y107951D01*
X236992Y107963D01*
X237086Y107965D01*
X237196Y107988D01*
X237214Y107991D01*
X237223Y107994D01*
X237244Y107999D01*
X241657Y109245D01*
X243070Y109644D01*
X243079Y109648D01*
X243211Y109693D01*
X244418Y110193D01*
X244838Y110193D01*
X244932Y110205D01*
X245026Y110207D01*
X245136Y110230D01*
X245154Y110233D01*
X245157Y110234D01*
X245430Y110201D01*
X245440Y110202D01*
X245578Y110193D01*
X248342Y110193D01*
X251967Y108691D01*
X254741Y105917D01*
X256243Y102292D01*
X256243Y98368D01*
X255678Y97006D01*
X255665Y96958D01*
X255644Y96913D01*
X255623Y96805D01*
X255594Y96699D01*
X255594Y96649D01*
X255584Y96600D01*
X255591Y96491D01*
X255589Y96381D01*
X255601Y96333D01*
X255604Y96283D01*
X255638Y96179D01*
X255664Y96072D01*
X255687Y96028D01*
X255702Y95981D01*
X255761Y95888D01*
X255812Y95791D01*
X255846Y95754D01*
X255872Y95712D01*
X255952Y95637D01*
X256026Y95555D01*
X256068Y95528D01*
X256104Y95494D01*
X256200Y95441D01*
X256292Y95381D01*
X256339Y95364D01*
X256382Y95340D01*
X256489Y95313D01*
X256593Y95277D01*
X256642Y95273D01*
X256690Y95261D01*
X256851Y95251D01*
X263387Y95251D01*
X263466Y95261D01*
X263545Y95261D01*
X263702Y95291D01*
X263703Y95291D01*
X266145Y95918D01*
X267532Y96274D01*
X267540Y96277D01*
X267550Y96278D01*
X267702Y96330D01*
X268697Y96743D01*
X269198Y96743D01*
X269277Y96753D01*
X269356Y96753D01*
X269514Y96783D01*
X269712Y96833D01*
X269966Y96797D01*
X270260Y96755D01*
X270270Y96755D01*
X270278Y96753D01*
X270439Y96743D01*
X272323Y96743D01*
X275672Y95355D01*
X278235Y92792D01*
X279623Y89443D01*
X279623Y85817D01*
X278235Y82468D01*
X275672Y79905D01*
X272323Y78517D01*
X270439Y78517D01*
X270430Y78516D01*
X270421Y78517D01*
X270261Y78505D01*
X269712Y78427D01*
X269514Y78477D01*
X269435Y78487D01*
X269359Y78507D01*
X269199Y78517D01*
X269198Y78517D01*
X268697Y78517D01*
X267702Y78929D01*
X267693Y78932D01*
X267685Y78936D01*
X267532Y78986D01*
X263703Y79969D01*
X263624Y79979D01*
X263548Y79999D01*
X263387Y80009D01*
X262742Y80009D01*
X256039Y80009D01*
X255990Y80003D01*
X255940Y80005D01*
X255833Y79983D01*
X255724Y79969D01*
X255677Y79951D01*
X255629Y79941D01*
X255530Y79893D01*
X255428Y79852D01*
X255388Y79823D01*
X255343Y79801D01*
X255260Y79730D01*
X255171Y79666D01*
X255139Y79627D01*
X255101Y79595D01*
X255038Y79505D01*
X254968Y79421D01*
X254947Y79376D01*
X254918Y79335D01*
X254879Y79232D01*
X254832Y79133D01*
X254823Y79084D01*
X254805Y79038D01*
X254793Y78928D01*
X254773Y78821D01*
X254776Y78771D01*
X254770Y78722D01*
X254785Y78613D01*
X254792Y78503D01*
X254808Y78456D01*
X254815Y78407D01*
X254867Y78254D01*
X255493Y76743D01*
X255493Y73117D01*
X255397Y72886D01*
X255389Y72858D01*
X255376Y72832D01*
X255347Y72705D01*
X255313Y72580D01*
X255313Y72550D01*
X255306Y72521D01*
X255310Y72391D01*
X255308Y72262D01*
X255315Y72233D01*
X255316Y72203D01*
X255352Y72078D01*
X255382Y71952D01*
X255396Y71926D01*
X255404Y71898D01*
X255470Y71786D01*
X255531Y71671D01*
X255551Y71649D01*
X255566Y71624D01*
X255672Y71503D01*
X256963Y70212D01*
X256970Y70191D01*
X257040Y70081D01*
X257104Y69968D01*
X257124Y69947D01*
X257140Y69922D01*
X257235Y69833D01*
X257325Y69740D01*
X257350Y69724D01*
X257372Y69704D01*
X257485Y69641D01*
X257596Y69573D01*
X257625Y69565D01*
X257650Y69550D01*
X257776Y69518D01*
X257900Y69480D01*
X257930Y69478D01*
X257958Y69471D01*
X258119Y69461D01*
X262460Y69461D01*
X262558Y69473D01*
X262657Y69476D01*
X262715Y69493D01*
X262775Y69501D01*
X262867Y69537D01*
X262962Y69565D01*
X263015Y69595D01*
X263071Y69618D01*
X263151Y69676D01*
X263236Y69726D01*
X263312Y69792D01*
X263328Y69804D01*
X263336Y69814D01*
X263357Y69832D01*
X264672Y71147D01*
X266539Y71921D01*
X279561Y71921D01*
X281428Y71147D01*
X282857Y69718D01*
X283631Y67851D01*
X283631Y55829D01*
X282962Y54216D01*
X282949Y54168D01*
X282928Y54123D01*
X282907Y54015D01*
X282878Y53909D01*
X282878Y53859D01*
X282868Y53810D01*
X282875Y53701D01*
X282873Y53591D01*
X282885Y53543D01*
X282888Y53493D01*
X282922Y53389D01*
X282947Y53282D01*
X282971Y53238D01*
X282986Y53191D01*
X283045Y53098D01*
X283096Y53001D01*
X283130Y52964D01*
X283156Y52922D01*
X283236Y52847D01*
X283310Y52765D01*
X283352Y52738D01*
X283388Y52704D01*
X283484Y52651D01*
X283576Y52591D01*
X283623Y52574D01*
X283666Y52550D01*
X283773Y52523D01*
X283877Y52487D01*
X283926Y52483D01*
X283974Y52471D01*
X284135Y52461D01*
X284845Y52461D01*
X284854Y52462D01*
X284864Y52461D01*
X285012Y52482D01*
X285161Y52501D01*
X285169Y52504D01*
X285178Y52505D01*
X285331Y52557D01*
X285870Y52781D01*
X296550Y52781D01*
X298656Y51908D01*
X300268Y50296D01*
X301141Y48190D01*
X301141Y40710D01*
X300268Y38604D01*
X298656Y36992D01*
X296550Y36119D01*
X285870Y36119D01*
X283927Y36924D01*
X283899Y36932D01*
X283873Y36945D01*
X283746Y36974D01*
X283621Y37008D01*
X283591Y37008D01*
X283562Y37015D01*
X283432Y37011D01*
X283303Y37013D01*
X283274Y37006D01*
X283244Y37005D01*
X283120Y36969D01*
X282993Y36939D01*
X282967Y36925D01*
X282939Y36917D01*
X282827Y36851D01*
X282712Y36790D01*
X282690Y36770D01*
X282665Y36755D01*
X282544Y36649D01*
X281428Y35533D01*
X279561Y34759D01*
X266539Y34759D01*
G37*
%LPD*%
%LPC*%
G36*
X265269Y130009D02*
X265269Y130009D01*
X263402Y130783D01*
X261973Y132212D01*
X261199Y134079D01*
X261199Y146101D01*
X261868Y147714D01*
X261881Y147762D01*
X261902Y147807D01*
X261923Y147915D01*
X261952Y148021D01*
X261952Y148071D01*
X261962Y148120D01*
X261955Y148229D01*
X261957Y148339D01*
X261945Y148387D01*
X261942Y148437D01*
X261908Y148541D01*
X261883Y148648D01*
X261859Y148692D01*
X261844Y148739D01*
X261785Y148832D01*
X261734Y148929D01*
X261700Y148966D01*
X261674Y149008D01*
X261594Y149083D01*
X261520Y149165D01*
X261478Y149192D01*
X261442Y149226D01*
X261346Y149279D01*
X261254Y149339D01*
X261207Y149356D01*
X261164Y149380D01*
X261057Y149407D01*
X260953Y149443D01*
X260904Y149447D01*
X260856Y149459D01*
X260695Y149469D01*
X256849Y149469D01*
X256820Y149466D01*
X256790Y149468D01*
X256662Y149446D01*
X256533Y149429D01*
X256506Y149419D01*
X256477Y149414D01*
X256358Y149360D01*
X256238Y149312D01*
X256214Y149295D01*
X256187Y149283D01*
X256085Y149202D01*
X255980Y149126D01*
X255962Y149103D01*
X255939Y149084D01*
X255861Y148981D01*
X255778Y148881D01*
X255765Y148854D01*
X255747Y148830D01*
X255691Y148716D01*
X254223Y147248D01*
X254158Y147164D01*
X254087Y147087D01*
X254061Y147039D01*
X254028Y146997D01*
X253986Y146899D01*
X253936Y146806D01*
X253923Y146754D01*
X253902Y146705D01*
X253885Y146600D01*
X253860Y146498D01*
X253860Y146444D01*
X253852Y146391D01*
X253862Y146285D01*
X253863Y146180D01*
X253880Y146096D01*
X253882Y146074D01*
X253887Y146059D01*
X253895Y146022D01*
X253921Y145924D01*
X253921Y142589D01*
X247610Y142589D01*
X247492Y142574D01*
X247373Y142567D01*
X247335Y142554D01*
X247295Y142549D01*
X247184Y142506D01*
X247071Y142469D01*
X247037Y142447D01*
X246999Y142432D01*
X246903Y142363D01*
X246802Y142299D01*
X246774Y142269D01*
X246742Y142246D01*
X246666Y142154D01*
X246584Y142067D01*
X246565Y142032D01*
X246539Y142001D01*
X246488Y141893D01*
X246431Y141789D01*
X246421Y141749D01*
X246403Y141713D01*
X246383Y141606D01*
X246379Y141636D01*
X246335Y141746D01*
X246299Y141859D01*
X246277Y141894D01*
X246262Y141931D01*
X246192Y142027D01*
X246129Y142128D01*
X246099Y142156D01*
X246075Y142189D01*
X245984Y142265D01*
X245897Y142346D01*
X245862Y142366D01*
X245830Y142391D01*
X245723Y142442D01*
X245618Y142500D01*
X245579Y142510D01*
X245543Y142527D01*
X245426Y142549D01*
X245310Y142579D01*
X245250Y142583D01*
X245230Y142587D01*
X245210Y142585D01*
X245150Y142589D01*
X238839Y142589D01*
X238839Y145924D01*
X238865Y146022D01*
X238880Y146127D01*
X238903Y146230D01*
X238901Y146284D01*
X238909Y146337D01*
X238896Y146442D01*
X238893Y146548D01*
X238878Y146599D01*
X238872Y146653D01*
X238834Y146752D01*
X238805Y146853D01*
X238777Y146900D01*
X238758Y146950D01*
X238697Y147036D01*
X238643Y147127D01*
X238587Y147191D01*
X238574Y147209D01*
X238562Y147219D01*
X238537Y147248D01*
X237073Y148712D01*
X236922Y149076D01*
X236907Y149101D01*
X236898Y149129D01*
X236829Y149239D01*
X236765Y149352D01*
X236744Y149373D01*
X236728Y149398D01*
X236634Y149487D01*
X236543Y149580D01*
X236518Y149596D01*
X236497Y149616D01*
X236383Y149679D01*
X236272Y149747D01*
X236244Y149755D01*
X236218Y149770D01*
X236092Y149802D01*
X235968Y149840D01*
X235939Y149842D01*
X235910Y149849D01*
X235749Y149859D01*
X235059Y149859D01*
X235050Y149858D01*
X235041Y149859D01*
X234892Y149838D01*
X234744Y149819D01*
X234735Y149816D01*
X234726Y149815D01*
X234574Y149763D01*
X233707Y149404D01*
X212001Y149404D01*
X210134Y150177D01*
X208704Y151607D01*
X207931Y153474D01*
X207931Y161486D01*
X208700Y163344D01*
X208727Y163440D01*
X208762Y163532D01*
X208768Y163593D01*
X208784Y163651D01*
X208786Y163750D01*
X208797Y163848D01*
X208788Y163908D01*
X208789Y163969D01*
X208766Y164065D01*
X208752Y164163D01*
X208720Y164258D01*
X208715Y164278D01*
X208709Y164289D01*
X208700Y164316D01*
X207931Y166174D01*
X207931Y174186D01*
X208700Y176044D01*
X208727Y176140D01*
X208762Y176232D01*
X208768Y176293D01*
X208784Y176351D01*
X208786Y176450D01*
X208797Y176548D01*
X208788Y176608D01*
X208789Y176669D01*
X208766Y176765D01*
X208752Y176863D01*
X208720Y176958D01*
X208715Y176978D01*
X208709Y176989D01*
X208700Y177016D01*
X207931Y178874D01*
X207931Y186886D01*
X208700Y188744D01*
X208727Y188840D01*
X208762Y188932D01*
X208768Y188993D01*
X208784Y189051D01*
X208786Y189150D01*
X208797Y189248D01*
X208788Y189308D01*
X208789Y189369D01*
X208766Y189465D01*
X208752Y189563D01*
X208720Y189658D01*
X208715Y189678D01*
X208709Y189689D01*
X208700Y189716D01*
X207931Y191574D01*
X207931Y199586D01*
X208704Y201453D01*
X210134Y202883D01*
X212001Y203656D01*
X213964Y203656D01*
X214082Y203671D01*
X214201Y203679D01*
X214239Y203691D01*
X214280Y203696D01*
X214390Y203740D01*
X214503Y203777D01*
X214538Y203798D01*
X214575Y203813D01*
X214671Y203883D01*
X214772Y203947D01*
X214800Y203976D01*
X214833Y204000D01*
X214909Y204092D01*
X214990Y204178D01*
X215010Y204214D01*
X215035Y204245D01*
X215086Y204353D01*
X215144Y204457D01*
X215154Y204496D01*
X215171Y204533D01*
X215193Y204649D01*
X215223Y204765D01*
X215227Y204825D01*
X215231Y204845D01*
X215229Y204865D01*
X215233Y204925D01*
X215233Y206896D01*
X215221Y206994D01*
X215218Y207093D01*
X215212Y207113D01*
X215211Y207131D01*
X215199Y207169D01*
X215193Y207211D01*
X215157Y207303D01*
X215129Y207398D01*
X215118Y207417D01*
X215113Y207434D01*
X215093Y207466D01*
X215076Y207507D01*
X215018Y207587D01*
X214968Y207672D01*
X214946Y207697D01*
X214943Y207703D01*
X214934Y207711D01*
X214902Y207748D01*
X214890Y207764D01*
X214880Y207772D01*
X214862Y207793D01*
X214558Y208097D01*
X214474Y208162D01*
X214397Y208233D01*
X214349Y208259D01*
X214307Y208292D01*
X214209Y208334D01*
X214116Y208384D01*
X214064Y208397D01*
X214015Y208418D01*
X213910Y208435D01*
X213808Y208460D01*
X213754Y208460D01*
X213701Y208468D01*
X213595Y208458D01*
X213490Y208457D01*
X213406Y208440D01*
X213384Y208438D01*
X213369Y208433D01*
X213332Y208425D01*
X213234Y208399D01*
X208939Y208399D01*
X208939Y217170D01*
X208924Y217288D01*
X208917Y217407D01*
X208904Y217445D01*
X208899Y217485D01*
X208855Y217596D01*
X208819Y217709D01*
X208797Y217744D01*
X208782Y217781D01*
X208712Y217877D01*
X208649Y217978D01*
X208619Y218006D01*
X208595Y218038D01*
X208504Y218114D01*
X208417Y218196D01*
X208382Y218215D01*
X208350Y218241D01*
X208243Y218292D01*
X208139Y218349D01*
X208099Y218360D01*
X208063Y218377D01*
X207946Y218399D01*
X207831Y218429D01*
X207770Y218433D01*
X207750Y218437D01*
X207730Y218435D01*
X207670Y218439D01*
X206399Y218439D01*
X206399Y218441D01*
X207670Y218441D01*
X207788Y218456D01*
X207907Y218463D01*
X207945Y218476D01*
X207985Y218481D01*
X208096Y218525D01*
X208209Y218561D01*
X208244Y218583D01*
X208281Y218598D01*
X208377Y218668D01*
X208478Y218731D01*
X208506Y218761D01*
X208538Y218785D01*
X208614Y218876D01*
X208696Y218963D01*
X208715Y218998D01*
X208741Y219030D01*
X208792Y219137D01*
X208849Y219241D01*
X208860Y219281D01*
X208877Y219317D01*
X208899Y219434D01*
X208929Y219549D01*
X208933Y219610D01*
X208937Y219630D01*
X208935Y219650D01*
X208939Y219710D01*
X208939Y228481D01*
X213234Y228481D01*
X213332Y228455D01*
X213437Y228440D01*
X213540Y228417D01*
X213594Y228419D01*
X213647Y228411D01*
X213752Y228424D01*
X213858Y228427D01*
X213909Y228442D01*
X213963Y228448D01*
X214062Y228486D01*
X214163Y228515D01*
X214210Y228543D01*
X214260Y228562D01*
X214346Y228623D01*
X214437Y228677D01*
X214501Y228733D01*
X214519Y228746D01*
X214529Y228758D01*
X214558Y228783D01*
X216022Y230247D01*
X217889Y231021D01*
X232911Y231021D01*
X234778Y230247D01*
X236207Y228818D01*
X236981Y226951D01*
X236981Y209929D01*
X236207Y208062D01*
X234778Y206633D01*
X233481Y206095D01*
X233360Y206027D01*
X233237Y205961D01*
X233222Y205948D01*
X233204Y205938D01*
X233104Y205841D01*
X233002Y205748D01*
X232990Y205731D01*
X232976Y205717D01*
X232903Y205598D01*
X232827Y205482D01*
X232820Y205463D01*
X232810Y205445D01*
X232769Y205312D01*
X232724Y205181D01*
X232722Y205161D01*
X232716Y205141D01*
X232709Y205003D01*
X232698Y204864D01*
X232702Y204844D01*
X232701Y204824D01*
X232729Y204688D01*
X232753Y204551D01*
X232761Y204532D01*
X232765Y204512D01*
X232826Y204387D01*
X232883Y204261D01*
X232896Y204245D01*
X232905Y204227D01*
X232995Y204121D01*
X233082Y204012D01*
X233098Y204000D01*
X233111Y203985D01*
X233225Y203904D01*
X233336Y203821D01*
X233361Y203809D01*
X233371Y203802D01*
X233391Y203794D01*
X233481Y203750D01*
X234574Y203297D01*
X234583Y203295D01*
X234591Y203290D01*
X234736Y203253D01*
X234880Y203213D01*
X234890Y203213D01*
X234899Y203211D01*
X235059Y203201D01*
X236899Y203201D01*
X236992Y203213D01*
X237086Y203215D01*
X237196Y203238D01*
X237214Y203241D01*
X237223Y203244D01*
X237244Y203249D01*
X241657Y204495D01*
X243070Y204894D01*
X243079Y204898D01*
X243211Y204943D01*
X244418Y205443D01*
X244838Y205443D01*
X244932Y205455D01*
X245026Y205457D01*
X245136Y205480D01*
X245154Y205483D01*
X245157Y205484D01*
X245430Y205451D01*
X245440Y205452D01*
X245578Y205443D01*
X248342Y205443D01*
X251967Y203941D01*
X254741Y201167D01*
X256243Y197542D01*
X256243Y193618D01*
X255678Y192256D01*
X255665Y192208D01*
X255644Y192163D01*
X255623Y192055D01*
X255594Y191949D01*
X255594Y191899D01*
X255584Y191850D01*
X255591Y191741D01*
X255589Y191631D01*
X255601Y191583D01*
X255604Y191533D01*
X255638Y191429D01*
X255664Y191322D01*
X255687Y191278D01*
X255702Y191231D01*
X255761Y191138D01*
X255812Y191041D01*
X255846Y191004D01*
X255872Y190962D01*
X255952Y190887D01*
X256026Y190805D01*
X256068Y190778D01*
X256104Y190744D01*
X256200Y190691D01*
X256292Y190631D01*
X256339Y190614D01*
X256382Y190590D01*
X256489Y190563D01*
X256593Y190527D01*
X256642Y190523D01*
X256690Y190511D01*
X256851Y190501D01*
X263387Y190501D01*
X263465Y190511D01*
X263544Y190511D01*
X263702Y190541D01*
X263703Y190541D01*
X265002Y190874D01*
X267532Y191524D01*
X267540Y191527D01*
X267550Y191528D01*
X267702Y191580D01*
X268697Y191993D01*
X269198Y191993D01*
X269277Y192003D01*
X269356Y192003D01*
X269514Y192033D01*
X269712Y192083D01*
X270234Y192009D01*
X270261Y192005D01*
X270270Y192005D01*
X270278Y192003D01*
X270439Y191993D01*
X272323Y191993D01*
X275672Y190605D01*
X278235Y188042D01*
X279623Y184693D01*
X279623Y181067D01*
X278235Y177718D01*
X275672Y175155D01*
X272323Y173767D01*
X270439Y173767D01*
X270430Y173766D01*
X270421Y173767D01*
X270261Y173755D01*
X270169Y173742D01*
X270168Y173742D01*
X269712Y173677D01*
X269514Y173727D01*
X269435Y173737D01*
X269359Y173757D01*
X269199Y173767D01*
X269198Y173767D01*
X268697Y173767D01*
X267702Y174179D01*
X267693Y174182D01*
X267685Y174186D01*
X267532Y174236D01*
X266007Y174628D01*
X264076Y175123D01*
X263703Y175219D01*
X263624Y175229D01*
X263548Y175249D01*
X263387Y175259D01*
X262742Y175259D01*
X256039Y175259D01*
X255990Y175253D01*
X255940Y175255D01*
X255833Y175233D01*
X255724Y175219D01*
X255677Y175201D01*
X255629Y175191D01*
X255530Y175143D01*
X255428Y175102D01*
X255388Y175073D01*
X255343Y175051D01*
X255260Y174980D01*
X255171Y174916D01*
X255139Y174877D01*
X255101Y174845D01*
X255038Y174755D01*
X254968Y174671D01*
X254947Y174626D01*
X254918Y174585D01*
X254879Y174482D01*
X254832Y174383D01*
X254823Y174334D01*
X254805Y174288D01*
X254793Y174178D01*
X254773Y174071D01*
X254776Y174021D01*
X254770Y173972D01*
X254785Y173863D01*
X254792Y173753D01*
X254808Y173706D01*
X254815Y173657D01*
X254867Y173504D01*
X255493Y171993D01*
X255493Y168367D01*
X255025Y167238D01*
X255017Y167210D01*
X255004Y167183D01*
X254975Y167056D01*
X254941Y166932D01*
X254941Y166902D01*
X254934Y166873D01*
X254938Y166744D01*
X254936Y166614D01*
X254943Y166585D01*
X254944Y166555D01*
X254980Y166431D01*
X255010Y166304D01*
X255024Y166278D01*
X255032Y166250D01*
X255098Y166138D01*
X255159Y166023D01*
X255179Y166001D01*
X255194Y165976D01*
X255300Y165855D01*
X255693Y165462D01*
X255700Y165441D01*
X255770Y165331D01*
X255834Y165218D01*
X255854Y165197D01*
X255870Y165172D01*
X255965Y165083D01*
X256055Y164990D01*
X256080Y164974D01*
X256102Y164954D01*
X256216Y164891D01*
X256326Y164823D01*
X256355Y164815D01*
X256380Y164800D01*
X256506Y164768D01*
X256630Y164730D01*
X256660Y164728D01*
X256688Y164721D01*
X256849Y164711D01*
X261190Y164711D01*
X261288Y164723D01*
X261387Y164726D01*
X261445Y164743D01*
X261505Y164751D01*
X261597Y164787D01*
X261692Y164815D01*
X261745Y164845D01*
X261801Y164868D01*
X261881Y164926D01*
X261966Y164976D01*
X262042Y165042D01*
X262058Y165054D01*
X262066Y165064D01*
X262087Y165082D01*
X263402Y166397D01*
X265269Y167171D01*
X278291Y167171D01*
X280158Y166397D01*
X281587Y164968D01*
X282361Y163101D01*
X282361Y151079D01*
X281917Y150009D01*
X281881Y149875D01*
X281840Y149742D01*
X281839Y149722D01*
X281833Y149702D01*
X281831Y149563D01*
X281824Y149424D01*
X281829Y149404D01*
X281828Y149384D01*
X281861Y149249D01*
X281889Y149113D01*
X281898Y149094D01*
X281902Y149075D01*
X281967Y148952D01*
X282028Y148827D01*
X282042Y148811D01*
X282051Y148794D01*
X282145Y148691D01*
X282235Y148585D01*
X282251Y148573D01*
X282265Y148558D01*
X282381Y148482D01*
X282495Y148402D01*
X282514Y148395D01*
X282531Y148383D01*
X282662Y148338D01*
X282792Y148289D01*
X282812Y148287D01*
X282832Y148280D01*
X282970Y148269D01*
X283108Y148254D01*
X283128Y148257D01*
X283149Y148255D01*
X283286Y148279D01*
X283423Y148298D01*
X283450Y148307D01*
X283462Y148309D01*
X283481Y148318D01*
X283576Y148350D01*
X285870Y149301D01*
X296550Y149301D01*
X298656Y148428D01*
X300268Y146816D01*
X301141Y144710D01*
X301141Y137230D01*
X300268Y135124D01*
X298656Y133512D01*
X296550Y132639D01*
X292509Y132639D01*
X292500Y132638D01*
X292490Y132639D01*
X292342Y132618D01*
X292193Y132599D01*
X292185Y132596D01*
X292175Y132595D01*
X292023Y132543D01*
X291846Y132469D01*
X282370Y132469D01*
X282272Y132457D01*
X282173Y132454D01*
X282115Y132437D01*
X282055Y132429D01*
X281963Y132393D01*
X281868Y132365D01*
X281815Y132335D01*
X281759Y132312D01*
X281679Y132254D01*
X281594Y132204D01*
X281518Y132138D01*
X281502Y132126D01*
X281494Y132116D01*
X281473Y132098D01*
X280158Y130783D01*
X278291Y130009D01*
X265269Y130009D01*
G37*
%LPD*%
%LPC*%
G36*
X263999Y230339D02*
X263999Y230339D01*
X262132Y231113D01*
X260703Y232542D01*
X259929Y234409D01*
X259929Y246431D01*
X260598Y248044D01*
X260611Y248092D01*
X260632Y248137D01*
X260653Y248245D01*
X260682Y248351D01*
X260682Y248401D01*
X260692Y248450D01*
X260685Y248559D01*
X260687Y248669D01*
X260675Y248717D01*
X260672Y248767D01*
X260638Y248871D01*
X260613Y248978D01*
X260589Y249022D01*
X260574Y249069D01*
X260515Y249162D01*
X260464Y249259D01*
X260430Y249296D01*
X260404Y249338D01*
X260324Y249413D01*
X260250Y249495D01*
X260208Y249522D01*
X260172Y249556D01*
X260076Y249609D01*
X259984Y249669D01*
X259937Y249686D01*
X259894Y249710D01*
X259787Y249737D01*
X259683Y249773D01*
X259634Y249777D01*
X259586Y249789D01*
X259425Y249799D01*
X255579Y249799D01*
X255550Y249796D01*
X255520Y249798D01*
X255392Y249776D01*
X255263Y249759D01*
X255236Y249749D01*
X255207Y249743D01*
X255088Y249690D01*
X254968Y249642D01*
X254944Y249625D01*
X254917Y249613D01*
X254816Y249532D01*
X254710Y249456D01*
X254691Y249433D01*
X254668Y249414D01*
X254591Y249311D01*
X254508Y249211D01*
X254495Y249184D01*
X254477Y249160D01*
X254421Y249046D01*
X252953Y247578D01*
X252888Y247494D01*
X252817Y247417D01*
X252791Y247369D01*
X252758Y247327D01*
X252716Y247229D01*
X252666Y247136D01*
X252653Y247084D01*
X252632Y247035D01*
X252615Y246930D01*
X252590Y246828D01*
X252590Y246774D01*
X252582Y246721D01*
X252592Y246615D01*
X252593Y246510D01*
X252610Y246426D01*
X252612Y246404D01*
X252617Y246389D01*
X252625Y246352D01*
X252651Y246254D01*
X252651Y242919D01*
X246340Y242919D01*
X246222Y242904D01*
X246103Y242897D01*
X246065Y242884D01*
X246025Y242879D01*
X245914Y242836D01*
X245801Y242799D01*
X245767Y242777D01*
X245729Y242762D01*
X245633Y242693D01*
X245532Y242629D01*
X245504Y242599D01*
X245472Y242576D01*
X245396Y242484D01*
X245314Y242397D01*
X245295Y242362D01*
X245269Y242331D01*
X245218Y242223D01*
X245161Y242119D01*
X245151Y242079D01*
X245133Y242043D01*
X245113Y241936D01*
X245109Y241966D01*
X245065Y242076D01*
X245029Y242189D01*
X245007Y242224D01*
X244992Y242261D01*
X244922Y242357D01*
X244859Y242458D01*
X244829Y242486D01*
X244805Y242519D01*
X244714Y242595D01*
X244627Y242676D01*
X244592Y242696D01*
X244560Y242721D01*
X244453Y242772D01*
X244348Y242830D01*
X244309Y242840D01*
X244273Y242857D01*
X244156Y242879D01*
X244040Y242909D01*
X243980Y242913D01*
X243960Y242917D01*
X243940Y242915D01*
X243880Y242919D01*
X237569Y242919D01*
X237569Y246254D01*
X237595Y246352D01*
X237610Y246457D01*
X237633Y246560D01*
X237631Y246614D01*
X237639Y246667D01*
X237626Y246772D01*
X237623Y246878D01*
X237608Y246929D01*
X237602Y246983D01*
X237564Y247082D01*
X237535Y247183D01*
X237507Y247230D01*
X237488Y247280D01*
X237427Y247366D01*
X237373Y247457D01*
X237317Y247521D01*
X237304Y247539D01*
X237292Y247549D01*
X237267Y247578D01*
X235803Y249042D01*
X235737Y249201D01*
X235678Y249304D01*
X235626Y249411D01*
X235599Y249442D01*
X235579Y249477D01*
X235497Y249562D01*
X235419Y249653D01*
X235386Y249676D01*
X235358Y249705D01*
X235257Y249768D01*
X235159Y249836D01*
X235122Y249851D01*
X235087Y249872D01*
X234973Y249907D01*
X234862Y249949D01*
X234822Y249953D01*
X234783Y249965D01*
X234664Y249971D01*
X234546Y249984D01*
X234506Y249978D01*
X234465Y249980D01*
X234349Y249956D01*
X234231Y249940D01*
X234174Y249920D01*
X234154Y249916D01*
X234136Y249907D01*
X234079Y249888D01*
X233707Y249734D01*
X212001Y249734D01*
X210134Y250507D01*
X208704Y251937D01*
X207931Y253804D01*
X207931Y261816D01*
X208700Y263674D01*
X208727Y263770D01*
X208762Y263862D01*
X208768Y263923D01*
X208784Y263981D01*
X208786Y264080D01*
X208797Y264178D01*
X208788Y264238D01*
X208789Y264299D01*
X208766Y264395D01*
X208752Y264493D01*
X208720Y264588D01*
X208715Y264608D01*
X208709Y264619D01*
X208700Y264646D01*
X207931Y266504D01*
X207931Y274516D01*
X208700Y276374D01*
X208727Y276470D01*
X208762Y276562D01*
X208768Y276623D01*
X208784Y276681D01*
X208786Y276780D01*
X208797Y276878D01*
X208788Y276938D01*
X208789Y276999D01*
X208766Y277095D01*
X208752Y277193D01*
X208720Y277288D01*
X208715Y277308D01*
X208709Y277319D01*
X208700Y277346D01*
X207931Y279204D01*
X207931Y287216D01*
X208700Y289074D01*
X208727Y289170D01*
X208762Y289262D01*
X208768Y289323D01*
X208784Y289381D01*
X208786Y289480D01*
X208797Y289578D01*
X208788Y289638D01*
X208789Y289699D01*
X208766Y289795D01*
X208752Y289893D01*
X208720Y289988D01*
X208715Y290008D01*
X208709Y290019D01*
X208700Y290046D01*
X207931Y291904D01*
X207931Y299916D01*
X208704Y301783D01*
X210134Y303213D01*
X212001Y303986D01*
X213964Y303986D01*
X214082Y304001D01*
X214201Y304009D01*
X214239Y304021D01*
X214280Y304026D01*
X214390Y304070D01*
X214503Y304107D01*
X214538Y304128D01*
X214575Y304143D01*
X214671Y304213D01*
X214772Y304277D01*
X214800Y304306D01*
X214833Y304330D01*
X214909Y304422D01*
X214990Y304508D01*
X215010Y304544D01*
X215035Y304575D01*
X215086Y304683D01*
X215144Y304787D01*
X215154Y304826D01*
X215171Y304863D01*
X215193Y304979D01*
X215223Y305095D01*
X215227Y305155D01*
X215231Y305175D01*
X215229Y305195D01*
X215233Y305255D01*
X215233Y305956D01*
X215221Y306054D01*
X215218Y306153D01*
X215201Y306211D01*
X215193Y306271D01*
X215157Y306363D01*
X215129Y306458D01*
X215099Y306511D01*
X215076Y306567D01*
X215018Y306647D01*
X214968Y306732D01*
X214902Y306808D01*
X214890Y306824D01*
X214880Y306832D01*
X214862Y306853D01*
X214558Y307157D01*
X214474Y307222D01*
X214397Y307293D01*
X214349Y307319D01*
X214307Y307352D01*
X214209Y307394D01*
X214116Y307444D01*
X214064Y307457D01*
X214015Y307478D01*
X213910Y307495D01*
X213808Y307520D01*
X213754Y307520D01*
X213701Y307528D01*
X213595Y307518D01*
X213490Y307517D01*
X213406Y307500D01*
X213384Y307498D01*
X213369Y307493D01*
X213332Y307485D01*
X213234Y307459D01*
X208939Y307459D01*
X208939Y316230D01*
X208924Y316348D01*
X208917Y316467D01*
X208904Y316505D01*
X208899Y316545D01*
X208855Y316656D01*
X208819Y316769D01*
X208797Y316804D01*
X208782Y316841D01*
X208712Y316937D01*
X208649Y317038D01*
X208619Y317066D01*
X208595Y317098D01*
X208504Y317174D01*
X208417Y317256D01*
X208382Y317275D01*
X208350Y317301D01*
X208243Y317352D01*
X208139Y317409D01*
X208099Y317420D01*
X208063Y317437D01*
X207946Y317459D01*
X207831Y317489D01*
X207770Y317493D01*
X207750Y317497D01*
X207730Y317495D01*
X207670Y317499D01*
X206399Y317499D01*
X206399Y317501D01*
X207670Y317501D01*
X207788Y317516D01*
X207907Y317523D01*
X207945Y317536D01*
X207985Y317541D01*
X208096Y317585D01*
X208209Y317621D01*
X208244Y317643D01*
X208281Y317658D01*
X208377Y317728D01*
X208478Y317791D01*
X208506Y317821D01*
X208538Y317845D01*
X208614Y317936D01*
X208696Y318023D01*
X208715Y318058D01*
X208741Y318090D01*
X208792Y318197D01*
X208849Y318301D01*
X208860Y318341D01*
X208877Y318377D01*
X208899Y318494D01*
X208929Y318609D01*
X208933Y318670D01*
X208937Y318690D01*
X208935Y318710D01*
X208939Y318770D01*
X208939Y327541D01*
X213234Y327541D01*
X213332Y327515D01*
X213417Y327503D01*
X213493Y327483D01*
X213519Y327482D01*
X213540Y327477D01*
X213575Y327478D01*
X213617Y327476D01*
X213647Y327471D01*
X213752Y327484D01*
X213858Y327487D01*
X213909Y327502D01*
X213963Y327508D01*
X213975Y327513D01*
X213978Y327513D01*
X214026Y327532D01*
X214062Y327546D01*
X214163Y327575D01*
X214210Y327603D01*
X214260Y327622D01*
X214269Y327628D01*
X214273Y327630D01*
X214348Y327684D01*
X214437Y327737D01*
X214501Y327793D01*
X214519Y327806D01*
X214525Y327812D01*
X214531Y327817D01*
X214538Y327826D01*
X214558Y327843D01*
X216022Y329307D01*
X217889Y330081D01*
X232911Y330081D01*
X234778Y329307D01*
X236207Y327878D01*
X236981Y326011D01*
X236981Y308989D01*
X236207Y307122D01*
X234783Y305697D01*
X234697Y305588D01*
X234609Y305481D01*
X234600Y305462D01*
X234588Y305446D01*
X234532Y305318D01*
X234473Y305193D01*
X234470Y305173D01*
X234461Y305154D01*
X234440Y305016D01*
X234414Y304880D01*
X234415Y304860D01*
X234412Y304840D01*
X234425Y304701D01*
X234433Y304563D01*
X234439Y304544D01*
X234441Y304524D01*
X234489Y304392D01*
X234531Y304261D01*
X234542Y304243D01*
X234549Y304224D01*
X234627Y304109D01*
X234701Y303992D01*
X234716Y303978D01*
X234728Y303961D01*
X234832Y303869D01*
X234933Y303774D01*
X234951Y303764D01*
X234966Y303751D01*
X235090Y303687D01*
X235212Y303620D01*
X235231Y303615D01*
X235249Y303606D01*
X235385Y303576D01*
X235520Y303541D01*
X235548Y303539D01*
X235560Y303536D01*
X235580Y303537D01*
X235680Y303531D01*
X236125Y303531D01*
X236221Y303543D01*
X236319Y303546D01*
X236420Y303568D01*
X236440Y303571D01*
X236451Y303575D01*
X236476Y303580D01*
X242966Y305451D01*
X242979Y305456D01*
X243101Y305498D01*
X244368Y306023D01*
X244773Y306023D01*
X244869Y306035D01*
X244967Y306038D01*
X245019Y306049D01*
X245182Y306031D01*
X245196Y306031D01*
X245324Y306023D01*
X248392Y306023D01*
X252108Y304483D01*
X254953Y301638D01*
X256493Y297922D01*
X256493Y293898D01*
X255949Y292586D01*
X255936Y292538D01*
X255915Y292493D01*
X255894Y292385D01*
X255865Y292279D01*
X255864Y292229D01*
X255855Y292180D01*
X255862Y292071D01*
X255860Y291961D01*
X255872Y291913D01*
X255875Y291863D01*
X255908Y291759D01*
X255934Y291652D01*
X255957Y291608D01*
X255973Y291561D01*
X256031Y291468D01*
X256083Y291371D01*
X256116Y291334D01*
X256143Y291292D01*
X256223Y291217D01*
X256297Y291135D01*
X256338Y291108D01*
X256374Y291074D01*
X256471Y291021D01*
X256562Y290961D01*
X256610Y290944D01*
X256653Y290920D01*
X256759Y290893D01*
X256863Y290857D01*
X256913Y290853D01*
X256961Y290841D01*
X257122Y290831D01*
X264193Y290831D01*
X264264Y290840D01*
X264335Y290839D01*
X264493Y290867D01*
X267491Y291597D01*
X267654Y291636D01*
X267671Y291643D01*
X267688Y291645D01*
X267840Y291697D01*
X268747Y292073D01*
X269294Y292073D01*
X269365Y292082D01*
X269436Y292081D01*
X269594Y292109D01*
X269886Y292180D01*
X270480Y292088D01*
X270497Y292087D01*
X270513Y292083D01*
X270674Y292073D01*
X272273Y292073D01*
X275530Y290723D01*
X278023Y288230D01*
X279373Y284973D01*
X279373Y281447D01*
X278023Y278190D01*
X275530Y275697D01*
X272273Y274347D01*
X270674Y274347D01*
X270657Y274345D01*
X270640Y274347D01*
X270480Y274332D01*
X269886Y274240D01*
X269594Y274311D01*
X269523Y274319D01*
X269455Y274337D01*
X269294Y274347D01*
X268747Y274347D01*
X267840Y274723D01*
X267824Y274728D01*
X267808Y274736D01*
X267655Y274784D01*
X264493Y275553D01*
X264423Y275561D01*
X264354Y275579D01*
X264193Y275589D01*
X263492Y275589D01*
X255769Y275589D01*
X255719Y275583D01*
X255670Y275585D01*
X255562Y275563D01*
X255453Y275549D01*
X255407Y275531D01*
X255358Y275521D01*
X255260Y275473D01*
X255157Y275432D01*
X255117Y275403D01*
X255073Y275381D01*
X254989Y275310D01*
X254900Y275246D01*
X254868Y275207D01*
X254831Y275175D01*
X254767Y275085D01*
X254697Y275001D01*
X254676Y274956D01*
X254647Y274915D01*
X254608Y274812D01*
X254562Y274713D01*
X254552Y274664D01*
X254535Y274618D01*
X254523Y274508D01*
X254502Y274401D01*
X254505Y274351D01*
X254499Y274302D01*
X254515Y274193D01*
X254522Y274083D01*
X254537Y274036D01*
X254544Y273987D01*
X254596Y273834D01*
X255243Y272273D01*
X255243Y268747D01*
X254434Y266796D01*
X254421Y266748D01*
X254400Y266703D01*
X254380Y266595D01*
X254351Y266489D01*
X254350Y266439D01*
X254340Y266390D01*
X254347Y266281D01*
X254345Y266171D01*
X254357Y266123D01*
X254360Y266073D01*
X254394Y265969D01*
X254420Y265862D01*
X254443Y265818D01*
X254458Y265771D01*
X254517Y265678D01*
X254568Y265581D01*
X254602Y265544D01*
X254628Y265502D01*
X254708Y265427D01*
X254782Y265345D01*
X254824Y265318D01*
X254860Y265284D01*
X254956Y265231D01*
X255048Y265171D01*
X255095Y265154D01*
X255138Y265130D01*
X255245Y265103D01*
X255349Y265067D01*
X255398Y265063D01*
X255446Y265051D01*
X255607Y265041D01*
X259920Y265041D01*
X260018Y265053D01*
X260117Y265056D01*
X260175Y265073D01*
X260235Y265081D01*
X260327Y265117D01*
X260422Y265145D01*
X260475Y265175D01*
X260531Y265198D01*
X260611Y265256D01*
X260696Y265306D01*
X260772Y265372D01*
X260788Y265384D01*
X260796Y265394D01*
X260817Y265412D01*
X262132Y266727D01*
X263999Y267501D01*
X277021Y267501D01*
X278888Y266727D01*
X280317Y265298D01*
X281091Y263431D01*
X281091Y251409D01*
X280422Y249796D01*
X280409Y249748D01*
X280388Y249703D01*
X280367Y249595D01*
X280338Y249489D01*
X280338Y249439D01*
X280328Y249390D01*
X280335Y249281D01*
X280333Y249171D01*
X280345Y249123D01*
X280348Y249073D01*
X280382Y248969D01*
X280407Y248862D01*
X280431Y248818D01*
X280446Y248771D01*
X280505Y248678D01*
X280556Y248581D01*
X280590Y248544D01*
X280616Y248502D01*
X280696Y248427D01*
X280770Y248345D01*
X280812Y248318D01*
X280848Y248284D01*
X280944Y248231D01*
X281036Y248171D01*
X281083Y248154D01*
X281126Y248130D01*
X281233Y248103D01*
X281337Y248067D01*
X281386Y248063D01*
X281434Y248051D01*
X281595Y248041D01*
X284845Y248041D01*
X284854Y248042D01*
X284864Y248041D01*
X285012Y248062D01*
X285161Y248081D01*
X285169Y248084D01*
X285178Y248085D01*
X285331Y248137D01*
X285870Y248361D01*
X296550Y248361D01*
X298656Y247488D01*
X300268Y245876D01*
X301141Y243770D01*
X301141Y236290D01*
X300268Y234184D01*
X298656Y232572D01*
X296550Y231699D01*
X285870Y231699D01*
X283674Y232609D01*
X283657Y232622D01*
X283566Y232662D01*
X283479Y232710D01*
X283421Y232725D01*
X283365Y232749D01*
X283267Y232764D01*
X283171Y232789D01*
X283071Y232795D01*
X283051Y232799D01*
X283039Y232797D01*
X283011Y232799D01*
X281100Y232799D01*
X281002Y232787D01*
X280903Y232784D01*
X280845Y232767D01*
X280785Y232759D01*
X280693Y232723D01*
X280598Y232695D01*
X280545Y232665D01*
X280489Y232642D01*
X280409Y232584D01*
X280324Y232534D01*
X280248Y232468D01*
X280232Y232456D01*
X280224Y232446D01*
X280203Y232428D01*
X278888Y231113D01*
X277021Y230339D01*
X263999Y230339D01*
G37*
%LPD*%
%LPC*%
G36*
X265269Y328129D02*
X265269Y328129D01*
X263402Y328903D01*
X261973Y330332D01*
X261199Y332199D01*
X261199Y344221D01*
X262029Y346224D01*
X262055Y346320D01*
X262090Y346412D01*
X262097Y346473D01*
X262113Y346531D01*
X262115Y346630D01*
X262126Y346729D01*
X262117Y346788D01*
X262118Y346849D01*
X262095Y346945D01*
X262081Y347043D01*
X262049Y347138D01*
X262044Y347158D01*
X262038Y347169D01*
X262029Y347196D01*
X261665Y348076D01*
X261650Y348101D01*
X261641Y348129D01*
X261571Y348239D01*
X261507Y348352D01*
X261487Y348373D01*
X261471Y348398D01*
X261376Y348487D01*
X261286Y348580D01*
X261261Y348596D01*
X261239Y348616D01*
X261126Y348679D01*
X261015Y348747D01*
X260986Y348755D01*
X260961Y348770D01*
X260835Y348802D01*
X260711Y348840D01*
X260681Y348842D01*
X260653Y348849D01*
X260492Y348859D01*
X257375Y348859D01*
X257346Y348856D01*
X257316Y348858D01*
X257188Y348836D01*
X257060Y348819D01*
X257032Y348809D01*
X257003Y348804D01*
X256884Y348750D01*
X256764Y348702D01*
X256740Y348685D01*
X256713Y348673D01*
X256612Y348592D01*
X256506Y348516D01*
X256488Y348493D01*
X256465Y348474D01*
X256386Y348371D01*
X256304Y348271D01*
X256291Y348244D01*
X256273Y348220D01*
X256202Y348076D01*
X255687Y346832D01*
X254223Y345368D01*
X254158Y345284D01*
X254087Y345207D01*
X254061Y345159D01*
X254028Y345117D01*
X253986Y345019D01*
X253936Y344926D01*
X253923Y344874D01*
X253902Y344825D01*
X253885Y344720D01*
X253860Y344618D01*
X253860Y344564D01*
X253852Y344511D01*
X253862Y344405D01*
X253863Y344300D01*
X253880Y344216D01*
X253882Y344194D01*
X253887Y344179D01*
X253895Y344142D01*
X253921Y344044D01*
X253921Y340709D01*
X247610Y340709D01*
X247492Y340694D01*
X247373Y340687D01*
X247335Y340674D01*
X247295Y340669D01*
X247184Y340626D01*
X247071Y340589D01*
X247037Y340567D01*
X246999Y340552D01*
X246903Y340483D01*
X246802Y340419D01*
X246774Y340389D01*
X246742Y340366D01*
X246666Y340274D01*
X246584Y340187D01*
X246565Y340152D01*
X246539Y340121D01*
X246488Y340013D01*
X246431Y339909D01*
X246421Y339869D01*
X246403Y339833D01*
X246383Y339726D01*
X246379Y339756D01*
X246335Y339866D01*
X246299Y339979D01*
X246277Y340014D01*
X246262Y340051D01*
X246192Y340147D01*
X246129Y340248D01*
X246099Y340276D01*
X246075Y340309D01*
X245984Y340385D01*
X245897Y340466D01*
X245862Y340486D01*
X245830Y340511D01*
X245723Y340562D01*
X245618Y340620D01*
X245579Y340630D01*
X245543Y340647D01*
X245426Y340669D01*
X245310Y340699D01*
X245250Y340703D01*
X245230Y340707D01*
X245210Y340705D01*
X245150Y340709D01*
X238839Y340709D01*
X238839Y344044D01*
X238865Y344142D01*
X238880Y344247D01*
X238903Y344350D01*
X238901Y344404D01*
X238909Y344457D01*
X238896Y344562D01*
X238893Y344668D01*
X238878Y344719D01*
X238872Y344773D01*
X238834Y344872D01*
X238805Y344973D01*
X238777Y345020D01*
X238758Y345070D01*
X238697Y345156D01*
X238643Y345247D01*
X238587Y345311D01*
X238574Y345329D01*
X238562Y345339D01*
X238537Y345368D01*
X237073Y346832D01*
X236821Y347440D01*
X236762Y347543D01*
X236710Y347650D01*
X236684Y347681D01*
X236663Y347716D01*
X236581Y347801D01*
X236503Y347892D01*
X236470Y347915D01*
X236442Y347944D01*
X236341Y348007D01*
X236243Y348075D01*
X236206Y348090D01*
X236171Y348111D01*
X236057Y348146D01*
X235946Y348188D01*
X235906Y348192D01*
X235867Y348204D01*
X235748Y348210D01*
X235630Y348223D01*
X235590Y348218D01*
X235550Y348219D01*
X235433Y348195D01*
X235315Y348179D01*
X235258Y348159D01*
X235238Y348155D01*
X235220Y348146D01*
X235163Y348127D01*
X233707Y347524D01*
X212001Y347524D01*
X210134Y348297D01*
X208704Y349727D01*
X207931Y351594D01*
X207931Y359606D01*
X208700Y361464D01*
X208727Y361560D01*
X208762Y361652D01*
X208768Y361713D01*
X208784Y361771D01*
X208786Y361870D01*
X208797Y361968D01*
X208788Y362028D01*
X208789Y362089D01*
X208766Y362185D01*
X208753Y362283D01*
X208720Y362378D01*
X208715Y362398D01*
X208710Y362409D01*
X208700Y362436D01*
X207931Y364294D01*
X207931Y372306D01*
X208700Y374164D01*
X208727Y374260D01*
X208762Y374352D01*
X208768Y374413D01*
X208784Y374471D01*
X208786Y374570D01*
X208797Y374668D01*
X208788Y374728D01*
X208789Y374789D01*
X208766Y374885D01*
X208753Y374983D01*
X208720Y375078D01*
X208715Y375098D01*
X208710Y375109D01*
X208700Y375136D01*
X207931Y376994D01*
X207931Y385006D01*
X208700Y386864D01*
X208727Y386960D01*
X208762Y387052D01*
X208768Y387113D01*
X208784Y387171D01*
X208786Y387270D01*
X208797Y387368D01*
X208788Y387428D01*
X208789Y387489D01*
X208766Y387585D01*
X208753Y387683D01*
X208720Y387778D01*
X208715Y387798D01*
X208710Y387809D01*
X208700Y387836D01*
X207931Y389694D01*
X207931Y397706D01*
X208704Y399573D01*
X210134Y401003D01*
X212001Y401776D01*
X212124Y401776D01*
X212262Y401794D01*
X212401Y401807D01*
X212420Y401814D01*
X212440Y401816D01*
X212569Y401867D01*
X212700Y401914D01*
X212717Y401926D01*
X212736Y401933D01*
X212848Y402015D01*
X212963Y402093D01*
X212976Y402108D01*
X212993Y402120D01*
X213082Y402227D01*
X213174Y402331D01*
X213183Y402349D01*
X213196Y402365D01*
X213255Y402491D01*
X213318Y402615D01*
X213323Y402634D01*
X213331Y402653D01*
X213357Y402789D01*
X213388Y402925D01*
X213387Y402945D01*
X213391Y402965D01*
X213382Y403103D01*
X213378Y403243D01*
X213372Y403262D01*
X213371Y403282D01*
X213328Y403415D01*
X213290Y403548D01*
X213279Y403566D01*
X213273Y403585D01*
X213199Y403702D01*
X213128Y403822D01*
X213110Y403843D01*
X213103Y403854D01*
X213088Y403868D01*
X213022Y403943D01*
X212018Y404947D01*
X211934Y405012D01*
X211856Y405083D01*
X211809Y405109D01*
X211767Y405142D01*
X211670Y405184D01*
X211576Y405234D01*
X211524Y405247D01*
X211475Y405268D01*
X211370Y405285D01*
X211268Y405310D01*
X211214Y405310D01*
X211161Y405318D01*
X211055Y405308D01*
X210950Y405307D01*
X210866Y405290D01*
X210844Y405288D01*
X210829Y405283D01*
X210792Y405275D01*
X210694Y405249D01*
X206399Y405249D01*
X206399Y414020D01*
X206384Y414138D01*
X206377Y414257D01*
X206364Y414295D01*
X206359Y414335D01*
X206315Y414446D01*
X206279Y414559D01*
X206257Y414594D01*
X206242Y414631D01*
X206172Y414727D01*
X206109Y414828D01*
X206079Y414856D01*
X206055Y414888D01*
X205964Y414964D01*
X205877Y415046D01*
X205842Y415065D01*
X205810Y415091D01*
X205703Y415142D01*
X205599Y415199D01*
X205559Y415210D01*
X205523Y415227D01*
X205406Y415249D01*
X205291Y415279D01*
X205230Y415283D01*
X205210Y415287D01*
X205190Y415285D01*
X205130Y415289D01*
X203859Y415289D01*
X203859Y415291D01*
X205130Y415291D01*
X205248Y415306D01*
X205367Y415313D01*
X205405Y415326D01*
X205445Y415331D01*
X205556Y415375D01*
X205669Y415411D01*
X205704Y415433D01*
X205741Y415448D01*
X205837Y415518D01*
X205938Y415581D01*
X205966Y415611D01*
X205998Y415635D01*
X206074Y415726D01*
X206156Y415813D01*
X206175Y415848D01*
X206201Y415880D01*
X206252Y415987D01*
X206309Y416091D01*
X206320Y416131D01*
X206337Y416167D01*
X206359Y416284D01*
X206389Y416399D01*
X206393Y416460D01*
X206397Y416480D01*
X206395Y416500D01*
X206399Y416560D01*
X206399Y425331D01*
X210694Y425331D01*
X210792Y425305D01*
X210897Y425290D01*
X211000Y425267D01*
X211054Y425269D01*
X211107Y425261D01*
X211212Y425274D01*
X211318Y425277D01*
X211369Y425292D01*
X211423Y425298D01*
X211522Y425336D01*
X211623Y425365D01*
X211670Y425393D01*
X211720Y425412D01*
X211806Y425473D01*
X211897Y425527D01*
X211961Y425583D01*
X211979Y425596D01*
X211989Y425608D01*
X212018Y425633D01*
X213482Y427097D01*
X215349Y427871D01*
X230371Y427871D01*
X232238Y427097D01*
X233667Y425668D01*
X234441Y423801D01*
X234441Y406779D01*
X233667Y404912D01*
X232698Y403943D01*
X232613Y403834D01*
X232524Y403726D01*
X232516Y403708D01*
X232503Y403692D01*
X232448Y403564D01*
X232389Y403438D01*
X232385Y403419D01*
X232377Y403400D01*
X232355Y403262D01*
X232329Y403126D01*
X232330Y403106D01*
X232327Y403086D01*
X232340Y402947D01*
X232349Y402809D01*
X232355Y402789D01*
X232357Y402769D01*
X232404Y402638D01*
X232447Y402506D01*
X232458Y402489D01*
X232464Y402470D01*
X232543Y402355D01*
X232617Y402237D01*
X232632Y402223D01*
X232643Y402207D01*
X232747Y402115D01*
X232849Y402019D01*
X232866Y402010D01*
X232881Y401996D01*
X233005Y401933D01*
X233127Y401866D01*
X233147Y401861D01*
X233165Y401852D01*
X233301Y401821D01*
X233435Y401786D01*
X233463Y401785D01*
X233475Y401782D01*
X233496Y401783D01*
X233596Y401776D01*
X233707Y401776D01*
X234574Y401417D01*
X234582Y401415D01*
X234591Y401410D01*
X234736Y401373D01*
X234880Y401333D01*
X234890Y401333D01*
X234899Y401331D01*
X235059Y401321D01*
X236899Y401321D01*
X236992Y401333D01*
X237086Y401335D01*
X237196Y401358D01*
X237214Y401361D01*
X237223Y401364D01*
X237244Y401369D01*
X241657Y402615D01*
X243070Y403014D01*
X243079Y403017D01*
X243211Y403063D01*
X244418Y403563D01*
X244838Y403563D01*
X244932Y403575D01*
X245026Y403577D01*
X245136Y403600D01*
X245154Y403603D01*
X245157Y403604D01*
X245430Y403571D01*
X245440Y403572D01*
X245578Y403563D01*
X248342Y403563D01*
X251967Y402061D01*
X254741Y399287D01*
X256243Y395662D01*
X256243Y391738D01*
X255678Y390376D01*
X255665Y390328D01*
X255644Y390283D01*
X255623Y390175D01*
X255594Y390069D01*
X255594Y390019D01*
X255584Y389970D01*
X255591Y389861D01*
X255589Y389751D01*
X255601Y389703D01*
X255604Y389653D01*
X255638Y389549D01*
X255664Y389442D01*
X255687Y389398D01*
X255702Y389351D01*
X255761Y389258D01*
X255812Y389161D01*
X255846Y389124D01*
X255872Y389082D01*
X255952Y389007D01*
X256026Y388925D01*
X256068Y388898D01*
X256104Y388864D01*
X256200Y388811D01*
X256292Y388751D01*
X256339Y388734D01*
X256382Y388710D01*
X256489Y388683D01*
X256593Y388647D01*
X256642Y388643D01*
X256690Y388631D01*
X256851Y388621D01*
X263387Y388621D01*
X263465Y388631D01*
X263544Y388631D01*
X263702Y388661D01*
X263703Y388661D01*
X267532Y389644D01*
X267540Y389647D01*
X267550Y389648D01*
X267702Y389700D01*
X268697Y390113D01*
X269198Y390113D01*
X269277Y390123D01*
X269356Y390123D01*
X269514Y390153D01*
X269712Y390203D01*
X270260Y390125D01*
X270270Y390125D01*
X270278Y390123D01*
X270439Y390113D01*
X272323Y390113D01*
X275672Y388725D01*
X278235Y386162D01*
X279623Y382813D01*
X279623Y379187D01*
X278235Y375838D01*
X275672Y373275D01*
X272323Y371887D01*
X270439Y371887D01*
X270430Y371886D01*
X270421Y371887D01*
X270261Y371875D01*
X269712Y371797D01*
X269514Y371847D01*
X269435Y371857D01*
X269359Y371877D01*
X269199Y371887D01*
X269198Y371887D01*
X268697Y371887D01*
X267702Y372299D01*
X267693Y372302D01*
X267685Y372306D01*
X267532Y372356D01*
X263703Y373339D01*
X263624Y373349D01*
X263548Y373369D01*
X263387Y373379D01*
X262742Y373379D01*
X256039Y373379D01*
X255990Y373373D01*
X255940Y373375D01*
X255833Y373353D01*
X255724Y373339D01*
X255677Y373321D01*
X255629Y373311D01*
X255530Y373263D01*
X255428Y373222D01*
X255388Y373193D01*
X255343Y373171D01*
X255260Y373100D01*
X255171Y373036D01*
X255139Y372997D01*
X255101Y372965D01*
X255038Y372875D01*
X254968Y372791D01*
X254947Y372746D01*
X254918Y372705D01*
X254879Y372602D01*
X254832Y372503D01*
X254823Y372454D01*
X254805Y372408D01*
X254793Y372298D01*
X254773Y372191D01*
X254776Y372141D01*
X254770Y372092D01*
X254785Y371983D01*
X254792Y371873D01*
X254808Y371826D01*
X254815Y371777D01*
X254867Y371624D01*
X255493Y370113D01*
X255493Y366487D01*
X255025Y365358D01*
X255017Y365330D01*
X255004Y365303D01*
X254975Y365176D01*
X254941Y365052D01*
X254941Y365022D01*
X254934Y364993D01*
X254938Y364864D01*
X254936Y364734D01*
X254943Y364705D01*
X254944Y364675D01*
X254980Y364551D01*
X255010Y364424D01*
X255024Y364398D01*
X255032Y364370D01*
X255098Y364258D01*
X255159Y364143D01*
X255179Y364121D01*
X255194Y364096D01*
X255300Y363975D01*
X255687Y363588D01*
X256202Y362344D01*
X256217Y362319D01*
X256226Y362291D01*
X256296Y362181D01*
X256360Y362068D01*
X256380Y362047D01*
X256396Y362022D01*
X256491Y361933D01*
X256581Y361840D01*
X256606Y361824D01*
X256628Y361804D01*
X256742Y361741D01*
X256852Y361673D01*
X256881Y361665D01*
X256906Y361650D01*
X257032Y361618D01*
X257156Y361580D01*
X257186Y361578D01*
X257214Y361571D01*
X257375Y361561D01*
X260492Y361561D01*
X260521Y361564D01*
X260551Y361562D01*
X260679Y361584D01*
X260808Y361601D01*
X260835Y361611D01*
X260864Y361616D01*
X260983Y361670D01*
X261103Y361718D01*
X261127Y361735D01*
X261154Y361747D01*
X261255Y361828D01*
X261361Y361904D01*
X261379Y361927D01*
X261402Y361946D01*
X261480Y362049D01*
X261563Y362149D01*
X261576Y362176D01*
X261594Y362200D01*
X261665Y362344D01*
X261973Y363088D01*
X263402Y364517D01*
X265269Y365291D01*
X278291Y365291D01*
X280158Y364517D01*
X281587Y363088D01*
X282361Y361221D01*
X282361Y349199D01*
X281692Y347586D01*
X281679Y347538D01*
X281658Y347493D01*
X281637Y347385D01*
X281608Y347279D01*
X281608Y347229D01*
X281598Y347180D01*
X281605Y347071D01*
X281603Y346961D01*
X281615Y346913D01*
X281618Y346863D01*
X281652Y346759D01*
X281677Y346652D01*
X281701Y346608D01*
X281716Y346561D01*
X281775Y346468D01*
X281826Y346371D01*
X281860Y346334D01*
X281886Y346292D01*
X281966Y346217D01*
X282040Y346135D01*
X282082Y346108D01*
X282118Y346074D01*
X282214Y346021D01*
X282306Y345961D01*
X282353Y345944D01*
X282396Y345920D01*
X282503Y345893D01*
X282607Y345857D01*
X282656Y345853D01*
X282704Y345841D01*
X282865Y345831D01*
X284845Y345831D01*
X284854Y345832D01*
X284864Y345831D01*
X285012Y345852D01*
X285161Y345871D01*
X285169Y345874D01*
X285178Y345875D01*
X285331Y345927D01*
X285870Y346151D01*
X296550Y346151D01*
X298656Y345278D01*
X300268Y343666D01*
X301141Y341560D01*
X301141Y334080D01*
X300268Y331974D01*
X298656Y330362D01*
X296550Y329489D01*
X285870Y329489D01*
X283674Y330399D01*
X283657Y330412D01*
X283566Y330452D01*
X283479Y330500D01*
X283421Y330515D01*
X283365Y330539D01*
X283267Y330554D01*
X283171Y330579D01*
X283071Y330585D01*
X283051Y330589D01*
X283039Y330587D01*
X283011Y330589D01*
X282370Y330589D01*
X282272Y330577D01*
X282173Y330574D01*
X282115Y330557D01*
X282055Y330549D01*
X281963Y330513D01*
X281868Y330485D01*
X281815Y330455D01*
X281759Y330432D01*
X281679Y330374D01*
X281594Y330324D01*
X281518Y330258D01*
X281502Y330246D01*
X281494Y330236D01*
X281473Y330218D01*
X280158Y328903D01*
X278291Y328129D01*
X265269Y328129D01*
G37*
%LPD*%
%LPC*%
G36*
X61978Y297624D02*
X61978Y297624D01*
X56820Y299760D01*
X52872Y303708D01*
X50736Y308866D01*
X50736Y314450D01*
X52872Y319608D01*
X56820Y323556D01*
X61978Y325692D01*
X67562Y325692D01*
X70675Y324403D01*
X70731Y324387D01*
X70784Y324363D01*
X70940Y324325D01*
X71031Y324309D01*
X71181Y324214D01*
X71208Y324201D01*
X71232Y324183D01*
X71377Y324112D01*
X72720Y323556D01*
X73508Y322767D01*
X73554Y322731D01*
X73594Y322689D01*
X73644Y322653D01*
X73658Y322639D01*
X73674Y322630D01*
X73724Y322594D01*
X78617Y319477D01*
X78725Y319426D01*
X78830Y319368D01*
X78869Y319359D01*
X78904Y319342D01*
X79022Y319319D01*
X79138Y319289D01*
X79197Y319285D01*
X79217Y319281D01*
X79237Y319283D01*
X79299Y319279D01*
X107316Y319279D01*
X107414Y319291D01*
X107513Y319294D01*
X107571Y319311D01*
X107631Y319319D01*
X107723Y319355D01*
X107818Y319383D01*
X107871Y319413D01*
X107927Y319436D01*
X108007Y319494D01*
X108092Y319544D01*
X108168Y319610D01*
X108184Y319622D01*
X108192Y319632D01*
X108213Y319650D01*
X150623Y362061D01*
X153424Y363221D01*
X157194Y363221D01*
X157312Y363236D01*
X157430Y363243D01*
X157469Y363256D01*
X157509Y363261D01*
X157620Y363304D01*
X157733Y363341D01*
X157767Y363363D01*
X157805Y363378D01*
X157901Y363447D01*
X158002Y363511D01*
X158029Y363541D01*
X158062Y363564D01*
X158138Y363656D01*
X158220Y363743D01*
X158239Y363778D01*
X158265Y363809D01*
X158316Y363917D01*
X158373Y364021D01*
X158383Y364061D01*
X158400Y364097D01*
X158423Y364214D01*
X158453Y364329D01*
X158456Y364389D01*
X158460Y364409D01*
X158459Y364430D01*
X158463Y364490D01*
X158463Y372306D01*
X159236Y374173D01*
X160844Y375781D01*
X160874Y375820D01*
X160942Y375886D01*
X160962Y375918D01*
X160987Y375945D01*
X161024Y376013D01*
X161039Y376033D01*
X161054Y376067D01*
X161109Y376156D01*
X161120Y376192D01*
X161138Y376226D01*
X161159Y376309D01*
X161165Y376324D01*
X161170Y376351D01*
X161203Y376460D01*
X161205Y376498D01*
X161214Y376534D01*
X161213Y376627D01*
X161215Y376638D01*
X161213Y376659D01*
X161219Y376778D01*
X161212Y376815D01*
X161211Y376852D01*
X161180Y377010D01*
X161003Y377670D01*
X161003Y379503D01*
X173158Y379503D01*
X173276Y379518D01*
X173395Y379525D01*
X173400Y379527D01*
X173453Y379513D01*
X173513Y379509D01*
X173533Y379506D01*
X173554Y379507D01*
X173614Y379503D01*
X185769Y379503D01*
X185769Y377670D01*
X185592Y377010D01*
X185587Y376973D01*
X185575Y376937D01*
X185566Y376817D01*
X185562Y376799D01*
X185562Y376790D01*
X185549Y376695D01*
X185554Y376658D01*
X185551Y376620D01*
X185571Y376505D01*
X185572Y376482D01*
X185575Y376468D01*
X185586Y376379D01*
X185599Y376344D01*
X185606Y376307D01*
X185651Y376207D01*
X185660Y376176D01*
X185670Y376158D01*
X185700Y376082D01*
X185721Y376052D01*
X185737Y376017D01*
X185800Y375939D01*
X185822Y375902D01*
X185852Y375867D01*
X185884Y375823D01*
X185913Y375799D01*
X185936Y375769D01*
X185952Y375758D01*
X187536Y374173D01*
X188309Y372306D01*
X188309Y364294D01*
X187540Y362436D01*
X187513Y362340D01*
X187478Y362248D01*
X187472Y362187D01*
X187456Y362129D01*
X187454Y362030D01*
X187443Y361932D01*
X187452Y361872D01*
X187451Y361811D01*
X187474Y361715D01*
X187488Y361617D01*
X187520Y361522D01*
X187525Y361502D01*
X187531Y361491D01*
X187540Y361464D01*
X188309Y359606D01*
X188309Y351594D01*
X187536Y349727D01*
X186106Y348297D01*
X184239Y347524D01*
X162533Y347524D01*
X161666Y347883D01*
X161658Y347885D01*
X161649Y347890D01*
X161504Y347927D01*
X161360Y347967D01*
X161350Y347967D01*
X161341Y347969D01*
X161181Y347979D01*
X158622Y347979D01*
X158524Y347967D01*
X158425Y347964D01*
X158367Y347947D01*
X158307Y347939D01*
X158215Y347903D01*
X158120Y347875D01*
X158067Y347845D01*
X158011Y347822D01*
X157931Y347764D01*
X157846Y347714D01*
X157770Y347648D01*
X157754Y347636D01*
X157746Y347626D01*
X157725Y347608D01*
X115315Y305197D01*
X112514Y304037D01*
X79299Y304037D01*
X79180Y304022D01*
X79060Y304015D01*
X79023Y304002D01*
X78983Y303997D01*
X78872Y303953D01*
X78758Y303916D01*
X78706Y303888D01*
X78688Y303880D01*
X78671Y303868D01*
X78617Y303839D01*
X73801Y300771D01*
X73724Y300722D01*
X73679Y300685D01*
X73629Y300655D01*
X73508Y300549D01*
X72720Y299760D01*
X71377Y299204D01*
X71351Y299189D01*
X71322Y299180D01*
X71181Y299102D01*
X71031Y299007D01*
X70940Y298991D01*
X70885Y298974D01*
X70827Y298965D01*
X70675Y298913D01*
X67562Y297624D01*
X61978Y297624D01*
G37*
%LPD*%
%LPC*%
G36*
X162533Y249734D02*
X162533Y249734D01*
X161666Y250093D01*
X161657Y250095D01*
X161649Y250100D01*
X161504Y250137D01*
X161360Y250177D01*
X161350Y250177D01*
X161341Y250179D01*
X161181Y250189D01*
X119134Y250189D01*
X116333Y251349D01*
X98815Y268868D01*
X98737Y268928D01*
X98665Y268996D01*
X98612Y269025D01*
X98564Y269062D01*
X98473Y269102D01*
X98386Y269150D01*
X98328Y269165D01*
X98272Y269189D01*
X98174Y269204D01*
X98078Y269229D01*
X97978Y269235D01*
X97958Y269239D01*
X97946Y269237D01*
X97918Y269239D01*
X79299Y269239D01*
X79180Y269224D01*
X79060Y269217D01*
X79023Y269204D01*
X78983Y269199D01*
X78872Y269155D01*
X78758Y269118D01*
X78706Y269090D01*
X78688Y269082D01*
X78671Y269070D01*
X78617Y269041D01*
X73801Y265973D01*
X73724Y265924D01*
X73679Y265887D01*
X73629Y265857D01*
X73508Y265751D01*
X72720Y264962D01*
X71377Y264406D01*
X71351Y264391D01*
X71322Y264382D01*
X71181Y264304D01*
X71031Y264209D01*
X70940Y264193D01*
X70885Y264175D01*
X70827Y264167D01*
X70675Y264115D01*
X67562Y262826D01*
X61978Y262826D01*
X56820Y264962D01*
X52872Y268910D01*
X50736Y274068D01*
X50736Y279652D01*
X52872Y284810D01*
X56820Y288758D01*
X61978Y290894D01*
X67562Y290894D01*
X70675Y289605D01*
X70731Y289589D01*
X70784Y289565D01*
X70940Y289527D01*
X71031Y289511D01*
X71181Y289416D01*
X71208Y289403D01*
X71233Y289385D01*
X71377Y289314D01*
X72720Y288758D01*
X73508Y287969D01*
X73554Y287933D01*
X73594Y287891D01*
X73724Y287796D01*
X78617Y284679D01*
X78725Y284628D01*
X78830Y284570D01*
X78869Y284561D01*
X78904Y284544D01*
X79022Y284521D01*
X79138Y284491D01*
X79197Y284487D01*
X79217Y284483D01*
X79237Y284485D01*
X79299Y284481D01*
X103116Y284481D01*
X105917Y283321D01*
X123435Y265802D01*
X123513Y265742D01*
X123585Y265674D01*
X123638Y265645D01*
X123686Y265608D01*
X123777Y265568D01*
X123864Y265520D01*
X123922Y265505D01*
X123978Y265481D01*
X124076Y265466D01*
X124172Y265441D01*
X124272Y265435D01*
X124292Y265431D01*
X124304Y265433D01*
X124332Y265431D01*
X157194Y265431D01*
X157312Y265446D01*
X157430Y265453D01*
X157469Y265466D01*
X157509Y265471D01*
X157620Y265514D01*
X157733Y265551D01*
X157767Y265573D01*
X157805Y265588D01*
X157901Y265657D01*
X158002Y265721D01*
X158029Y265751D01*
X158062Y265774D01*
X158138Y265866D01*
X158220Y265953D01*
X158239Y265988D01*
X158265Y266019D01*
X158316Y266127D01*
X158373Y266231D01*
X158383Y266271D01*
X158400Y266307D01*
X158423Y266424D01*
X158453Y266539D01*
X158456Y266599D01*
X158460Y266619D01*
X158459Y266640D01*
X158463Y266700D01*
X158463Y274516D01*
X159236Y276383D01*
X160844Y277991D01*
X160874Y278030D01*
X160942Y278096D01*
X160962Y278128D01*
X160987Y278155D01*
X161024Y278223D01*
X161039Y278243D01*
X161054Y278277D01*
X161109Y278366D01*
X161120Y278402D01*
X161138Y278436D01*
X161159Y278519D01*
X161165Y278534D01*
X161170Y278561D01*
X161203Y278670D01*
X161205Y278708D01*
X161214Y278744D01*
X161213Y278837D01*
X161215Y278848D01*
X161213Y278869D01*
X161219Y278988D01*
X161212Y279025D01*
X161211Y279062D01*
X161180Y279220D01*
X161003Y279880D01*
X161003Y281713D01*
X173158Y281713D01*
X173276Y281728D01*
X173395Y281735D01*
X173400Y281737D01*
X173453Y281723D01*
X173513Y281719D01*
X173533Y281716D01*
X173554Y281717D01*
X173614Y281713D01*
X185769Y281713D01*
X185769Y279880D01*
X185592Y279220D01*
X185587Y279183D01*
X185575Y279147D01*
X185566Y279027D01*
X185562Y279009D01*
X185562Y279000D01*
X185549Y278905D01*
X185554Y278868D01*
X185551Y278830D01*
X185571Y278715D01*
X185572Y278692D01*
X185575Y278678D01*
X185586Y278589D01*
X185599Y278554D01*
X185606Y278517D01*
X185651Y278417D01*
X185660Y278386D01*
X185670Y278368D01*
X185700Y278292D01*
X185721Y278262D01*
X185737Y278227D01*
X185800Y278149D01*
X185822Y278112D01*
X185852Y278077D01*
X185884Y278033D01*
X185913Y278009D01*
X185936Y277979D01*
X185952Y277968D01*
X187536Y276383D01*
X188309Y274516D01*
X188309Y266504D01*
X187540Y264646D01*
X187513Y264550D01*
X187478Y264458D01*
X187472Y264397D01*
X187456Y264339D01*
X187454Y264240D01*
X187443Y264142D01*
X187452Y264082D01*
X187451Y264021D01*
X187474Y263925D01*
X187488Y263827D01*
X187520Y263732D01*
X187525Y263712D01*
X187531Y263701D01*
X187540Y263674D01*
X188309Y261816D01*
X188309Y253804D01*
X187536Y251937D01*
X186106Y250507D01*
X184239Y249734D01*
X162533Y249734D01*
G37*
%LPD*%
%LPC*%
G36*
X46688Y624839D02*
X46688Y624839D01*
X40288Y626554D01*
X34551Y629866D01*
X29866Y634551D01*
X26554Y640288D01*
X24839Y646688D01*
X24839Y653312D01*
X26554Y659712D01*
X29866Y665449D01*
X34551Y670134D01*
X40288Y673446D01*
X46688Y675161D01*
X53312Y675161D01*
X59712Y673446D01*
X65449Y670134D01*
X70134Y665449D01*
X73446Y659712D01*
X75161Y653312D01*
X75161Y646688D01*
X73446Y640288D01*
X70134Y634551D01*
X65449Y629866D01*
X59712Y626554D01*
X53312Y624839D01*
X46688Y624839D01*
G37*
%LPD*%
%LPC*%
G36*
X406848Y624839D02*
X406848Y624839D01*
X400448Y626554D01*
X394711Y629866D01*
X390026Y634551D01*
X386714Y640288D01*
X384999Y646688D01*
X384999Y653312D01*
X386714Y659712D01*
X390026Y665449D01*
X394711Y670134D01*
X400448Y673446D01*
X406848Y675161D01*
X413472Y675161D01*
X419872Y673446D01*
X425609Y670134D01*
X430294Y665449D01*
X433606Y659712D01*
X435321Y653312D01*
X435321Y646688D01*
X433606Y640288D01*
X430294Y634551D01*
X425609Y629866D01*
X419872Y626554D01*
X413472Y624839D01*
X406848Y624839D01*
G37*
%LPD*%
%LPC*%
G36*
X406848Y24839D02*
X406848Y24839D01*
X400448Y26554D01*
X394711Y29866D01*
X390026Y34551D01*
X386714Y40288D01*
X384999Y46688D01*
X384999Y53312D01*
X386714Y59712D01*
X390026Y65449D01*
X394711Y70134D01*
X400448Y73446D01*
X406848Y75161D01*
X413472Y75161D01*
X419872Y73446D01*
X425609Y70134D01*
X430294Y65449D01*
X433606Y59712D01*
X435321Y53312D01*
X435321Y46688D01*
X433606Y40288D01*
X430294Y34551D01*
X425609Y29866D01*
X419872Y26554D01*
X413472Y24839D01*
X406848Y24839D01*
G37*
%LPD*%
%LPC*%
G36*
X46688Y24839D02*
X46688Y24839D01*
X40288Y26554D01*
X34551Y29866D01*
X29866Y34551D01*
X26554Y40288D01*
X24839Y46688D01*
X24839Y53312D01*
X26554Y59712D01*
X29866Y65449D01*
X34551Y70134D01*
X40288Y73446D01*
X46688Y75161D01*
X53312Y75161D01*
X59712Y73446D01*
X65449Y70134D01*
X70134Y65449D01*
X73446Y59712D01*
X75161Y53312D01*
X75161Y46688D01*
X73446Y40288D01*
X70134Y34551D01*
X65449Y29866D01*
X59712Y26554D01*
X53312Y24839D01*
X46688Y24839D01*
G37*
%LPD*%
%LPC*%
G36*
X138429Y84486D02*
X138429Y84486D01*
X138385Y84596D01*
X138349Y84709D01*
X138327Y84744D01*
X138312Y84781D01*
X138242Y84877D01*
X138179Y84978D01*
X138149Y85006D01*
X138125Y85039D01*
X138034Y85115D01*
X137947Y85196D01*
X137912Y85216D01*
X137880Y85241D01*
X137773Y85292D01*
X137668Y85350D01*
X137629Y85360D01*
X137593Y85377D01*
X137476Y85399D01*
X137360Y85429D01*
X137300Y85433D01*
X137280Y85437D01*
X137260Y85435D01*
X137200Y85439D01*
X130389Y85439D01*
X130389Y88274D01*
X130567Y88936D01*
X130578Y88954D01*
X130616Y89064D01*
X130661Y89171D01*
X130668Y89214D01*
X130681Y89255D01*
X130691Y89371D01*
X130708Y89486D01*
X130703Y89529D01*
X130707Y89572D01*
X130687Y89687D01*
X130675Y89802D01*
X130660Y89843D01*
X130652Y89885D01*
X130604Y89991D01*
X130564Y90100D01*
X130539Y90136D01*
X130522Y90175D01*
X130449Y90266D01*
X130382Y90362D01*
X130350Y90390D01*
X130323Y90424D01*
X130230Y90493D01*
X130142Y90570D01*
X130103Y90589D01*
X130073Y90611D01*
X128623Y92062D01*
X127849Y93929D01*
X127849Y105951D01*
X128623Y107818D01*
X130052Y109247D01*
X131919Y110021D01*
X144941Y110021D01*
X146808Y109247D01*
X148123Y107932D01*
X148201Y107872D01*
X148273Y107804D01*
X148326Y107775D01*
X148374Y107738D01*
X148465Y107698D01*
X148552Y107650D01*
X148610Y107635D01*
X148666Y107611D01*
X148764Y107596D01*
X148860Y107571D01*
X148960Y107565D01*
X148980Y107561D01*
X148992Y107563D01*
X149020Y107561D01*
X160239Y107561D01*
X160248Y107562D01*
X160258Y107561D01*
X160406Y107582D01*
X160555Y107601D01*
X160563Y107604D01*
X160573Y107605D01*
X160725Y107657D01*
X162533Y108406D01*
X184239Y108406D01*
X186106Y107633D01*
X187536Y106203D01*
X188309Y104336D01*
X188309Y96324D01*
X187536Y94457D01*
X185928Y92849D01*
X185898Y92810D01*
X185830Y92744D01*
X185810Y92712D01*
X185785Y92685D01*
X185748Y92617D01*
X185733Y92597D01*
X185718Y92563D01*
X185663Y92474D01*
X185652Y92438D01*
X185634Y92404D01*
X185613Y92321D01*
X185607Y92306D01*
X185602Y92279D01*
X185569Y92170D01*
X185567Y92132D01*
X185558Y92096D01*
X185559Y92003D01*
X185557Y91992D01*
X185559Y91971D01*
X185553Y91852D01*
X185560Y91815D01*
X185561Y91778D01*
X185592Y91620D01*
X185769Y90960D01*
X185769Y89127D01*
X173614Y89127D01*
X173496Y89112D01*
X173377Y89105D01*
X173372Y89103D01*
X173319Y89117D01*
X173259Y89121D01*
X173239Y89124D01*
X173218Y89123D01*
X173158Y89127D01*
X161003Y89127D01*
X161003Y91050D01*
X160988Y91168D01*
X160980Y91287D01*
X160968Y91325D01*
X160963Y91366D01*
X160919Y91476D01*
X160882Y91589D01*
X160861Y91624D01*
X160846Y91661D01*
X160776Y91757D01*
X160712Y91858D01*
X160683Y91886D01*
X160659Y91919D01*
X160567Y91995D01*
X160481Y92076D01*
X160445Y92096D01*
X160414Y92121D01*
X160306Y92172D01*
X160202Y92230D01*
X160163Y92240D01*
X160126Y92257D01*
X160010Y92279D01*
X159894Y92309D01*
X159834Y92313D01*
X159814Y92317D01*
X159794Y92315D01*
X159734Y92319D01*
X149020Y92319D01*
X148922Y92307D01*
X148823Y92304D01*
X148765Y92287D01*
X148705Y92279D01*
X148613Y92243D01*
X148518Y92215D01*
X148465Y92185D01*
X148409Y92162D01*
X148329Y92104D01*
X148244Y92054D01*
X148168Y91988D01*
X148152Y91976D01*
X148144Y91966D01*
X148123Y91948D01*
X146762Y90587D01*
X146761Y90586D01*
X146659Y90528D01*
X146628Y90498D01*
X146593Y90474D01*
X146515Y90388D01*
X146431Y90307D01*
X146408Y90270D01*
X146380Y90238D01*
X146325Y90135D01*
X146265Y90036D01*
X146252Y89995D01*
X146232Y89956D01*
X146205Y89843D01*
X146171Y89732D01*
X146169Y89689D01*
X146159Y89647D01*
X146161Y89531D01*
X146156Y89414D01*
X146165Y89372D01*
X146165Y89329D01*
X146197Y89217D01*
X146220Y89103D01*
X146239Y89064D01*
X146251Y89023D01*
X146294Y88936D01*
X146471Y88274D01*
X146471Y85439D01*
X139660Y85439D01*
X139542Y85424D01*
X139423Y85417D01*
X139385Y85404D01*
X139345Y85399D01*
X139234Y85356D01*
X139121Y85319D01*
X139087Y85297D01*
X139049Y85282D01*
X138953Y85213D01*
X138852Y85149D01*
X138824Y85119D01*
X138792Y85096D01*
X138716Y85004D01*
X138634Y84917D01*
X138615Y84882D01*
X138589Y84851D01*
X138538Y84743D01*
X138481Y84639D01*
X138471Y84599D01*
X138453Y84563D01*
X138433Y84456D01*
X138429Y84486D01*
G37*
%LPD*%
%LPC*%
G36*
X140969Y280066D02*
X140969Y280066D01*
X140925Y280176D01*
X140889Y280289D01*
X140867Y280324D01*
X140852Y280361D01*
X140782Y280457D01*
X140719Y280558D01*
X140689Y280586D01*
X140665Y280619D01*
X140574Y280695D01*
X140487Y280776D01*
X140452Y280796D01*
X140420Y280821D01*
X140313Y280872D01*
X140208Y280930D01*
X140169Y280940D01*
X140133Y280957D01*
X140016Y280979D01*
X139900Y281009D01*
X139840Y281013D01*
X139820Y281017D01*
X139800Y281015D01*
X139740Y281019D01*
X132929Y281019D01*
X132929Y283854D01*
X133107Y284516D01*
X133118Y284534D01*
X133156Y284644D01*
X133201Y284751D01*
X133208Y284794D01*
X133221Y284835D01*
X133231Y284951D01*
X133248Y285066D01*
X133243Y285109D01*
X133247Y285152D01*
X133227Y285267D01*
X133215Y285382D01*
X133200Y285423D01*
X133192Y285465D01*
X133144Y285571D01*
X133104Y285680D01*
X133079Y285716D01*
X133062Y285755D01*
X132989Y285846D01*
X132922Y285942D01*
X132890Y285970D01*
X132863Y286004D01*
X132770Y286073D01*
X132682Y286150D01*
X132643Y286169D01*
X132613Y286191D01*
X131163Y287642D01*
X130389Y289509D01*
X130389Y301531D01*
X131163Y303398D01*
X132592Y304827D01*
X134459Y305601D01*
X147481Y305601D01*
X149348Y304827D01*
X150663Y303512D01*
X150741Y303452D01*
X150813Y303384D01*
X150866Y303355D01*
X150914Y303318D01*
X151005Y303278D01*
X151092Y303230D01*
X151150Y303215D01*
X151206Y303191D01*
X151304Y303176D01*
X151400Y303151D01*
X151500Y303145D01*
X151520Y303141D01*
X151532Y303143D01*
X151560Y303141D01*
X160239Y303141D01*
X160248Y303142D01*
X160258Y303141D01*
X160406Y303162D01*
X160555Y303181D01*
X160563Y303184D01*
X160573Y303185D01*
X160725Y303237D01*
X162533Y303986D01*
X184239Y303986D01*
X186106Y303213D01*
X187536Y301783D01*
X188309Y299916D01*
X188309Y291904D01*
X187536Y290037D01*
X185928Y288429D01*
X185898Y288390D01*
X185830Y288324D01*
X185810Y288292D01*
X185785Y288265D01*
X185748Y288197D01*
X185733Y288177D01*
X185718Y288143D01*
X185663Y288054D01*
X185652Y288018D01*
X185634Y287984D01*
X185613Y287901D01*
X185607Y287886D01*
X185602Y287859D01*
X185569Y287750D01*
X185567Y287712D01*
X185558Y287676D01*
X185559Y287583D01*
X185557Y287572D01*
X185559Y287551D01*
X185553Y287432D01*
X185560Y287395D01*
X185561Y287358D01*
X185592Y287200D01*
X185769Y286540D01*
X185769Y284707D01*
X173614Y284707D01*
X173496Y284692D01*
X173377Y284685D01*
X173372Y284683D01*
X173319Y284697D01*
X173259Y284701D01*
X173239Y284704D01*
X173218Y284703D01*
X173158Y284707D01*
X161003Y284707D01*
X161003Y286630D01*
X160988Y286748D01*
X160980Y286867D01*
X160968Y286905D01*
X160963Y286946D01*
X160919Y287056D01*
X160882Y287169D01*
X160861Y287204D01*
X160846Y287241D01*
X160776Y287337D01*
X160712Y287438D01*
X160683Y287466D01*
X160659Y287499D01*
X160567Y287575D01*
X160481Y287656D01*
X160445Y287676D01*
X160414Y287701D01*
X160306Y287752D01*
X160202Y287810D01*
X160163Y287820D01*
X160126Y287837D01*
X160010Y287859D01*
X159894Y287889D01*
X159834Y287893D01*
X159814Y287897D01*
X159794Y287895D01*
X159734Y287899D01*
X151560Y287899D01*
X151462Y287887D01*
X151363Y287884D01*
X151305Y287867D01*
X151245Y287859D01*
X151153Y287823D01*
X151057Y287795D01*
X151005Y287765D01*
X150949Y287742D01*
X150869Y287684D01*
X150784Y287634D01*
X150708Y287568D01*
X150692Y287556D01*
X150684Y287546D01*
X150663Y287528D01*
X149302Y286167D01*
X149301Y286166D01*
X149199Y286108D01*
X149168Y286078D01*
X149133Y286054D01*
X149055Y285968D01*
X148971Y285887D01*
X148948Y285850D01*
X148920Y285818D01*
X148865Y285715D01*
X148805Y285616D01*
X148792Y285575D01*
X148772Y285536D01*
X148745Y285423D01*
X148711Y285312D01*
X148709Y285269D01*
X148699Y285227D01*
X148701Y285111D01*
X148696Y284994D01*
X148705Y284952D01*
X148705Y284909D01*
X148737Y284797D01*
X148760Y284683D01*
X148779Y284644D01*
X148791Y284603D01*
X148834Y284516D01*
X149011Y283854D01*
X149011Y281019D01*
X142200Y281019D01*
X142082Y281004D01*
X141963Y280997D01*
X141925Y280984D01*
X141885Y280979D01*
X141774Y280936D01*
X141661Y280899D01*
X141627Y280877D01*
X141589Y280862D01*
X141493Y280793D01*
X141392Y280729D01*
X141364Y280699D01*
X141332Y280676D01*
X141256Y280584D01*
X141174Y280497D01*
X141155Y280462D01*
X141129Y280431D01*
X141078Y280323D01*
X141021Y280219D01*
X141011Y280179D01*
X140993Y280143D01*
X140973Y280036D01*
X140969Y280066D01*
G37*
%LPD*%
%LPC*%
G36*
X140969Y377856D02*
X140969Y377856D01*
X140925Y377966D01*
X140889Y378079D01*
X140867Y378114D01*
X140852Y378151D01*
X140782Y378247D01*
X140719Y378348D01*
X140689Y378376D01*
X140665Y378409D01*
X140574Y378485D01*
X140487Y378566D01*
X140452Y378586D01*
X140420Y378611D01*
X140313Y378662D01*
X140208Y378720D01*
X140169Y378730D01*
X140133Y378747D01*
X140016Y378769D01*
X139900Y378799D01*
X139840Y378803D01*
X139820Y378807D01*
X139800Y378805D01*
X139740Y378809D01*
X132929Y378809D01*
X132929Y381644D01*
X133107Y382306D01*
X133118Y382324D01*
X133156Y382434D01*
X133201Y382541D01*
X133208Y382584D01*
X133221Y382625D01*
X133231Y382741D01*
X133248Y382856D01*
X133243Y382899D01*
X133247Y382942D01*
X133227Y383057D01*
X133215Y383172D01*
X133200Y383213D01*
X133192Y383255D01*
X133144Y383361D01*
X133104Y383470D01*
X133079Y383506D01*
X133062Y383545D01*
X132989Y383636D01*
X132922Y383732D01*
X132890Y383760D01*
X132863Y383794D01*
X132770Y383863D01*
X132682Y383940D01*
X132643Y383959D01*
X132613Y383981D01*
X131163Y385432D01*
X130389Y387299D01*
X130389Y399321D01*
X131163Y401188D01*
X132592Y402617D01*
X134459Y403391D01*
X147481Y403391D01*
X149348Y402617D01*
X150663Y401302D01*
X150741Y401242D01*
X150813Y401174D01*
X150866Y401145D01*
X150914Y401108D01*
X151005Y401068D01*
X151092Y401020D01*
X151150Y401005D01*
X151206Y400981D01*
X151304Y400966D01*
X151400Y400941D01*
X151500Y400935D01*
X151520Y400931D01*
X151532Y400933D01*
X151560Y400931D01*
X160239Y400931D01*
X160248Y400932D01*
X160258Y400931D01*
X160406Y400952D01*
X160555Y400971D01*
X160563Y400974D01*
X160573Y400975D01*
X160725Y401027D01*
X162533Y401776D01*
X184239Y401776D01*
X186106Y401003D01*
X187536Y399573D01*
X188309Y397706D01*
X188309Y389694D01*
X187536Y387827D01*
X185928Y386219D01*
X185898Y386180D01*
X185830Y386114D01*
X185810Y386082D01*
X185785Y386055D01*
X185748Y385987D01*
X185733Y385967D01*
X185718Y385933D01*
X185663Y385844D01*
X185652Y385808D01*
X185634Y385774D01*
X185613Y385691D01*
X185607Y385676D01*
X185602Y385649D01*
X185569Y385540D01*
X185567Y385502D01*
X185558Y385466D01*
X185559Y385373D01*
X185557Y385362D01*
X185559Y385341D01*
X185553Y385222D01*
X185560Y385185D01*
X185561Y385148D01*
X185592Y384990D01*
X185769Y384330D01*
X185769Y382497D01*
X173614Y382497D01*
X173496Y382482D01*
X173377Y382475D01*
X173372Y382473D01*
X173319Y382487D01*
X173259Y382491D01*
X173239Y382494D01*
X173218Y382493D01*
X173158Y382497D01*
X161003Y382497D01*
X161003Y384420D01*
X160988Y384538D01*
X160980Y384657D01*
X160968Y384695D01*
X160963Y384736D01*
X160919Y384846D01*
X160882Y384959D01*
X160861Y384994D01*
X160846Y385031D01*
X160776Y385127D01*
X160712Y385228D01*
X160683Y385256D01*
X160659Y385289D01*
X160567Y385365D01*
X160481Y385446D01*
X160445Y385466D01*
X160414Y385491D01*
X160306Y385542D01*
X160202Y385600D01*
X160163Y385610D01*
X160126Y385627D01*
X160010Y385649D01*
X159894Y385679D01*
X159834Y385683D01*
X159814Y385687D01*
X159794Y385685D01*
X159734Y385689D01*
X151560Y385689D01*
X151462Y385677D01*
X151363Y385674D01*
X151305Y385657D01*
X151245Y385649D01*
X151153Y385613D01*
X151057Y385585D01*
X151005Y385555D01*
X150949Y385532D01*
X150869Y385474D01*
X150784Y385424D01*
X150708Y385358D01*
X150692Y385346D01*
X150684Y385336D01*
X150663Y385318D01*
X149302Y383957D01*
X149301Y383956D01*
X149199Y383898D01*
X149168Y383868D01*
X149133Y383844D01*
X149055Y383758D01*
X148971Y383677D01*
X148948Y383640D01*
X148920Y383608D01*
X148865Y383505D01*
X148805Y383406D01*
X148792Y383365D01*
X148772Y383326D01*
X148745Y383213D01*
X148711Y383102D01*
X148709Y383059D01*
X148699Y383017D01*
X148701Y382901D01*
X148696Y382784D01*
X148705Y382742D01*
X148705Y382699D01*
X148737Y382587D01*
X148760Y382473D01*
X148779Y382434D01*
X148791Y382393D01*
X148834Y382306D01*
X149011Y381644D01*
X149011Y378809D01*
X142200Y378809D01*
X142082Y378794D01*
X141963Y378787D01*
X141925Y378774D01*
X141885Y378769D01*
X141774Y378726D01*
X141661Y378689D01*
X141627Y378667D01*
X141589Y378652D01*
X141493Y378583D01*
X141392Y378519D01*
X141364Y378489D01*
X141332Y378466D01*
X141256Y378374D01*
X141174Y378287D01*
X141155Y378252D01*
X141129Y378221D01*
X141078Y378113D01*
X141021Y378009D01*
X141011Y377969D01*
X140993Y377933D01*
X140973Y377826D01*
X140969Y377856D01*
G37*
%LPD*%
%LPC*%
G36*
X173319Y489167D02*
X173319Y489167D01*
X173259Y489171D01*
X173239Y489174D01*
X173218Y489173D01*
X173158Y489177D01*
X161003Y489177D01*
X161003Y491163D01*
X160985Y491301D01*
X160972Y491440D01*
X160965Y491459D01*
X160963Y491479D01*
X160912Y491608D01*
X160865Y491739D01*
X160853Y491756D01*
X160846Y491775D01*
X160764Y491887D01*
X160686Y492002D01*
X160671Y492015D01*
X160659Y492032D01*
X160552Y492121D01*
X160448Y492213D01*
X160430Y492222D01*
X160414Y492235D01*
X160288Y492294D01*
X160164Y492357D01*
X160145Y492362D01*
X160126Y492370D01*
X159990Y492396D01*
X159854Y492427D01*
X159834Y492426D01*
X159814Y492430D01*
X159676Y492421D01*
X159536Y492417D01*
X159517Y492411D01*
X159497Y492410D01*
X159365Y492368D01*
X159231Y492329D01*
X159213Y492318D01*
X159194Y492312D01*
X159076Y492238D01*
X158957Y492167D01*
X158936Y492149D01*
X158925Y492142D01*
X158911Y492127D01*
X158836Y492061D01*
X157348Y490573D01*
X155481Y489799D01*
X143459Y489799D01*
X141592Y490573D01*
X140117Y492048D01*
X140116Y492049D01*
X140058Y492151D01*
X140028Y492182D01*
X140004Y492217D01*
X139918Y492295D01*
X139837Y492379D01*
X139800Y492402D01*
X139768Y492430D01*
X139665Y492485D01*
X139566Y492545D01*
X139525Y492558D01*
X139486Y492578D01*
X139373Y492605D01*
X139262Y492639D01*
X139219Y492641D01*
X139177Y492651D01*
X139061Y492649D01*
X138944Y492654D01*
X138902Y492645D01*
X138859Y492645D01*
X138747Y492613D01*
X138633Y492590D01*
X138594Y492571D01*
X138553Y492559D01*
X138466Y492516D01*
X137804Y492339D01*
X134969Y492339D01*
X134969Y499150D01*
X134954Y499268D01*
X134947Y499387D01*
X134934Y499425D01*
X134929Y499465D01*
X134886Y499576D01*
X134849Y499689D01*
X134827Y499723D01*
X134812Y499761D01*
X134743Y499857D01*
X134679Y499958D01*
X134649Y499986D01*
X134626Y500018D01*
X134534Y500094D01*
X134447Y500176D01*
X134412Y500195D01*
X134381Y500221D01*
X134273Y500272D01*
X134169Y500329D01*
X134129Y500339D01*
X134093Y500357D01*
X133986Y500377D01*
X134016Y500381D01*
X134126Y500425D01*
X134239Y500461D01*
X134274Y500483D01*
X134311Y500498D01*
X134407Y500568D01*
X134508Y500631D01*
X134536Y500661D01*
X134569Y500685D01*
X134645Y500776D01*
X134726Y500863D01*
X134746Y500898D01*
X134771Y500930D01*
X134822Y501037D01*
X134880Y501142D01*
X134890Y501181D01*
X134907Y501217D01*
X134929Y501334D01*
X134959Y501450D01*
X134963Y501510D01*
X134967Y501530D01*
X134965Y501550D01*
X134969Y501610D01*
X134969Y508421D01*
X137804Y508421D01*
X138466Y508243D01*
X138484Y508232D01*
X138594Y508194D01*
X138701Y508149D01*
X138744Y508142D01*
X138785Y508129D01*
X138901Y508119D01*
X139016Y508102D01*
X139059Y508107D01*
X139102Y508103D01*
X139217Y508123D01*
X139332Y508135D01*
X139373Y508150D01*
X139415Y508158D01*
X139521Y508206D01*
X139630Y508246D01*
X139666Y508271D01*
X139705Y508288D01*
X139796Y508361D01*
X139892Y508428D01*
X139920Y508460D01*
X139954Y508487D01*
X140023Y508580D01*
X140100Y508668D01*
X140119Y508707D01*
X140141Y508737D01*
X141592Y510187D01*
X143459Y510961D01*
X155481Y510961D01*
X157348Y510187D01*
X158783Y508752D01*
X158790Y508731D01*
X158860Y508621D01*
X158924Y508508D01*
X158944Y508487D01*
X158960Y508462D01*
X159055Y508373D01*
X159145Y508280D01*
X159170Y508264D01*
X159192Y508244D01*
X159305Y508181D01*
X159416Y508113D01*
X159445Y508105D01*
X159470Y508090D01*
X159596Y508058D01*
X159720Y508020D01*
X159750Y508018D01*
X159778Y508011D01*
X159939Y508001D01*
X161181Y508001D01*
X161190Y508002D01*
X161199Y508001D01*
X161348Y508022D01*
X161496Y508041D01*
X161505Y508044D01*
X161514Y508045D01*
X161666Y508097D01*
X162533Y508456D01*
X184239Y508456D01*
X186106Y507683D01*
X187536Y506253D01*
X188309Y504386D01*
X188309Y496374D01*
X187536Y494507D01*
X185928Y492899D01*
X185898Y492860D01*
X185830Y492794D01*
X185810Y492762D01*
X185785Y492735D01*
X185748Y492667D01*
X185733Y492647D01*
X185718Y492613D01*
X185663Y492524D01*
X185652Y492488D01*
X185634Y492454D01*
X185613Y492371D01*
X185607Y492356D01*
X185602Y492329D01*
X185569Y492220D01*
X185567Y492182D01*
X185558Y492146D01*
X185559Y492053D01*
X185557Y492042D01*
X185559Y492021D01*
X185553Y491902D01*
X185560Y491865D01*
X185561Y491828D01*
X185592Y491670D01*
X185769Y491010D01*
X185769Y489177D01*
X173614Y489177D01*
X173496Y489162D01*
X173377Y489155D01*
X173372Y489153D01*
X173319Y489167D01*
G37*
%LPD*%
%LPC*%
G36*
X395988Y199326D02*
X395988Y199326D01*
X390830Y201462D01*
X386882Y205410D01*
X384746Y210568D01*
X384746Y216152D01*
X386882Y221310D01*
X390830Y225258D01*
X395988Y227394D01*
X401572Y227394D01*
X406730Y225258D01*
X410678Y221310D01*
X412814Y216152D01*
X412814Y210568D01*
X410678Y205410D01*
X406730Y201462D01*
X401572Y199326D01*
X395988Y199326D01*
G37*
%LPD*%
%LPC*%
G36*
X395988Y380936D02*
X395988Y380936D01*
X390830Y383072D01*
X386882Y387020D01*
X384746Y392178D01*
X384746Y397762D01*
X386882Y402920D01*
X390830Y406868D01*
X395988Y409004D01*
X401572Y409004D01*
X406730Y406868D01*
X410678Y402920D01*
X412814Y397762D01*
X412814Y392178D01*
X410678Y387020D01*
X406730Y383072D01*
X401572Y380936D01*
X395988Y380936D01*
G37*
%LPD*%
%LPC*%
G36*
X395988Y234378D02*
X395988Y234378D01*
X390830Y236514D01*
X386882Y240462D01*
X384746Y245620D01*
X384746Y251204D01*
X386882Y256362D01*
X390830Y260310D01*
X395988Y262446D01*
X401572Y262446D01*
X406730Y260310D01*
X410678Y256362D01*
X412814Y251204D01*
X412814Y245620D01*
X410678Y240462D01*
X406730Y236514D01*
X401572Y234378D01*
X395988Y234378D01*
G37*
%LPD*%
%LPC*%
G36*
X395988Y129476D02*
X395988Y129476D01*
X390830Y131612D01*
X386882Y135560D01*
X384746Y140718D01*
X384746Y146302D01*
X386882Y151460D01*
X390830Y155408D01*
X395988Y157544D01*
X401572Y157544D01*
X406730Y155408D01*
X410678Y151460D01*
X412814Y146302D01*
X412814Y140718D01*
X410678Y135560D01*
X406730Y131612D01*
X401572Y129476D01*
X395988Y129476D01*
G37*
%LPD*%
%LPC*%
G36*
X395988Y269176D02*
X395988Y269176D01*
X390830Y271312D01*
X386882Y275260D01*
X384746Y280418D01*
X384746Y286002D01*
X386882Y291160D01*
X390830Y295108D01*
X395988Y297244D01*
X401572Y297244D01*
X406730Y295108D01*
X410678Y291160D01*
X412814Y286002D01*
X412814Y280418D01*
X410678Y275260D01*
X406730Y271312D01*
X401572Y269176D01*
X395988Y269176D01*
G37*
%LPD*%
%LPC*%
G36*
X395988Y304228D02*
X395988Y304228D01*
X390830Y306364D01*
X386882Y310312D01*
X384746Y315470D01*
X384746Y321054D01*
X386882Y326212D01*
X390830Y330160D01*
X395988Y332296D01*
X401572Y332296D01*
X406730Y330160D01*
X410678Y326212D01*
X412814Y321054D01*
X412814Y315470D01*
X410678Y310312D01*
X406730Y306364D01*
X401572Y304228D01*
X395988Y304228D01*
G37*
%LPD*%
%LPC*%
G36*
X61978Y157924D02*
X61978Y157924D01*
X56820Y160060D01*
X52872Y164008D01*
X50736Y169166D01*
X50736Y174750D01*
X52872Y179908D01*
X56820Y183856D01*
X61978Y185992D01*
X67562Y185992D01*
X72720Y183856D01*
X76668Y179908D01*
X78804Y174750D01*
X78804Y169166D01*
X76668Y164008D01*
X72720Y160060D01*
X67562Y157924D01*
X61978Y157924D01*
G37*
%LPD*%
%LPC*%
G36*
X395988Y164528D02*
X395988Y164528D01*
X390830Y166664D01*
X386882Y170612D01*
X384746Y175770D01*
X384746Y181354D01*
X386882Y186512D01*
X390830Y190460D01*
X395988Y192596D01*
X401572Y192596D01*
X406730Y190460D01*
X410678Y186512D01*
X412814Y181354D01*
X412814Y175770D01*
X410678Y170612D01*
X406730Y166664D01*
X401572Y164528D01*
X395988Y164528D01*
G37*
%LPD*%
%LPC*%
G36*
X270469Y552449D02*
X270469Y552449D01*
X270469Y561466D01*
X276264Y561466D01*
X276911Y561293D01*
X277490Y560958D01*
X277963Y560485D01*
X278298Y559906D01*
X278471Y559259D01*
X278471Y552449D01*
X270469Y552449D01*
G37*
%LPD*%
%LPC*%
G36*
X257389Y552449D02*
X257389Y552449D01*
X257389Y559259D01*
X257562Y559906D01*
X257897Y560485D01*
X258370Y560958D01*
X258949Y561293D01*
X259596Y561466D01*
X265391Y561466D01*
X265391Y552449D01*
X257389Y552449D01*
G37*
%LPD*%
%LPC*%
G36*
X270469Y538354D02*
X270469Y538354D01*
X270469Y547371D01*
X278471Y547371D01*
X278471Y540561D01*
X278298Y539914D01*
X277963Y539335D01*
X277490Y538862D01*
X276911Y538527D01*
X276264Y538354D01*
X270469Y538354D01*
G37*
%LPD*%
%LPC*%
G36*
X259596Y538354D02*
X259596Y538354D01*
X258949Y538527D01*
X258370Y538862D01*
X257897Y539335D01*
X257562Y539914D01*
X257389Y540561D01*
X257389Y547371D01*
X265391Y547371D01*
X265391Y538354D01*
X259596Y538354D01*
G37*
%LPD*%
%LPC*%
G36*
X246379Y635979D02*
X246379Y635979D01*
X246379Y644675D01*
X246532Y644651D01*
X248252Y644092D01*
X249864Y643271D01*
X251328Y642207D01*
X252607Y640928D01*
X253671Y639464D01*
X254492Y637852D01*
X255051Y636132D01*
X255075Y635979D01*
X246379Y635979D01*
G37*
%LPD*%
%LPC*%
G36*
X211327Y635979D02*
X211327Y635979D01*
X211327Y644675D01*
X211480Y644651D01*
X213200Y644092D01*
X214812Y643271D01*
X216276Y642207D01*
X217555Y640928D01*
X218619Y639464D01*
X219440Y637852D01*
X219999Y636132D01*
X220023Y635979D01*
X211327Y635979D01*
G37*
%LPD*%
%LPC*%
G36*
X401319Y432561D02*
X401319Y432561D01*
X401319Y441257D01*
X401472Y441233D01*
X403192Y440674D01*
X404804Y439853D01*
X406268Y438789D01*
X407547Y437510D01*
X408611Y436046D01*
X409432Y434434D01*
X409991Y432714D01*
X410015Y432561D01*
X401319Y432561D01*
G37*
%LPD*%
%LPC*%
G36*
X401319Y572261D02*
X401319Y572261D01*
X401319Y580957D01*
X401472Y580933D01*
X403192Y580374D01*
X404804Y579553D01*
X406268Y578489D01*
X407547Y577210D01*
X408611Y575746D01*
X409432Y574134D01*
X409991Y572414D01*
X410015Y572261D01*
X401319Y572261D01*
G37*
%LPD*%
%LPC*%
G36*
X401319Y537209D02*
X401319Y537209D01*
X401319Y545905D01*
X401472Y545881D01*
X403192Y545322D01*
X404804Y544501D01*
X406268Y543437D01*
X407547Y542158D01*
X408611Y540694D01*
X409432Y539082D01*
X409991Y537362D01*
X410015Y537209D01*
X401319Y537209D01*
G37*
%LPD*%
%LPC*%
G36*
X401319Y502411D02*
X401319Y502411D01*
X401319Y511107D01*
X401472Y511083D01*
X403192Y510524D01*
X404804Y509703D01*
X406268Y508639D01*
X407547Y507360D01*
X408611Y505896D01*
X409432Y504284D01*
X409991Y502564D01*
X410015Y502411D01*
X401319Y502411D01*
G37*
%LPD*%
%LPC*%
G36*
X401319Y467359D02*
X401319Y467359D01*
X401319Y476055D01*
X401472Y476031D01*
X403192Y475472D01*
X404804Y474651D01*
X406268Y473587D01*
X407547Y472308D01*
X408611Y470844D01*
X409432Y469232D01*
X409991Y467512D01*
X410015Y467359D01*
X401319Y467359D01*
G37*
%LPD*%
%LPC*%
G36*
X197553Y635979D02*
X197553Y635979D01*
X197577Y636132D01*
X198136Y637852D01*
X198957Y639464D01*
X200021Y640928D01*
X201300Y642207D01*
X202764Y643271D01*
X204376Y644092D01*
X206096Y644651D01*
X206249Y644675D01*
X206249Y635979D01*
X197553Y635979D01*
G37*
%LPD*%
%LPC*%
G36*
X246379Y630901D02*
X246379Y630901D01*
X255075Y630901D01*
X255051Y630748D01*
X254492Y629028D01*
X253671Y627416D01*
X252607Y625952D01*
X251328Y624673D01*
X249864Y623609D01*
X248252Y622788D01*
X246532Y622229D01*
X246379Y622205D01*
X246379Y630901D01*
G37*
%LPD*%
%LPC*%
G36*
X211327Y630901D02*
X211327Y630901D01*
X220023Y630901D01*
X219999Y630748D01*
X219440Y629028D01*
X218619Y627416D01*
X217555Y625952D01*
X216276Y624673D01*
X214812Y623609D01*
X213200Y622788D01*
X211480Y622229D01*
X211327Y622205D01*
X211327Y630901D01*
G37*
%LPD*%
%LPC*%
G36*
X387545Y572261D02*
X387545Y572261D01*
X387569Y572414D01*
X388128Y574134D01*
X388949Y575746D01*
X390013Y577210D01*
X391292Y578489D01*
X392756Y579553D01*
X394368Y580374D01*
X396088Y580933D01*
X396241Y580957D01*
X396241Y572261D01*
X387545Y572261D01*
G37*
%LPD*%
%LPC*%
G36*
X401319Y532131D02*
X401319Y532131D01*
X410015Y532131D01*
X409991Y531978D01*
X409432Y530258D01*
X408611Y528646D01*
X407547Y527182D01*
X406268Y525903D01*
X404804Y524839D01*
X403192Y524018D01*
X401472Y523459D01*
X401319Y523435D01*
X401319Y532131D01*
G37*
%LPD*%
%LPC*%
G36*
X401319Y567183D02*
X401319Y567183D01*
X410015Y567183D01*
X409991Y567030D01*
X409432Y565310D01*
X408611Y563698D01*
X407547Y562234D01*
X406268Y560955D01*
X404804Y559891D01*
X403192Y559070D01*
X401472Y558511D01*
X401319Y558487D01*
X401319Y567183D01*
G37*
%LPD*%
%LPC*%
G36*
X401319Y427483D02*
X401319Y427483D01*
X410015Y427483D01*
X409991Y427330D01*
X409432Y425610D01*
X408611Y423998D01*
X407547Y422534D01*
X406268Y421255D01*
X404804Y420191D01*
X403192Y419370D01*
X401472Y418811D01*
X401319Y418787D01*
X401319Y427483D01*
G37*
%LPD*%
%LPC*%
G36*
X387545Y502411D02*
X387545Y502411D01*
X387569Y502564D01*
X388128Y504284D01*
X388949Y505896D01*
X390013Y507360D01*
X391292Y508639D01*
X392756Y509703D01*
X394368Y510524D01*
X396088Y511083D01*
X396241Y511107D01*
X396241Y502411D01*
X387545Y502411D01*
G37*
%LPD*%
%LPC*%
G36*
X387545Y432561D02*
X387545Y432561D01*
X387569Y432714D01*
X388128Y434434D01*
X388949Y436046D01*
X390013Y437510D01*
X391292Y438789D01*
X392756Y439853D01*
X394368Y440674D01*
X396088Y441233D01*
X396241Y441257D01*
X396241Y432561D01*
X387545Y432561D01*
G37*
%LPD*%
%LPC*%
G36*
X401319Y497333D02*
X401319Y497333D01*
X410015Y497333D01*
X409991Y497180D01*
X409432Y495460D01*
X408611Y493848D01*
X407547Y492384D01*
X406268Y491105D01*
X404804Y490041D01*
X403192Y489220D01*
X401472Y488661D01*
X401319Y488637D01*
X401319Y497333D01*
G37*
%LPD*%
%LPC*%
G36*
X387545Y467359D02*
X387545Y467359D01*
X387569Y467512D01*
X388128Y469232D01*
X388949Y470844D01*
X390013Y472308D01*
X391292Y473587D01*
X392756Y474651D01*
X394368Y475472D01*
X396088Y476031D01*
X396241Y476055D01*
X396241Y467359D01*
X387545Y467359D01*
G37*
%LPD*%
%LPC*%
G36*
X401319Y462281D02*
X401319Y462281D01*
X410015Y462281D01*
X409991Y462128D01*
X409432Y460408D01*
X408611Y458796D01*
X407547Y457332D01*
X406268Y456053D01*
X404804Y454989D01*
X403192Y454168D01*
X401472Y453609D01*
X401319Y453585D01*
X401319Y462281D01*
G37*
%LPD*%
%LPC*%
G36*
X387545Y537209D02*
X387545Y537209D01*
X387569Y537362D01*
X388128Y539082D01*
X388949Y540694D01*
X390013Y542158D01*
X391292Y543437D01*
X392756Y544501D01*
X394368Y545322D01*
X396088Y545881D01*
X396241Y545905D01*
X396241Y537209D01*
X387545Y537209D01*
G37*
%LPD*%
%LPC*%
G36*
X206096Y622229D02*
X206096Y622229D01*
X204376Y622788D01*
X202764Y623609D01*
X201300Y624673D01*
X200021Y625952D01*
X198957Y627416D01*
X198136Y629028D01*
X197577Y630748D01*
X197553Y630901D01*
X206249Y630901D01*
X206249Y622205D01*
X206096Y622229D01*
G37*
%LPD*%
%LPC*%
G36*
X396088Y558511D02*
X396088Y558511D01*
X394368Y559070D01*
X392756Y559891D01*
X391292Y560955D01*
X390013Y562234D01*
X388949Y563698D01*
X388128Y565310D01*
X387569Y567030D01*
X387545Y567183D01*
X396241Y567183D01*
X396241Y558487D01*
X396088Y558511D01*
G37*
%LPD*%
%LPC*%
G36*
X396088Y488661D02*
X396088Y488661D01*
X394368Y489220D01*
X392756Y490041D01*
X391292Y491105D01*
X390013Y492384D01*
X388949Y493848D01*
X388128Y495460D01*
X387569Y497180D01*
X387545Y497333D01*
X396241Y497333D01*
X396241Y488637D01*
X396088Y488661D01*
G37*
%LPD*%
%LPC*%
G36*
X396088Y418811D02*
X396088Y418811D01*
X394368Y419370D01*
X392756Y420191D01*
X391292Y421255D01*
X390013Y422534D01*
X388949Y423998D01*
X388128Y425610D01*
X387569Y427330D01*
X387545Y427483D01*
X396241Y427483D01*
X396241Y418787D01*
X396088Y418811D01*
G37*
%LPD*%
%LPC*%
G36*
X396088Y453609D02*
X396088Y453609D01*
X394368Y454168D01*
X392756Y454989D01*
X391292Y456053D01*
X390013Y457332D01*
X388949Y458796D01*
X388128Y460408D01*
X387569Y462128D01*
X387545Y462281D01*
X396241Y462281D01*
X396241Y453585D01*
X396088Y453609D01*
G37*
%LPD*%
%LPC*%
G36*
X396088Y523459D02*
X396088Y523459D01*
X394368Y524018D01*
X392756Y524839D01*
X391292Y525903D01*
X390013Y527182D01*
X388949Y528646D01*
X388128Y530258D01*
X387569Y531978D01*
X387545Y532131D01*
X396241Y532131D01*
X396241Y523435D01*
X396088Y523459D01*
G37*
%LPD*%
%LPC*%
G36*
X197359Y125729D02*
X197359Y125729D01*
X197359Y131024D01*
X197532Y131671D01*
X197867Y132250D01*
X198340Y132723D01*
X198919Y133058D01*
X199566Y133231D01*
X203861Y133231D01*
X203861Y125729D01*
X197359Y125729D01*
G37*
%LPD*%
%LPC*%
G36*
X192279Y523239D02*
X192279Y523239D01*
X192279Y528534D01*
X192452Y529181D01*
X192787Y529760D01*
X193260Y530233D01*
X193839Y530568D01*
X194486Y530741D01*
X198781Y530741D01*
X198781Y523239D01*
X192279Y523239D01*
G37*
%LPD*%
%LPC*%
G36*
X197359Y320039D02*
X197359Y320039D01*
X197359Y325334D01*
X197532Y325981D01*
X197867Y326560D01*
X198340Y327033D01*
X198919Y327368D01*
X199566Y327541D01*
X203861Y327541D01*
X203861Y320039D01*
X197359Y320039D01*
G37*
%LPD*%
%LPC*%
G36*
X194819Y417829D02*
X194819Y417829D01*
X194819Y423124D01*
X194992Y423771D01*
X195327Y424350D01*
X195800Y424823D01*
X196379Y425158D01*
X197026Y425331D01*
X201321Y425331D01*
X201321Y417829D01*
X194819Y417829D01*
G37*
%LPD*%
%LPC*%
G36*
X197359Y220979D02*
X197359Y220979D01*
X197359Y226274D01*
X197532Y226921D01*
X197867Y227500D01*
X198340Y227973D01*
X198919Y228308D01*
X199566Y228481D01*
X203861Y228481D01*
X203861Y220979D01*
X197359Y220979D01*
G37*
%LPD*%
%LPC*%
G36*
X199566Y113149D02*
X199566Y113149D01*
X198919Y113322D01*
X198340Y113657D01*
X197867Y114130D01*
X197532Y114709D01*
X197359Y115356D01*
X197359Y120651D01*
X203861Y120651D01*
X203861Y113149D01*
X199566Y113149D01*
G37*
%LPD*%
%LPC*%
G36*
X194486Y510659D02*
X194486Y510659D01*
X193839Y510832D01*
X193260Y511167D01*
X192787Y511640D01*
X192452Y512219D01*
X192279Y512866D01*
X192279Y518161D01*
X198781Y518161D01*
X198781Y510659D01*
X194486Y510659D01*
G37*
%LPD*%
%LPC*%
G36*
X197026Y405249D02*
X197026Y405249D01*
X196379Y405422D01*
X195800Y405757D01*
X195327Y406230D01*
X194992Y406809D01*
X194819Y407456D01*
X194819Y412751D01*
X201321Y412751D01*
X201321Y405249D01*
X197026Y405249D01*
G37*
%LPD*%
%LPC*%
G36*
X199566Y208399D02*
X199566Y208399D01*
X198919Y208572D01*
X198340Y208907D01*
X197867Y209380D01*
X197532Y209959D01*
X197359Y210606D01*
X197359Y215901D01*
X203861Y215901D01*
X203861Y208399D01*
X199566Y208399D01*
G37*
%LPD*%
%LPC*%
G36*
X199566Y307459D02*
X199566Y307459D01*
X198919Y307632D01*
X198340Y307967D01*
X197867Y308440D01*
X197532Y309019D01*
X197359Y309666D01*
X197359Y314961D01*
X203861Y314961D01*
X203861Y307459D01*
X199566Y307459D01*
G37*
%LPD*%
%LPC*%
G36*
X250149Y36799D02*
X250149Y36799D01*
X250149Y42341D01*
X255191Y42341D01*
X255191Y39006D01*
X255018Y38359D01*
X254683Y37780D01*
X254210Y37307D01*
X253631Y36972D01*
X252984Y36799D01*
X250149Y36799D01*
G37*
%LPD*%
%LPC*%
G36*
X247609Y232379D02*
X247609Y232379D01*
X247609Y237921D01*
X252651Y237921D01*
X252651Y234586D01*
X252478Y233939D01*
X252143Y233360D01*
X251670Y232887D01*
X251091Y232552D01*
X250444Y232379D01*
X247609Y232379D01*
G37*
%LPD*%
%LPC*%
G36*
X248879Y132049D02*
X248879Y132049D01*
X248879Y137591D01*
X253921Y137591D01*
X253921Y134256D01*
X253748Y133609D01*
X253413Y133030D01*
X252940Y132557D01*
X252361Y132222D01*
X251714Y132049D01*
X248879Y132049D01*
G37*
%LPD*%
%LPC*%
G36*
X248879Y436849D02*
X248879Y436849D01*
X248879Y442391D01*
X253921Y442391D01*
X253921Y439056D01*
X253748Y438409D01*
X253413Y437830D01*
X252940Y437357D01*
X252361Y437022D01*
X251714Y436849D01*
X248879Y436849D01*
G37*
%LPD*%
%LPC*%
G36*
X248879Y330169D02*
X248879Y330169D01*
X248879Y335711D01*
X253921Y335711D01*
X253921Y332376D01*
X253748Y331729D01*
X253413Y331150D01*
X252940Y330677D01*
X252361Y330342D01*
X251714Y330169D01*
X248879Y330169D01*
G37*
%LPD*%
%LPC*%
G36*
X124929Y502879D02*
X124929Y502879D01*
X124929Y506214D01*
X125102Y506861D01*
X125437Y507440D01*
X125910Y507913D01*
X126489Y508248D01*
X127136Y508421D01*
X129971Y508421D01*
X129971Y502879D01*
X124929Y502879D01*
G37*
%LPD*%
%LPC*%
G36*
X193509Y552699D02*
X193509Y552699D01*
X193509Y556034D01*
X193682Y556681D01*
X194017Y557260D01*
X194490Y557733D01*
X195069Y558068D01*
X195716Y558241D01*
X198551Y558241D01*
X198551Y552699D01*
X193509Y552699D01*
G37*
%LPD*%
%LPC*%
G36*
X143469Y368769D02*
X143469Y368769D01*
X143469Y373811D01*
X149011Y373811D01*
X149011Y370976D01*
X148838Y370329D01*
X148503Y369750D01*
X148030Y369277D01*
X147451Y368942D01*
X146804Y368769D01*
X143469Y368769D01*
G37*
%LPD*%
%LPC*%
G36*
X143469Y270979D02*
X143469Y270979D01*
X143469Y276021D01*
X149011Y276021D01*
X149011Y273186D01*
X148838Y272539D01*
X148503Y271960D01*
X148030Y271487D01*
X147451Y271152D01*
X146804Y270979D01*
X143469Y270979D01*
G37*
%LPD*%
%LPC*%
G36*
X140929Y75399D02*
X140929Y75399D01*
X140929Y80441D01*
X146471Y80441D01*
X146471Y77606D01*
X146298Y76959D01*
X145963Y76380D01*
X145490Y75907D01*
X144911Y75572D01*
X144264Y75399D01*
X140929Y75399D01*
G37*
%LPD*%
%LPC*%
G36*
X147279Y170649D02*
X147279Y170649D01*
X147279Y175691D01*
X152821Y175691D01*
X152821Y172856D01*
X152648Y172209D01*
X152313Y171630D01*
X151840Y171157D01*
X151261Y170822D01*
X150614Y170649D01*
X147279Y170649D01*
G37*
%LPD*%
%LPC*%
G36*
X195716Y542159D02*
X195716Y542159D01*
X195069Y542332D01*
X194490Y542667D01*
X194017Y543140D01*
X193682Y543719D01*
X193509Y544366D01*
X193509Y547701D01*
X198551Y547701D01*
X198551Y542159D01*
X195716Y542159D01*
G37*
%LPD*%
%LPC*%
G36*
X135136Y368769D02*
X135136Y368769D01*
X134489Y368942D01*
X133910Y369277D01*
X133437Y369750D01*
X133102Y370329D01*
X132929Y370976D01*
X132929Y373811D01*
X138471Y373811D01*
X138471Y368769D01*
X135136Y368769D01*
G37*
%LPD*%
%LPC*%
G36*
X241046Y330169D02*
X241046Y330169D01*
X240399Y330342D01*
X239820Y330677D01*
X239347Y331150D01*
X239012Y331729D01*
X238839Y332376D01*
X238839Y335711D01*
X243881Y335711D01*
X243881Y330169D01*
X241046Y330169D01*
G37*
%LPD*%
%LPC*%
G36*
X241046Y436849D02*
X241046Y436849D01*
X240399Y437022D01*
X239820Y437357D01*
X239347Y437830D01*
X239012Y438409D01*
X238839Y439056D01*
X238839Y442391D01*
X243881Y442391D01*
X243881Y436849D01*
X241046Y436849D01*
G37*
%LPD*%
%LPC*%
G36*
X138946Y170649D02*
X138946Y170649D01*
X138299Y170822D01*
X137720Y171157D01*
X137247Y171630D01*
X136912Y172209D01*
X136739Y172856D01*
X136739Y175691D01*
X142281Y175691D01*
X142281Y170649D01*
X138946Y170649D01*
G37*
%LPD*%
%LPC*%
G36*
X241046Y132049D02*
X241046Y132049D01*
X240399Y132222D01*
X239820Y132557D01*
X239347Y133030D01*
X239012Y133609D01*
X238839Y134256D01*
X238839Y137591D01*
X243881Y137591D01*
X243881Y132049D01*
X241046Y132049D01*
G37*
%LPD*%
%LPC*%
G36*
X239776Y232379D02*
X239776Y232379D01*
X239129Y232552D01*
X238550Y232887D01*
X238077Y233360D01*
X237742Y233939D01*
X237569Y234586D01*
X237569Y237921D01*
X242611Y237921D01*
X242611Y232379D01*
X239776Y232379D01*
G37*
%LPD*%
%LPC*%
G36*
X132596Y75399D02*
X132596Y75399D01*
X131949Y75572D01*
X131370Y75907D01*
X130897Y76380D01*
X130562Y76959D01*
X130389Y77606D01*
X130389Y80441D01*
X135931Y80441D01*
X135931Y75399D01*
X132596Y75399D01*
G37*
%LPD*%
%LPC*%
G36*
X135136Y270979D02*
X135136Y270979D01*
X134489Y271152D01*
X133910Y271487D01*
X133437Y271960D01*
X133102Y272539D01*
X132929Y273186D01*
X132929Y276021D01*
X138471Y276021D01*
X138471Y270979D01*
X135136Y270979D01*
G37*
%LPD*%
%LPC*%
G36*
X242316Y36799D02*
X242316Y36799D01*
X241669Y36972D01*
X241090Y37307D01*
X240617Y37780D01*
X240282Y38359D01*
X240109Y39006D01*
X240109Y42341D01*
X245151Y42341D01*
X245151Y36799D01*
X242316Y36799D01*
G37*
%LPD*%
%LPC*%
G36*
X327634Y446124D02*
X327634Y446124D01*
X327634Y450291D01*
X330630Y450291D01*
X331442Y450073D01*
X332169Y449653D01*
X332763Y449059D01*
X333183Y448332D01*
X333401Y447520D01*
X333401Y446124D01*
X327634Y446124D01*
G37*
%LPD*%
%LPC*%
G36*
X327634Y438709D02*
X327634Y438709D01*
X327634Y442876D01*
X333401Y442876D01*
X333401Y441480D01*
X333183Y440668D01*
X332763Y439941D01*
X332169Y439347D01*
X331442Y438927D01*
X330630Y438709D01*
X327634Y438709D01*
G37*
%LPD*%
%LPC*%
G36*
X398779Y499871D02*
X398779Y499871D01*
X398779Y499873D01*
X398781Y499873D01*
X398781Y499871D01*
X398779Y499871D01*
G37*
%LPD*%
%LPC*%
G36*
X398779Y464819D02*
X398779Y464819D01*
X398779Y464821D01*
X398781Y464821D01*
X398781Y464819D01*
X398779Y464819D01*
G37*
%LPD*%
%LPC*%
G36*
X398779Y430021D02*
X398779Y430021D01*
X398779Y430023D01*
X398781Y430023D01*
X398781Y430021D01*
X398779Y430021D01*
G37*
%LPD*%
%LPC*%
G36*
X398779Y569721D02*
X398779Y569721D01*
X398779Y569723D01*
X398781Y569723D01*
X398781Y569721D01*
X398779Y569721D01*
G37*
%LPD*%
%LPC*%
G36*
X208787Y633439D02*
X208787Y633439D01*
X208787Y633441D01*
X208789Y633441D01*
X208789Y633439D01*
X208787Y633439D01*
G37*
%LPD*%
%LPC*%
G36*
X398779Y534669D02*
X398779Y534669D01*
X398779Y534671D01*
X398781Y534671D01*
X398781Y534669D01*
X398779Y534669D01*
G37*
%LPD*%
%LPC*%
G36*
X267929Y549909D02*
X267929Y549909D01*
X267929Y549911D01*
X267931Y549911D01*
X267931Y549909D01*
X267929Y549909D01*
G37*
%LPD*%
D10*
X246380Y461890D03*
X246380Y444890D03*
D11*
X206400Y123190D03*
X225400Y123190D03*
D10*
X246380Y355210D03*
X246380Y338210D03*
X245110Y257420D03*
X245110Y240420D03*
X246380Y157090D03*
X246380Y140090D03*
X247650Y61840D03*
X247650Y44840D03*
D11*
X201320Y520700D03*
X220320Y520700D03*
X203860Y415290D03*
X222860Y415290D03*
X206400Y317500D03*
X225400Y317500D03*
X206400Y218440D03*
X225400Y218440D03*
D12*
X222854Y462280D03*
X222854Y474980D03*
X222854Y487680D03*
X222854Y500380D03*
X173386Y500380D03*
X173386Y487680D03*
X173386Y474980D03*
X173386Y462280D03*
D13*
X198120Y481330D03*
D12*
X222854Y355600D03*
X222854Y368300D03*
X222854Y381000D03*
X222854Y393700D03*
X173386Y393700D03*
X173386Y381000D03*
X173386Y368300D03*
X173386Y355600D03*
D13*
X198120Y374650D03*
D12*
X222854Y257810D03*
X222854Y270510D03*
X222854Y283210D03*
X222854Y295910D03*
X173386Y295910D03*
X173386Y283210D03*
X173386Y270510D03*
X173386Y257810D03*
D13*
X198120Y276860D03*
D12*
X222854Y157480D03*
X222854Y170180D03*
X222854Y182880D03*
X222854Y195580D03*
X173386Y195580D03*
X173386Y182880D03*
X173386Y170180D03*
X173386Y157480D03*
D13*
X198120Y176530D03*
D12*
X222854Y62230D03*
X222854Y74930D03*
X222854Y87630D03*
X222854Y100330D03*
X173386Y100330D03*
X173386Y87630D03*
X173386Y74930D03*
X173386Y62230D03*
D13*
X198120Y81280D03*
D14*
X271780Y461890D03*
X271780Y444890D03*
X138430Y82940D03*
X138430Y99940D03*
X271780Y355210D03*
X271780Y338210D03*
X270510Y257420D03*
X270510Y240420D03*
X271780Y157090D03*
X271780Y140090D03*
X273050Y61840D03*
X273050Y44840D03*
D10*
X132470Y500380D03*
X149470Y500380D03*
D14*
X140970Y376310D03*
X140970Y393310D03*
X140970Y278520D03*
X140970Y295520D03*
X144780Y178190D03*
X144780Y195190D03*
D15*
X267930Y549910D03*
X239490Y549910D03*
D10*
X201050Y550200D03*
X218050Y550200D03*
D16*
X64770Y462280D03*
X64770Y427228D03*
X64770Y346710D03*
X64770Y311658D03*
X64770Y276860D03*
X64770Y241808D03*
X398780Y213360D03*
X398780Y248412D03*
X398780Y283210D03*
X398780Y318262D03*
X398780Y394970D03*
X398780Y430022D03*
X398780Y464820D03*
X398780Y499872D03*
X398780Y534670D03*
X398780Y569722D03*
X243840Y633440D03*
X208788Y633440D03*
X64770Y207010D03*
X64770Y171958D03*
X398780Y143510D03*
X398780Y178562D03*
D17*
X295410Y441900D02*
X287010Y441900D01*
X287010Y447100D01*
X295410Y447100D01*
X295410Y441900D01*
X295410Y443135D02*
X287010Y443135D01*
X287010Y444370D02*
X295410Y444370D01*
X295410Y445605D02*
X287010Y445605D01*
X287010Y446840D02*
X295410Y446840D01*
X321810Y441900D02*
X330210Y441900D01*
X321810Y441900D02*
X321810Y447100D01*
X330210Y447100D01*
X330210Y441900D01*
X330210Y443135D02*
X321810Y443135D01*
X321810Y444370D02*
X330210Y444370D01*
X330210Y445605D02*
X321810Y445605D01*
X321810Y446840D02*
X330210Y446840D01*
X295410Y335220D02*
X287010Y335220D01*
X287010Y340420D01*
X295410Y340420D01*
X295410Y335220D01*
X295410Y336455D02*
X287010Y336455D01*
X287010Y337690D02*
X295410Y337690D01*
X295410Y338925D02*
X287010Y338925D01*
X287010Y340160D02*
X295410Y340160D01*
X321810Y335220D02*
X330210Y335220D01*
X321810Y335220D02*
X321810Y340420D01*
X330210Y340420D01*
X330210Y335220D01*
X330210Y336455D02*
X321810Y336455D01*
X321810Y337690D02*
X330210Y337690D01*
X330210Y338925D02*
X321810Y338925D01*
X321810Y340160D02*
X330210Y340160D01*
X295410Y237430D02*
X287010Y237430D01*
X287010Y242630D01*
X295410Y242630D01*
X295410Y237430D01*
X295410Y238665D02*
X287010Y238665D01*
X287010Y239900D02*
X295410Y239900D01*
X295410Y241135D02*
X287010Y241135D01*
X287010Y242370D02*
X295410Y242370D01*
X321810Y237430D02*
X330210Y237430D01*
X321810Y237430D02*
X321810Y242630D01*
X330210Y242630D01*
X330210Y237430D01*
X330210Y238665D02*
X321810Y238665D01*
X321810Y239900D02*
X330210Y239900D01*
X330210Y241135D02*
X321810Y241135D01*
X321810Y242370D02*
X330210Y242370D01*
X295410Y138370D02*
X287010Y138370D01*
X287010Y143570D01*
X295410Y143570D01*
X295410Y138370D01*
X295410Y139605D02*
X287010Y139605D01*
X287010Y140840D02*
X295410Y140840D01*
X295410Y142075D02*
X287010Y142075D01*
X287010Y143310D02*
X295410Y143310D01*
X321810Y138370D02*
X330210Y138370D01*
X321810Y138370D02*
X321810Y143570D01*
X330210Y143570D01*
X330210Y138370D01*
X330210Y139605D02*
X321810Y139605D01*
X321810Y140840D02*
X330210Y140840D01*
X330210Y142075D02*
X321810Y142075D01*
X321810Y143310D02*
X330210Y143310D01*
X295410Y41850D02*
X287010Y41850D01*
X287010Y47050D01*
X295410Y47050D01*
X295410Y41850D01*
X295410Y43085D02*
X287010Y43085D01*
X287010Y44320D02*
X295410Y44320D01*
X295410Y45555D02*
X287010Y45555D01*
X287010Y46790D02*
X295410Y46790D01*
X321810Y41850D02*
X330210Y41850D01*
X321810Y41850D02*
X321810Y47050D01*
X330210Y47050D01*
X330210Y41850D01*
X330210Y43085D02*
X321810Y43085D01*
X321810Y44320D02*
X330210Y44320D01*
X330210Y45555D02*
X321810Y45555D01*
X321810Y46790D02*
X330210Y46790D01*
D18*
X267930Y549910D02*
X267930Y609350D01*
X252281Y624999D01*
X243840Y633440D01*
X386842Y569722D02*
X398780Y569722D01*
X386842Y569722D02*
X350520Y569722D01*
X330708Y549910D01*
X267930Y549910D01*
X398780Y557784D02*
X398780Y569722D01*
X398780Y557784D02*
X398780Y546608D01*
X398780Y534670D01*
X398780Y522732D01*
X398780Y511810D01*
X398780Y499872D01*
X398780Y487934D01*
X398780Y476758D01*
X398780Y464820D01*
X398780Y452882D01*
X398780Y441960D01*
X398780Y430022D01*
D19*
X359410Y444500D02*
X326010Y444500D01*
X326010Y140970D02*
X326010Y44450D01*
X326010Y140970D02*
X326010Y240030D01*
X326010Y337820D01*
X379730Y464820D02*
X386842Y464820D01*
X398780Y464820D01*
X379730Y464820D02*
X359410Y444500D01*
X390339Y421581D02*
X326010Y357252D01*
X390339Y421581D02*
X398780Y430022D01*
X326010Y357252D02*
X326010Y337820D01*
D18*
X394138Y502088D02*
X398780Y511810D01*
X394138Y502088D02*
X398780Y499872D01*
X403422Y502088D02*
X398780Y511810D01*
X403422Y502088D02*
X398780Y499872D01*
X403422Y497656D02*
X398780Y487934D01*
X403422Y497656D02*
X398780Y499872D01*
X394138Y497656D02*
X398780Y487934D01*
X394138Y497656D02*
X398780Y499872D01*
X398780Y476758D02*
X394138Y467036D01*
X398780Y464820D01*
X403422Y467036D02*
X398780Y476758D01*
X403422Y467036D02*
X398780Y464820D01*
X403422Y462604D02*
X398780Y452882D01*
X403422Y462604D02*
X398780Y464820D01*
X394138Y462604D02*
X398780Y452882D01*
X394138Y462604D02*
X398780Y464820D01*
D19*
X395334Y459411D02*
X386842Y464820D01*
X395334Y459411D02*
X398780Y464820D01*
X395334Y470229D02*
X386842Y464820D01*
X395334Y470229D02*
X398780Y464820D01*
D18*
X396564Y565080D02*
X386842Y569722D01*
X396564Y565080D02*
X398780Y569722D01*
X396564Y574364D02*
X386842Y569722D01*
X396564Y574364D02*
X398780Y569722D01*
X403422Y567506D02*
X398780Y557784D01*
X403422Y567506D02*
X398780Y569722D01*
X394138Y567506D02*
X398780Y557784D01*
X394138Y567506D02*
X398780Y569722D01*
X398780Y546608D02*
X394138Y536886D01*
X398780Y534670D01*
X403422Y536886D02*
X398780Y546608D01*
X403422Y536886D02*
X398780Y534670D01*
X403422Y532454D02*
X398780Y522732D01*
X403422Y532454D02*
X398780Y534670D01*
X394138Y532454D02*
X398780Y522732D01*
X394138Y532454D02*
X398780Y534670D01*
X398780Y441960D02*
X394138Y432238D01*
X398780Y430022D01*
X403422Y432238D02*
X398780Y441960D01*
X403422Y432238D02*
X398780Y430022D01*
D19*
X400169Y423761D02*
X390339Y421581D01*
X400169Y423761D02*
X398780Y430022D01*
X392519Y431411D02*
X390339Y421581D01*
X392519Y431411D02*
X398780Y430022D01*
D18*
X252281Y624999D02*
X248689Y635155D01*
X243840Y633440D01*
X242125Y628591D02*
X252281Y624999D01*
X242125Y628591D02*
X243840Y633440D01*
D19*
X201050Y550200D02*
X201050Y520970D01*
X201320Y520700D01*
X201050Y550200D02*
X201050Y624349D01*
X201050Y625702D01*
X208788Y633440D01*
X198120Y483870D02*
X198120Y481330D01*
X194310Y487680D02*
X173386Y487680D01*
X194310Y487680D02*
X198120Y483870D01*
X198120Y379730D02*
X198120Y374650D01*
X196850Y381000D02*
X173386Y381000D01*
X196850Y381000D02*
X198120Y379730D01*
D20*
X207890Y444890D02*
X246380Y444890D01*
X198120Y454660D02*
X198120Y481330D01*
X198120Y454660D02*
X207890Y444890D01*
X203860Y440860D02*
X203860Y415290D01*
X203860Y440860D02*
X207890Y444890D01*
D19*
X207010Y338210D02*
X246380Y338210D01*
X207010Y338210D02*
X200270Y338210D01*
X198120Y340360D02*
X198120Y374650D01*
X198120Y340360D02*
X200270Y338210D01*
X206400Y337600D02*
X206400Y317500D01*
X206400Y337600D02*
X207010Y338210D01*
X198120Y279400D02*
X198120Y276860D01*
X207010Y240420D02*
X245110Y240420D01*
X207010Y240420D02*
X200270Y240420D01*
X198120Y242570D01*
X198120Y276860D01*
X207010Y219050D02*
X206400Y218440D01*
X207010Y219050D02*
X207010Y240420D01*
X198120Y182880D02*
X198120Y176530D01*
X206400Y140090D02*
X246380Y140090D01*
X206400Y140090D02*
X202810Y140090D01*
X198120Y144780D02*
X198120Y176530D01*
X198120Y144780D02*
X202810Y140090D01*
X206400Y140090D02*
X206400Y123190D01*
X198120Y86360D02*
X198120Y81280D01*
X209160Y44840D02*
X247650Y44840D01*
X209160Y44840D02*
X198120Y55880D01*
X198120Y81280D01*
X196850Y87630D02*
X173386Y87630D01*
X196850Y87630D02*
X198120Y86360D01*
X198120Y182880D02*
X173386Y182880D01*
X173386Y283210D02*
X194310Y283210D01*
X198120Y279400D01*
X201050Y624349D02*
X210674Y627310D01*
X208788Y633440D01*
X202436Y634323D02*
X201050Y624349D01*
X202436Y634323D02*
X208788Y633440D01*
X132470Y500380D02*
X132470Y491100D01*
X135890Y487680D01*
X173386Y487680D01*
X150250Y376310D02*
X140970Y376310D01*
X150250Y376310D02*
X154940Y381000D01*
X173386Y381000D01*
X150740Y278520D02*
X140970Y278520D01*
X150740Y278520D02*
X151130Y278130D01*
X156210Y283210D02*
X173386Y283210D01*
X156210Y283210D02*
X151130Y278130D01*
X147710Y82940D02*
X138430Y82940D01*
X147710Y82940D02*
X152400Y87630D01*
X173386Y87630D01*
X154060Y178190D02*
X144780Y178190D01*
X158750Y182880D02*
X173386Y182880D01*
X158750Y182880D02*
X154060Y178190D01*
X206400Y123190D02*
X206400Y109880D01*
X198120Y101600D02*
X198120Y86360D01*
X198120Y101600D02*
X206400Y109880D01*
X206400Y206350D02*
X206400Y218440D01*
X206400Y206350D02*
X207010Y205740D01*
X198120Y196850D02*
X198120Y176530D01*
X198120Y196850D02*
X207010Y205740D01*
X206400Y305410D02*
X206400Y317500D01*
X206400Y305410D02*
X207010Y304800D01*
X198120Y295910D02*
X198120Y276860D01*
X198120Y295910D02*
X207010Y304800D01*
X203860Y400710D02*
X203860Y415290D01*
X203860Y400710D02*
X198120Y394970D01*
X198120Y374650D01*
X201320Y506070D02*
X201320Y520700D01*
X201320Y506070D02*
X201930Y505460D01*
X201930Y501650D01*
X198120Y497840D01*
X198120Y481330D01*
X271780Y444890D02*
X290820Y444890D01*
X291210Y444500D01*
D18*
X271780Y461890D02*
X246380Y461890D01*
D19*
X245990Y462280D02*
X222854Y462280D01*
X245990Y462280D02*
X246380Y461890D01*
X271780Y338210D02*
X290820Y338210D01*
X291210Y337820D01*
X290820Y240420D02*
X270510Y240420D01*
X290820Y240420D02*
X291210Y240030D01*
X290330Y140090D02*
X271780Y140090D01*
X290330Y140090D02*
X291210Y140970D01*
X290820Y44840D02*
X273050Y44840D01*
X290820Y44840D02*
X291210Y44450D01*
D20*
X245990Y355600D02*
X222854Y355600D01*
X245990Y355600D02*
X246380Y355210D01*
X271780Y355210D01*
D19*
X244720Y257810D02*
X222854Y257810D01*
X244720Y257810D02*
X245110Y257420D01*
X270510Y257420D01*
X245990Y157480D02*
X222854Y157480D01*
X245990Y157480D02*
X246380Y157090D01*
X271780Y157090D01*
X247650Y61840D02*
X223244Y61840D01*
X222854Y62230D01*
X247650Y61840D02*
X273050Y61840D01*
X220320Y502914D02*
X220320Y520700D01*
X220320Y502914D02*
X222854Y500380D01*
D21*
X246380Y500380D03*
D19*
X237380Y500380D01*
X237380Y500380D01*
X222854Y500380D01*
X237380Y500380D02*
X245690Y497985D01*
X245690Y497985D01*
X246380Y500380D01*
X245690Y502775D02*
X237380Y500380D01*
X245690Y497985D01*
X237380Y500380D02*
X237380Y500380D01*
X245690Y497985D01*
X246380Y500380D01*
X245690Y502775D02*
X237380Y500380D01*
X245690Y502775D02*
X245690Y502775D01*
X246380Y500380D01*
X245690Y497985D02*
X237380Y500380D01*
X245690Y502775D01*
X245690Y497985D02*
X237380Y500380D01*
X245690Y497985D02*
X246380Y500380D01*
X245690Y502775D02*
X237380Y500380D01*
X245690Y502775D02*
X246380Y500380D01*
X173386Y500380D02*
X149470Y500380D01*
D22*
X246380Y474980D03*
D19*
X240380Y474980D01*
X240380Y474980D01*
X222854Y474980D01*
X73211Y435669D02*
X64770Y427228D01*
X73211Y435669D02*
X73211Y435669D01*
X112522Y474980D01*
X118000Y474980D01*
D21*
X127000Y474980D03*
D19*
X118000Y474980D02*
X118000Y474980D01*
X127000Y474980D01*
X222854Y368300D02*
X240380Y368300D01*
D22*
X246380Y368300D03*
D19*
X240380Y368300D02*
X240380Y368300D01*
X246380Y368300D01*
X241130Y270510D02*
X222854Y270510D01*
D23*
X246380Y270510D03*
D19*
X241130Y270510D02*
X241130Y270510D01*
X246380Y270510D01*
X240380Y170180D02*
X222854Y170180D01*
D22*
X246380Y170180D03*
D19*
X240380Y170180D02*
X240380Y170180D01*
X246380Y170180D01*
X240380Y74930D02*
X222854Y74930D01*
D22*
X246380Y74930D03*
D19*
X240380Y74930D02*
X240380Y74930D01*
X246380Y74930D01*
X246009Y473535D02*
X240380Y474980D01*
X246009Y476425D01*
X126310Y472585D02*
X118000Y474980D01*
X126310Y472585D02*
X126310Y472585D01*
X127000Y474980D01*
X126310Y477375D02*
X118000Y474980D01*
X240380Y368300D02*
X246009Y366855D01*
X246009Y369745D02*
X240380Y368300D01*
X241130Y270510D02*
X246086Y269303D01*
X246086Y271717D02*
X241130Y270510D01*
X240380Y170180D02*
X246009Y168735D01*
X246009Y171625D02*
X240380Y170180D01*
X240380Y74930D02*
X246009Y73485D01*
X246009Y76375D02*
X240380Y74930D01*
X240380Y474980D02*
X240380Y474980D01*
X246009Y473535D01*
X246009Y473535D01*
X246380Y474980D01*
X246009Y476425D02*
X240380Y474980D01*
X246009Y476425D02*
X246009Y476425D01*
X246380Y474980D01*
X246009Y473535D02*
X240380Y474980D01*
X246009Y476425D01*
X246009Y473535D02*
X240380Y474980D01*
X246009Y473535D02*
X246380Y474980D01*
X246009Y476425D02*
X240380Y474980D01*
X246009Y476425D02*
X246380Y474980D01*
X126310Y472585D02*
X118000Y474980D01*
X118000Y474980D01*
X126310Y472585D01*
X127000Y474980D01*
X126310Y477375D02*
X118000Y474980D01*
X126310Y477375D02*
X126310Y477375D01*
X127000Y474980D01*
X126310Y472585D02*
X118000Y474980D01*
X126310Y477375D01*
X126310Y472585D02*
X118000Y474980D01*
X126310Y472585D02*
X127000Y474980D01*
X126310Y477375D02*
X118000Y474980D01*
X126310Y477375D02*
X127000Y474980D01*
X240380Y368300D02*
X240380Y368300D01*
X246009Y366855D01*
X246009Y366855D01*
X246380Y368300D01*
X246009Y369745D02*
X240380Y368300D01*
X246009Y369745D02*
X246009Y369745D01*
X246380Y368300D01*
X246009Y366855D02*
X240380Y368300D01*
X246009Y369745D01*
X246009Y366855D02*
X240380Y368300D01*
X246009Y366855D02*
X246380Y368300D01*
X246009Y369745D02*
X240380Y368300D01*
X246009Y369745D02*
X246380Y368300D01*
X241130Y270510D02*
X241130Y270510D01*
X246086Y269303D01*
X246086Y269303D01*
X246380Y270510D01*
X246086Y271717D02*
X241130Y270510D01*
X246086Y271717D02*
X246086Y271717D01*
X246380Y270510D01*
X246086Y269303D02*
X241130Y270510D01*
X246086Y271717D01*
X246086Y269303D02*
X241130Y270510D01*
X246086Y269303D02*
X246380Y270510D01*
X246086Y271717D02*
X241130Y270510D01*
X246086Y271717D02*
X246380Y270510D01*
X240380Y170180D02*
X240380Y170180D01*
X246009Y168735D01*
X246009Y168735D01*
X246380Y170180D01*
X246009Y171625D02*
X240380Y170180D01*
X246009Y171625D02*
X246009Y171625D01*
X246380Y170180D01*
X246009Y168735D02*
X240380Y170180D01*
X246009Y171625D01*
X246009Y168735D02*
X240380Y170180D01*
X246009Y168735D02*
X246380Y170180D01*
X246009Y171625D02*
X240380Y170180D01*
X246009Y171625D02*
X246380Y170180D01*
X240380Y74930D02*
X240380Y74930D01*
X246009Y73485D01*
X246009Y73485D01*
X246380Y74930D01*
X246009Y76375D02*
X240380Y74930D01*
X246009Y76375D02*
X246009Y76375D01*
X246380Y74930D01*
X246009Y73485D02*
X240380Y74930D01*
X246009Y76375D01*
X246009Y73485D02*
X240380Y74930D01*
X246009Y73485D02*
X246380Y74930D01*
X246009Y76375D02*
X240380Y74930D01*
X246009Y76375D02*
X246380Y74930D01*
X73211Y435669D02*
X63381Y433489D01*
X63381Y433489D01*
X73211Y435669D02*
X71031Y425839D01*
X73211Y435669D02*
X63381Y433489D01*
X64770Y427228D01*
X71031Y425839D02*
X73211Y435669D01*
X71031Y425839D02*
X71031Y425839D01*
X73211Y435669D02*
X63381Y433489D01*
X64770Y427228D01*
X71031Y425839D02*
X73211Y435669D01*
X71031Y425839D02*
X64770Y427228D01*
X64770Y462280D02*
X73211Y470721D01*
X73211Y470721D01*
X90170Y487680D01*
X107840Y487680D01*
D21*
X116840Y487680D03*
D19*
X107840Y487680D02*
X107840Y487680D01*
X116840Y487680D01*
D22*
X246380Y487680D03*
D19*
X240380Y487680D01*
X240380Y487680D01*
X222854Y487680D01*
X222854Y381000D02*
X264510Y381000D01*
D22*
X270510Y381000D03*
D19*
X264510Y381000D02*
X264510Y381000D01*
X270510Y381000D01*
X265260Y283210D02*
X222854Y283210D01*
D23*
X270510Y283210D03*
D19*
X265260Y283210D02*
X265260Y283210D01*
X270510Y283210D01*
X264510Y182880D02*
X222854Y182880D01*
D22*
X270510Y182880D03*
D19*
X264510Y182880D02*
X264510Y182880D01*
X270510Y182880D01*
X264510Y87630D02*
X222854Y87630D01*
D22*
X270510Y87630D03*
D19*
X264510Y87630D02*
X264510Y87630D01*
X270510Y87630D01*
X116150Y485285D02*
X107840Y487680D01*
X116150Y485285D02*
X116150Y485285D01*
X116840Y487680D01*
X116150Y490075D02*
X107840Y487680D01*
X240380Y487680D02*
X246009Y486235D01*
X246009Y489125D02*
X240380Y487680D01*
X264510Y381000D02*
X270139Y379555D01*
X270139Y382445D02*
X264510Y381000D01*
X265260Y283210D02*
X270216Y282003D01*
X270216Y284417D02*
X265260Y283210D01*
X264510Y182880D02*
X270139Y181435D01*
X270139Y184325D02*
X264510Y182880D01*
X264510Y87630D02*
X270139Y86185D01*
X270139Y89075D02*
X264510Y87630D01*
X116150Y485285D02*
X107840Y487680D01*
X107840Y487680D01*
X116150Y485285D01*
X116840Y487680D01*
X116150Y490075D02*
X107840Y487680D01*
X116150Y490075D02*
X116150Y490075D01*
X116840Y487680D01*
X116150Y485285D02*
X107840Y487680D01*
X116150Y490075D01*
X116150Y485285D02*
X107840Y487680D01*
X116150Y485285D02*
X116840Y487680D01*
X116150Y490075D02*
X107840Y487680D01*
X116150Y490075D02*
X116840Y487680D01*
X240380Y487680D02*
X240380Y487680D01*
X246009Y486235D01*
X246009Y486235D01*
X246380Y487680D01*
X246009Y489125D02*
X240380Y487680D01*
X246009Y489125D02*
X246009Y489125D01*
X246380Y487680D01*
X246009Y486235D02*
X240380Y487680D01*
X246009Y489125D01*
X246009Y486235D02*
X240380Y487680D01*
X246009Y486235D02*
X246380Y487680D01*
X246009Y489125D02*
X240380Y487680D01*
X246009Y489125D02*
X246380Y487680D01*
X264510Y381000D02*
X264510Y381000D01*
X270139Y379555D01*
X270139Y379555D01*
X270510Y381000D01*
X270139Y382445D02*
X264510Y381000D01*
X270139Y382445D02*
X270139Y382445D01*
X270510Y381000D01*
X270139Y379555D02*
X264510Y381000D01*
X270139Y382445D01*
X270139Y379555D02*
X264510Y381000D01*
X270139Y379555D02*
X270510Y381000D01*
X270139Y382445D02*
X264510Y381000D01*
X270139Y382445D02*
X270510Y381000D01*
X265260Y283210D02*
X265260Y283210D01*
X270216Y282003D01*
X270216Y282003D01*
X270510Y283210D01*
X270216Y284417D02*
X265260Y283210D01*
X270216Y284417D02*
X270216Y284417D01*
X270510Y283210D01*
X270216Y282003D02*
X265260Y283210D01*
X270216Y284417D01*
X270216Y282003D02*
X265260Y283210D01*
X270216Y282003D02*
X270510Y283210D01*
X270216Y284417D02*
X265260Y283210D01*
X270216Y284417D02*
X270510Y283210D01*
X264510Y182880D02*
X264510Y182880D01*
X270139Y181435D01*
X270139Y181435D01*
X270510Y182880D01*
X270139Y184325D02*
X264510Y182880D01*
X270139Y184325D02*
X270139Y184325D01*
X270510Y182880D01*
X270139Y181435D02*
X264510Y182880D01*
X270139Y184325D01*
X270139Y181435D02*
X264510Y182880D01*
X270139Y181435D02*
X270510Y182880D01*
X270139Y184325D02*
X264510Y182880D01*
X270139Y184325D02*
X270510Y182880D01*
X264510Y87630D02*
X264510Y87630D01*
X270139Y86185D01*
X270139Y86185D01*
X270510Y87630D01*
X270139Y89075D02*
X264510Y87630D01*
X270139Y89075D02*
X270139Y89075D01*
X270510Y87630D01*
X270139Y86185D02*
X264510Y87630D01*
X270139Y89075D01*
X270139Y86185D02*
X264510Y87630D01*
X270139Y86185D02*
X270510Y87630D01*
X270139Y89075D02*
X264510Y87630D01*
X270139Y89075D02*
X270510Y87630D01*
X73211Y470721D02*
X63381Y468541D01*
X63381Y468541D01*
X73211Y470721D02*
X71031Y460891D01*
X73211Y470721D02*
X63381Y468541D01*
X64770Y462280D01*
X71031Y460891D02*
X73211Y470721D01*
X71031Y460891D02*
X71031Y460891D01*
X73211Y470721D02*
X63381Y468541D01*
X64770Y462280D01*
X71031Y460891D02*
X73211Y470721D01*
X71031Y460891D02*
X64770Y462280D01*
X81280Y386080D02*
X64770Y369570D01*
X81280Y386080D02*
X101600Y386080D01*
X111760Y396240D01*
X111760Y453390D01*
X120650Y462280D01*
X173386Y462280D01*
X64770Y369570D02*
X64770Y358648D01*
X64770Y346710D01*
X59361Y350156D02*
X64770Y358648D01*
X59361Y350156D02*
X64770Y346710D01*
X70179Y350156D02*
X64770Y358648D01*
X70179Y350156D02*
X64770Y346710D01*
X110998Y311658D02*
X154940Y355600D01*
X173386Y355600D01*
X110998Y311658D02*
X76708Y311658D01*
X64770Y311658D01*
X68216Y317067D02*
X76708Y311658D01*
X68216Y317067D02*
X64770Y311658D01*
X68216Y306249D02*
X76708Y311658D01*
X68216Y306249D02*
X64770Y311658D01*
X222854Y393700D02*
X222860Y393706D01*
D24*
X246380Y393700D03*
D19*
X238130Y393700D01*
X238130Y393700D01*
X222866Y393700D01*
X222860Y393706D01*
X222866Y415284D02*
X222860Y415290D01*
X222866Y415284D02*
X222866Y393700D01*
X245771Y391542D02*
X245771Y391542D01*
X246380Y393700D01*
X245771Y391542D02*
X238130Y393700D01*
X245771Y395858D01*
X245771Y395858D01*
X246380Y393700D01*
X238130Y393700D02*
X238130Y393700D01*
X245771Y391542D01*
X245771Y391542D01*
X245771Y391542D01*
X246380Y393700D01*
X245771Y395858D02*
X238130Y393700D01*
X245771Y391542D01*
X246380Y393700D01*
X245771Y395858D02*
X238130Y393700D01*
X245771Y395858D02*
X245771Y395858D01*
X246380Y393700D01*
X245771Y391542D02*
X238130Y393700D01*
X245771Y391542D02*
X246380Y393700D01*
X245771Y395858D02*
X238130Y393700D01*
X245771Y395858D02*
X246380Y393700D01*
X172996Y393310D02*
X140970Y393310D01*
X172996Y393310D02*
X173386Y393700D01*
X222854Y120644D02*
X222854Y100330D01*
X222854Y120644D02*
X225400Y123190D01*
D24*
X246380Y100330D03*
D19*
X238130Y100330D01*
X238130Y100330D01*
X222854Y100330D01*
X245771Y98172D02*
X245771Y98172D01*
X246380Y100330D01*
X245771Y98172D02*
X238130Y100330D01*
X245771Y102488D01*
X245771Y102488D01*
X246380Y100330D01*
X238130Y100330D02*
X238130Y100330D01*
X245771Y98172D01*
X245771Y98172D01*
X245771Y98172D01*
X246380Y100330D01*
X245771Y102488D02*
X238130Y100330D01*
X245771Y98172D01*
X246380Y100330D01*
X245771Y102488D02*
X238130Y100330D01*
X245771Y102488D02*
X245771Y102488D01*
X246380Y100330D01*
X245771Y98172D02*
X238130Y100330D01*
X245771Y98172D02*
X246380Y100330D01*
X245771Y102488D02*
X238130Y100330D01*
X245771Y102488D02*
X246380Y100330D01*
X111760Y74930D02*
X111760Y190500D01*
X111760Y74930D02*
X124460Y62230D01*
X173386Y62230D01*
X95250Y207010D02*
X76708Y207010D01*
X64770Y207010D01*
X95250Y207010D02*
X111760Y190500D01*
X76708Y207010D02*
X68216Y212419D01*
X64770Y207010D01*
X68216Y201601D02*
X76708Y207010D01*
X68216Y201601D02*
X64770Y207010D01*
X138430Y99940D02*
X172996Y99940D01*
X173386Y100330D01*
X173386Y257810D02*
X120650Y257810D01*
X101600Y276860D02*
X76708Y276860D01*
X64770Y276860D01*
X101600Y276860D02*
X120650Y257810D01*
X76708Y276860D02*
X68216Y282269D01*
X64770Y276860D01*
X68216Y271451D02*
X76708Y276860D01*
X68216Y271451D02*
X64770Y276860D01*
X222854Y295910D02*
X222854Y314954D01*
X225400Y317500D01*
D21*
X246380Y295910D03*
D19*
X237380Y295910D01*
X237380Y295910D01*
X222854Y295910D01*
X237380Y295910D02*
X245690Y293515D01*
X245690Y293515D01*
X246380Y295910D01*
X245690Y298305D02*
X237380Y295910D01*
X245690Y293515D01*
X237380Y295910D02*
X237380Y295910D01*
X245690Y293515D01*
X246380Y295910D01*
X245690Y298305D02*
X237380Y295910D01*
X245690Y298305D02*
X245690Y298305D01*
X246380Y295910D01*
X245690Y293515D02*
X237380Y295910D01*
X245690Y298305D01*
X245690Y293515D02*
X237380Y295910D01*
X245690Y293515D02*
X246380Y295910D01*
X245690Y298305D02*
X237380Y295910D01*
X245690Y298305D02*
X246380Y295910D01*
X222854Y215894D02*
X222854Y195580D01*
X222854Y215894D02*
X225400Y218440D01*
D24*
X246380Y195580D03*
D19*
X238130Y195580D01*
X238130Y195580D01*
X222854Y195580D01*
X245771Y193422D02*
X245771Y193422D01*
X246380Y195580D01*
X245771Y193422D02*
X238130Y195580D01*
X245771Y197738D01*
X245771Y197738D01*
X246380Y195580D01*
X238130Y195580D02*
X238130Y195580D01*
X245771Y193422D01*
X245771Y193422D01*
X245771Y193422D01*
X246380Y195580D01*
X245771Y197738D02*
X238130Y195580D01*
X245771Y193422D01*
X246380Y195580D01*
X245771Y197738D02*
X238130Y195580D01*
X245771Y197738D02*
X245771Y197738D01*
X246380Y195580D01*
X245771Y193422D02*
X238130Y195580D01*
X245771Y193422D02*
X246380Y195580D01*
X245771Y197738D02*
X238130Y195580D01*
X245771Y197738D02*
X246380Y195580D01*
X124460Y167640D02*
X124460Y224790D01*
X124460Y167640D02*
X134620Y157480D01*
X173386Y157480D01*
X107442Y241808D02*
X76708Y241808D01*
X64770Y241808D01*
X107442Y241808D02*
X124460Y224790D01*
X76708Y241808D02*
X68216Y247217D01*
X64770Y241808D01*
X68216Y236399D02*
X76708Y241808D01*
X68216Y236399D02*
X64770Y241808D01*
X140970Y295520D02*
X172996Y295520D01*
X173386Y295910D01*
X172996Y195190D02*
X144780Y195190D01*
X172996Y195190D02*
X173386Y195580D01*
X218340Y549910D02*
X239490Y549910D01*
X218340Y549910D02*
X218050Y550200D01*
M02*
