G04 EAGLE Gerber RS-274X export*
G75*
%MOMM*%
%FSLAX34Y34*%
%LPD*%
%INBottom Copper*%
%IPPOS*%
%AMOC8*
5,1,8,0,0,1.08239X$1,22.5*%
G01*
%ADD10C,1.790700*%
%ADD11C,1.270000*%
%ADD12C,1.006400*%
%ADD13C,0.806400*%
%ADD14C,0.508000*%
%ADD15C,0.756400*%
%ADD16C,0.956400*%

G36*
X451798Y10164D02*
X451798Y10164D01*
X451817Y10162D01*
X451919Y10184D01*
X452021Y10200D01*
X452038Y10210D01*
X452058Y10214D01*
X452147Y10267D01*
X452238Y10316D01*
X452252Y10330D01*
X452269Y10340D01*
X452336Y10419D01*
X452408Y10494D01*
X452416Y10512D01*
X452429Y10527D01*
X452468Y10623D01*
X452511Y10717D01*
X452513Y10737D01*
X452521Y10755D01*
X452539Y10922D01*
X452539Y689078D01*
X452536Y689098D01*
X452538Y689117D01*
X452516Y689219D01*
X452500Y689321D01*
X452490Y689338D01*
X452486Y689358D01*
X452433Y689447D01*
X452384Y689538D01*
X452370Y689552D01*
X452360Y689569D01*
X452281Y689636D01*
X452206Y689708D01*
X452188Y689716D01*
X452173Y689729D01*
X452077Y689768D01*
X451983Y689811D01*
X451963Y689813D01*
X451945Y689821D01*
X451778Y689839D01*
X10922Y689839D01*
X10902Y689836D01*
X10883Y689838D01*
X10781Y689816D01*
X10679Y689800D01*
X10662Y689790D01*
X10642Y689786D01*
X10553Y689733D01*
X10462Y689684D01*
X10448Y689670D01*
X10431Y689660D01*
X10364Y689581D01*
X10292Y689506D01*
X10284Y689488D01*
X10271Y689473D01*
X10232Y689377D01*
X10189Y689283D01*
X10187Y689263D01*
X10179Y689245D01*
X10161Y689078D01*
X10161Y10922D01*
X10164Y10902D01*
X10162Y10883D01*
X10184Y10781D01*
X10200Y10679D01*
X10210Y10662D01*
X10214Y10642D01*
X10267Y10553D01*
X10316Y10462D01*
X10330Y10448D01*
X10340Y10431D01*
X10419Y10364D01*
X10494Y10292D01*
X10512Y10284D01*
X10527Y10271D01*
X10623Y10232D01*
X10717Y10189D01*
X10737Y10187D01*
X10755Y10179D01*
X10922Y10161D01*
X451778Y10161D01*
X451798Y10164D01*
G37*
%LPC*%
G36*
X245322Y65793D02*
X245322Y65793D01*
X245310Y65794D01*
X245299Y65799D01*
X245132Y65817D01*
X244567Y65817D01*
X243539Y66243D01*
X243507Y66251D01*
X243437Y66277D01*
X239510Y67285D01*
X239499Y67286D01*
X239488Y67291D01*
X239321Y67309D01*
X238713Y67309D01*
X163584Y67309D01*
X160783Y68469D01*
X117237Y112015D01*
X116077Y114816D01*
X116077Y364828D01*
X116063Y364918D01*
X116055Y365009D01*
X116043Y365039D01*
X116038Y365071D01*
X115995Y365152D01*
X115959Y365235D01*
X115933Y365268D01*
X115922Y365288D01*
X115899Y365310D01*
X115854Y365366D01*
X69550Y411671D01*
X69543Y411675D01*
X69538Y411682D01*
X69443Y411748D01*
X69350Y411814D01*
X69342Y411817D01*
X69335Y411821D01*
X69177Y411875D01*
X68244Y412082D01*
X64812Y412843D01*
X64812Y412844D01*
X64811Y412844D01*
X63316Y413175D01*
X63315Y413175D01*
X63314Y413176D01*
X63310Y413176D01*
X63149Y413194D01*
X61978Y413194D01*
X60595Y413767D01*
X60565Y413774D01*
X60466Y413807D01*
X60460Y413809D01*
X60252Y413855D01*
X60130Y413940D01*
X60127Y413941D01*
X59985Y414020D01*
X56820Y415330D01*
X52872Y419278D01*
X50736Y424436D01*
X50736Y430020D01*
X52872Y435178D01*
X56820Y439126D01*
X61978Y441262D01*
X67562Y441262D01*
X72720Y439126D01*
X76668Y435178D01*
X77978Y432013D01*
X77981Y432010D01*
X78058Y431868D01*
X78143Y431746D01*
X78191Y431530D01*
X78203Y431501D01*
X78231Y431403D01*
X78804Y430020D01*
X78804Y428849D01*
X78805Y428845D01*
X78807Y428824D01*
X78805Y428809D01*
X78812Y428778D01*
X78822Y428684D01*
X80123Y422821D01*
X80126Y422814D01*
X80126Y422805D01*
X80171Y422700D01*
X80214Y422593D01*
X80219Y422587D01*
X80223Y422579D01*
X80327Y422448D01*
X107920Y394856D01*
X107978Y394814D01*
X108030Y394764D01*
X108077Y394742D01*
X108119Y394712D01*
X108188Y394691D01*
X108253Y394661D01*
X108305Y394655D01*
X108355Y394640D01*
X108426Y394642D01*
X108497Y394634D01*
X108548Y394645D01*
X108600Y394646D01*
X108668Y394671D01*
X108738Y394686D01*
X108783Y394713D01*
X108831Y394730D01*
X108887Y394775D01*
X108949Y394812D01*
X108983Y394852D01*
X109023Y394884D01*
X109062Y394944D01*
X109109Y394999D01*
X109128Y395047D01*
X109156Y395091D01*
X109174Y395161D01*
X109201Y395227D01*
X109209Y395298D01*
X109217Y395330D01*
X109215Y395353D01*
X109219Y395394D01*
X109219Y477013D01*
X109219Y477496D01*
X109216Y477519D01*
X109218Y477542D01*
X109189Y477707D01*
X108163Y481271D01*
X107292Y484294D01*
X107279Y484320D01*
X107263Y484374D01*
X106727Y485668D01*
X106727Y486144D01*
X106724Y486167D01*
X106726Y486190D01*
X106702Y486329D01*
X106722Y486510D01*
X106721Y486539D01*
X106727Y486596D01*
X106727Y489692D01*
X108267Y493408D01*
X111112Y496253D01*
X114828Y497793D01*
X117925Y497793D01*
X117953Y497797D01*
X118010Y497798D01*
X118192Y497818D01*
X118209Y497811D01*
X118376Y497793D01*
X118852Y497793D01*
X120146Y497257D01*
X120174Y497250D01*
X120227Y497228D01*
X120309Y497204D01*
X120310Y497204D01*
X126813Y495330D01*
X126836Y495328D01*
X126857Y495319D01*
X127024Y495301D01*
X234972Y495301D01*
X235017Y495308D01*
X235063Y495306D01*
X235138Y495328D01*
X235215Y495340D01*
X235255Y495362D01*
X235299Y495375D01*
X235363Y495419D01*
X235432Y495456D01*
X235464Y495489D01*
X235502Y495515D01*
X235548Y495578D01*
X235602Y495634D01*
X235621Y495676D01*
X235648Y495712D01*
X235672Y495786D01*
X235705Y495857D01*
X235710Y495903D01*
X235724Y495946D01*
X235724Y496024D01*
X235732Y496101D01*
X235723Y496146D01*
X235722Y496192D01*
X235684Y496324D01*
X235680Y496342D01*
X235677Y496346D01*
X235675Y496353D01*
X234949Y498106D01*
X234949Y502654D01*
X236690Y506855D01*
X239905Y510070D01*
X244106Y511811D01*
X312154Y511811D01*
X316355Y510070D01*
X338620Y487805D01*
X340361Y483604D01*
X340361Y393162D01*
X340375Y393072D01*
X340383Y392981D01*
X340395Y392951D01*
X340400Y392919D01*
X340443Y392839D01*
X340479Y392755D01*
X340505Y392723D01*
X340516Y392702D01*
X340539Y392680D01*
X340584Y392624D01*
X396706Y336501D01*
X396707Y336501D01*
X397469Y335738D01*
X397470Y335738D01*
X397471Y335737D01*
X397600Y335633D01*
X405218Y330798D01*
X405247Y330786D01*
X405335Y330737D01*
X406730Y330160D01*
X407548Y329341D01*
X407549Y329341D01*
X407549Y329340D01*
X407550Y329340D01*
X407679Y329236D01*
X408220Y328893D01*
X408623Y328319D01*
X408711Y328195D01*
X408733Y328172D01*
X408795Y328094D01*
X410678Y326212D01*
X412814Y321054D01*
X412814Y315470D01*
X410678Y310312D01*
X406730Y306364D01*
X401572Y304228D01*
X395975Y304228D01*
X395911Y304243D01*
X395818Y304271D01*
X395792Y304271D01*
X395767Y304277D01*
X395670Y304267D01*
X395573Y304265D01*
X395548Y304256D01*
X395522Y304253D01*
X395433Y304214D01*
X395342Y304180D01*
X395321Y304164D01*
X395297Y304154D01*
X395226Y304088D01*
X395150Y304027D01*
X395135Y304005D01*
X395116Y303987D01*
X395069Y303902D01*
X395017Y303820D01*
X395010Y303794D01*
X394998Y303772D01*
X394980Y303676D01*
X394956Y303581D01*
X394958Y303555D01*
X394954Y303530D01*
X394968Y303433D01*
X394976Y303336D01*
X394986Y303312D01*
X394990Y303286D01*
X395034Y303199D01*
X395072Y303110D01*
X395092Y303084D01*
X395101Y303067D01*
X395125Y303044D01*
X395177Y302979D01*
X396706Y301449D01*
X397469Y300686D01*
X397470Y300686D01*
X397471Y300685D01*
X397600Y300581D01*
X405218Y295746D01*
X405224Y295744D01*
X405228Y295740D01*
X405257Y295728D01*
X405335Y295685D01*
X406730Y295108D01*
X407549Y294288D01*
X407550Y294288D01*
X407679Y294184D01*
X408220Y293841D01*
X408623Y293267D01*
X408711Y293143D01*
X408733Y293120D01*
X408795Y293042D01*
X410678Y291160D01*
X412814Y286002D01*
X412814Y280418D01*
X410678Y275260D01*
X406730Y271312D01*
X401572Y269176D01*
X396020Y269176D01*
X395949Y269164D01*
X395877Y269162D01*
X395828Y269144D01*
X395777Y269136D01*
X395714Y269103D01*
X395646Y269078D01*
X395605Y269045D01*
X395559Y269021D01*
X395510Y268969D01*
X395454Y268924D01*
X395426Y268880D01*
X395390Y268843D01*
X395360Y268778D01*
X395321Y268717D01*
X395308Y268667D01*
X395286Y268620D01*
X395278Y268548D01*
X395261Y268479D01*
X395265Y268427D01*
X395259Y268375D01*
X395275Y268305D01*
X395280Y268234D01*
X395300Y268186D01*
X395312Y268135D01*
X395348Y268073D01*
X395376Y268007D01*
X395421Y267951D01*
X395438Y267924D01*
X395456Y267908D01*
X395481Y267876D01*
X396706Y266651D01*
X396707Y266651D01*
X397469Y265888D01*
X397470Y265888D01*
X397471Y265887D01*
X397600Y265783D01*
X405218Y260948D01*
X405247Y260936D01*
X405335Y260887D01*
X406730Y260310D01*
X407548Y259491D01*
X407549Y259491D01*
X407549Y259490D01*
X407550Y259490D01*
X407679Y259386D01*
X408220Y259043D01*
X408623Y258469D01*
X408711Y258345D01*
X408733Y258322D01*
X408795Y258244D01*
X410678Y256362D01*
X412814Y251204D01*
X412814Y245620D01*
X410678Y240462D01*
X406730Y236514D01*
X401572Y234378D01*
X395988Y234378D01*
X390830Y236514D01*
X388948Y238397D01*
X388922Y238415D01*
X388847Y238481D01*
X388149Y238972D01*
X387806Y239513D01*
X387805Y239514D01*
X387701Y239643D01*
X386882Y240462D01*
X386305Y241857D01*
X386288Y241884D01*
X386244Y241974D01*
X381409Y249592D01*
X381408Y249593D01*
X381349Y249666D01*
X381338Y249684D01*
X381327Y249694D01*
X381304Y249722D01*
X380541Y250485D01*
X380541Y250486D01*
X346770Y284256D01*
X346696Y284309D01*
X346627Y284369D01*
X346597Y284381D01*
X346570Y284400D01*
X346484Y284427D01*
X346399Y284461D01*
X346358Y284465D01*
X346335Y284472D01*
X346303Y284471D01*
X346232Y284479D01*
X280134Y284479D01*
X280114Y284476D01*
X280095Y284478D01*
X279993Y284456D01*
X279891Y284440D01*
X279874Y284430D01*
X279854Y284426D01*
X279765Y284373D01*
X279674Y284324D01*
X279660Y284310D01*
X279643Y284300D01*
X279576Y284221D01*
X279504Y284146D01*
X279496Y284128D01*
X279483Y284113D01*
X279444Y284017D01*
X279401Y283923D01*
X279399Y283903D01*
X279391Y283885D01*
X279373Y283718D01*
X279373Y283335D01*
X279378Y283302D01*
X279382Y283218D01*
X279407Y283055D01*
X279480Y282586D01*
X279394Y282235D01*
X279394Y282228D01*
X279391Y282222D01*
X279373Y282055D01*
X279373Y281447D01*
X278982Y280504D01*
X278974Y280472D01*
X278946Y280393D01*
X278152Y277134D01*
X278152Y277127D01*
X278149Y277121D01*
X278131Y276954D01*
X278131Y230894D01*
X276971Y228093D01*
X263397Y214519D01*
X260596Y213359D01*
X246042Y213359D01*
X245952Y213345D01*
X245861Y213337D01*
X245831Y213325D01*
X245799Y213320D01*
X245718Y213277D01*
X245635Y213241D01*
X245602Y213215D01*
X245582Y213204D01*
X245560Y213181D01*
X245504Y213136D01*
X233904Y201536D01*
X233851Y201462D01*
X233791Y201393D01*
X233779Y201363D01*
X233760Y201337D01*
X233733Y201250D01*
X233699Y201165D01*
X233695Y201124D01*
X233688Y201102D01*
X233689Y201069D01*
X233681Y200998D01*
X233681Y199052D01*
X233695Y198962D01*
X233703Y198871D01*
X233715Y198841D01*
X233720Y198809D01*
X233763Y198728D01*
X233799Y198645D01*
X233825Y198612D01*
X233836Y198592D01*
X233859Y198570D01*
X233904Y198514D01*
X234031Y198387D01*
X234068Y198360D01*
X234099Y198326D01*
X234167Y198288D01*
X234230Y198243D01*
X234274Y198230D01*
X234315Y198207D01*
X234391Y198194D01*
X234466Y198171D01*
X234511Y198172D01*
X234557Y198164D01*
X234634Y198175D01*
X234711Y198177D01*
X234755Y198193D01*
X234800Y198200D01*
X234869Y198235D01*
X234942Y198262D01*
X234978Y198290D01*
X235019Y198311D01*
X235074Y198367D01*
X235134Y198415D01*
X235159Y198454D01*
X235191Y198487D01*
X235257Y198606D01*
X235267Y198622D01*
X235269Y198627D01*
X235272Y198634D01*
X236690Y202055D01*
X239905Y205270D01*
X244106Y207011D01*
X375950Y207011D01*
X376040Y207025D01*
X376131Y207033D01*
X376161Y207045D01*
X376193Y207050D01*
X376273Y207093D01*
X376357Y207129D01*
X376389Y207155D01*
X376410Y207166D01*
X376432Y207189D01*
X376488Y207234D01*
X380541Y211286D01*
X381304Y212050D01*
X381305Y212051D01*
X381409Y212180D01*
X386244Y219798D01*
X386256Y219827D01*
X386305Y219915D01*
X386882Y221310D01*
X387702Y222129D01*
X387702Y222130D01*
X387806Y222259D01*
X388149Y222800D01*
X388847Y223291D01*
X388870Y223313D01*
X388948Y223375D01*
X390830Y225258D01*
X395988Y227394D01*
X401572Y227394D01*
X406730Y225258D01*
X410678Y221310D01*
X412814Y216152D01*
X412814Y210568D01*
X410678Y205410D01*
X408795Y203528D01*
X408777Y203502D01*
X408711Y203427D01*
X408220Y202729D01*
X407679Y202386D01*
X407678Y202385D01*
X407549Y202282D01*
X406730Y201462D01*
X405335Y200885D01*
X405308Y200868D01*
X405218Y200824D01*
X397600Y195989D01*
X397599Y195988D01*
X397470Y195884D01*
X396706Y195121D01*
X395481Y193896D01*
X395439Y193838D01*
X395390Y193786D01*
X395368Y193738D01*
X395338Y193696D01*
X395317Y193628D01*
X395286Y193562D01*
X395281Y193511D01*
X395265Y193461D01*
X395267Y193389D01*
X395259Y193318D01*
X395270Y193267D01*
X395272Y193215D01*
X395296Y193148D01*
X395312Y193078D01*
X395338Y193033D01*
X395356Y192984D01*
X395401Y192928D01*
X395438Y192867D01*
X395477Y192833D01*
X395510Y192792D01*
X395570Y192753D01*
X395625Y192707D01*
X395673Y192687D01*
X395717Y192659D01*
X395786Y192642D01*
X395853Y192615D01*
X395924Y192607D01*
X395955Y192599D01*
X395979Y192601D01*
X396020Y192596D01*
X397147Y192596D01*
X397148Y192596D01*
X397313Y192615D01*
X397938Y192754D01*
X398779Y192608D01*
X398810Y192607D01*
X398909Y192596D01*
X401572Y192596D01*
X406730Y190460D01*
X410678Y186512D01*
X412814Y181354D01*
X412814Y175770D01*
X410678Y170612D01*
X406730Y166664D01*
X401572Y164528D01*
X398910Y164528D01*
X398878Y164523D01*
X398779Y164516D01*
X397938Y164370D01*
X397313Y164509D01*
X397311Y164510D01*
X397147Y164528D01*
X395988Y164528D01*
X394594Y165105D01*
X394563Y165113D01*
X394468Y165145D01*
X385662Y167113D01*
X385661Y167113D01*
X385496Y167131D01*
X329662Y167131D01*
X329572Y167117D01*
X329481Y167109D01*
X329451Y167097D01*
X329419Y167092D01*
X329339Y167049D01*
X329255Y167013D01*
X329223Y166987D01*
X329202Y166976D01*
X329180Y166953D01*
X329124Y166908D01*
X258766Y96550D01*
X258724Y96492D01*
X258675Y96440D01*
X258653Y96393D01*
X258622Y96351D01*
X258601Y96282D01*
X258571Y96217D01*
X258565Y96165D01*
X258550Y96115D01*
X258552Y96044D01*
X258544Y95973D01*
X258555Y95922D01*
X258556Y95870D01*
X258581Y95802D01*
X258596Y95732D01*
X258623Y95687D01*
X258641Y95639D01*
X258686Y95583D01*
X258722Y95521D01*
X258762Y95487D01*
X258794Y95447D01*
X258855Y95408D01*
X258909Y95361D01*
X258957Y95342D01*
X259001Y95314D01*
X259071Y95296D01*
X259137Y95269D01*
X259209Y95261D01*
X259240Y95253D01*
X259263Y95255D01*
X259304Y95251D01*
X263451Y95251D01*
X263463Y95253D01*
X263474Y95251D01*
X263640Y95275D01*
X267567Y96283D01*
X267597Y96296D01*
X267669Y96317D01*
X268697Y96743D01*
X269263Y96743D01*
X269274Y96745D01*
X269286Y96743D01*
X269452Y96767D01*
X269712Y96833D01*
X269853Y96813D01*
X270296Y96750D01*
X270328Y96751D01*
X270403Y96743D01*
X272323Y96743D01*
X275672Y95355D01*
X278235Y92792D01*
X279623Y89443D01*
X279623Y85817D01*
X278235Y82468D01*
X275672Y79905D01*
X272323Y78517D01*
X270403Y78517D01*
X270371Y78512D01*
X270296Y78510D01*
X269853Y78447D01*
X269712Y78427D01*
X269452Y78493D01*
X269440Y78494D01*
X269429Y78499D01*
X269262Y78517D01*
X268697Y78517D01*
X267669Y78943D01*
X267637Y78951D01*
X267567Y78977D01*
X263640Y79985D01*
X263629Y79986D01*
X263618Y79991D01*
X263451Y80009D01*
X262843Y80009D01*
X255279Y80009D01*
X255234Y80002D01*
X255188Y80004D01*
X255113Y79982D01*
X255036Y79970D01*
X254996Y79948D01*
X254952Y79935D01*
X254888Y79891D01*
X254819Y79854D01*
X254787Y79821D01*
X254750Y79795D01*
X254703Y79732D01*
X254649Y79676D01*
X254630Y79634D01*
X254603Y79598D01*
X254579Y79524D01*
X254546Y79453D01*
X254541Y79407D01*
X254527Y79364D01*
X254527Y79286D01*
X254519Y79209D01*
X254528Y79164D01*
X254529Y79118D01*
X254567Y78986D01*
X254571Y78968D01*
X254574Y78964D01*
X254576Y78957D01*
X255493Y76743D01*
X255493Y73117D01*
X254105Y69768D01*
X251542Y67205D01*
X248193Y65817D01*
X246273Y65817D01*
X246241Y65812D01*
X246166Y65810D01*
X245723Y65747D01*
X245582Y65727D01*
X245322Y65793D01*
G37*
%LPD*%
%LPC*%
G36*
X406848Y624839D02*
X406848Y624839D01*
X400448Y626554D01*
X394711Y629866D01*
X390026Y634551D01*
X386714Y640288D01*
X384999Y646688D01*
X384999Y653312D01*
X386714Y659712D01*
X390026Y665449D01*
X394711Y670134D01*
X400448Y673446D01*
X406848Y675161D01*
X413472Y675161D01*
X419872Y673446D01*
X425609Y670134D01*
X430294Y665449D01*
X433606Y659712D01*
X435321Y653312D01*
X435321Y646688D01*
X433606Y640288D01*
X430294Y634551D01*
X425609Y629866D01*
X419872Y626554D01*
X413472Y624839D01*
X406848Y624839D01*
G37*
%LPD*%
%LPC*%
G36*
X46688Y624839D02*
X46688Y624839D01*
X40288Y626554D01*
X34551Y629866D01*
X29866Y634551D01*
X26554Y640288D01*
X24839Y646688D01*
X24839Y653312D01*
X26554Y659712D01*
X29866Y665449D01*
X34551Y670134D01*
X40288Y673446D01*
X46688Y675161D01*
X53312Y675161D01*
X59712Y673446D01*
X65449Y670134D01*
X70134Y665449D01*
X73446Y659712D01*
X75161Y653312D01*
X75161Y646688D01*
X73446Y640288D01*
X70134Y634551D01*
X65449Y629866D01*
X59712Y626554D01*
X53312Y624839D01*
X46688Y624839D01*
G37*
%LPD*%
%LPC*%
G36*
X406848Y24839D02*
X406848Y24839D01*
X400448Y26554D01*
X394711Y29866D01*
X390026Y34551D01*
X386714Y40288D01*
X384999Y46688D01*
X384999Y53312D01*
X386714Y59712D01*
X390026Y65449D01*
X394711Y70134D01*
X400448Y73446D01*
X406848Y75161D01*
X413472Y75161D01*
X419872Y73446D01*
X425609Y70134D01*
X430294Y65449D01*
X433606Y59712D01*
X435321Y53312D01*
X435321Y46688D01*
X433606Y40288D01*
X430294Y34551D01*
X425609Y29866D01*
X419872Y26554D01*
X413472Y24839D01*
X406848Y24839D01*
G37*
%LPD*%
%LPC*%
G36*
X46688Y24839D02*
X46688Y24839D01*
X40288Y26554D01*
X34551Y29866D01*
X29866Y34551D01*
X26554Y40288D01*
X24839Y46688D01*
X24839Y53312D01*
X26554Y59712D01*
X29866Y65449D01*
X34551Y70134D01*
X40288Y73446D01*
X46688Y75161D01*
X53312Y75161D01*
X59712Y73446D01*
X65449Y70134D01*
X70134Y65449D01*
X73446Y59712D01*
X75161Y53312D01*
X75161Y46688D01*
X73446Y40288D01*
X70134Y34551D01*
X65449Y29866D01*
X59712Y26554D01*
X53312Y24839D01*
X46688Y24839D01*
G37*
%LPD*%
%LPC*%
G36*
X241048Y619406D02*
X241048Y619406D01*
X235890Y621542D01*
X231942Y625490D01*
X229806Y630648D01*
X229806Y636232D01*
X231942Y641390D01*
X235890Y645338D01*
X241048Y647474D01*
X246632Y647474D01*
X251790Y645338D01*
X255738Y641390D01*
X257874Y636232D01*
X257874Y630648D01*
X255738Y625490D01*
X251790Y621542D01*
X246632Y619406D01*
X241048Y619406D01*
G37*
%LPD*%
%LPC*%
G36*
X395988Y555688D02*
X395988Y555688D01*
X390830Y557824D01*
X386882Y561772D01*
X384746Y566930D01*
X384746Y572514D01*
X386882Y577672D01*
X390830Y581620D01*
X395988Y583756D01*
X401572Y583756D01*
X406730Y581620D01*
X410678Y577672D01*
X412814Y572514D01*
X412814Y566930D01*
X410678Y561772D01*
X406730Y557824D01*
X401572Y555688D01*
X395988Y555688D01*
G37*
%LPD*%
%LPC*%
G36*
X395988Y520636D02*
X395988Y520636D01*
X390830Y522772D01*
X386882Y526720D01*
X384746Y531878D01*
X384746Y537462D01*
X386882Y542620D01*
X390830Y546568D01*
X395988Y548704D01*
X401572Y548704D01*
X406730Y546568D01*
X410678Y542620D01*
X412814Y537462D01*
X412814Y531878D01*
X410678Y526720D01*
X406730Y522772D01*
X401572Y520636D01*
X395988Y520636D01*
G37*
%LPD*%
%LPC*%
G36*
X395988Y485838D02*
X395988Y485838D01*
X390830Y487974D01*
X386882Y491922D01*
X384746Y497080D01*
X384746Y502664D01*
X386882Y507822D01*
X390830Y511770D01*
X395988Y513906D01*
X401572Y513906D01*
X406730Y511770D01*
X410678Y507822D01*
X412814Y502664D01*
X412814Y497080D01*
X410678Y491922D01*
X406730Y487974D01*
X401572Y485838D01*
X395988Y485838D01*
G37*
%LPD*%
%LPC*%
G36*
X395988Y450786D02*
X395988Y450786D01*
X390830Y452922D01*
X386882Y456870D01*
X384746Y462028D01*
X384746Y467612D01*
X386882Y472770D01*
X390830Y476718D01*
X395988Y478854D01*
X401572Y478854D01*
X406730Y476718D01*
X410678Y472770D01*
X412814Y467612D01*
X412814Y462028D01*
X410678Y456870D01*
X406730Y452922D01*
X401572Y450786D01*
X395988Y450786D01*
G37*
%LPD*%
%LPC*%
G36*
X61978Y448246D02*
X61978Y448246D01*
X56820Y450382D01*
X52872Y454330D01*
X50736Y459488D01*
X50736Y465072D01*
X52872Y470230D01*
X56820Y474178D01*
X61978Y476314D01*
X67562Y476314D01*
X72720Y474178D01*
X76668Y470230D01*
X78804Y465072D01*
X78804Y459488D01*
X76668Y454330D01*
X72720Y450382D01*
X67562Y448246D01*
X61978Y448246D01*
G37*
%LPD*%
%LPC*%
G36*
X395988Y415988D02*
X395988Y415988D01*
X390830Y418124D01*
X386882Y422072D01*
X384746Y427230D01*
X384746Y432814D01*
X386882Y437972D01*
X390830Y441920D01*
X395988Y444056D01*
X401572Y444056D01*
X406730Y441920D01*
X410678Y437972D01*
X412814Y432814D01*
X412814Y427230D01*
X410678Y422072D01*
X406730Y418124D01*
X401572Y415988D01*
X395988Y415988D01*
G37*
%LPD*%
%LPC*%
G36*
X395988Y380936D02*
X395988Y380936D01*
X390830Y383072D01*
X386882Y387020D01*
X384746Y392178D01*
X384746Y397762D01*
X386882Y402920D01*
X390830Y406868D01*
X395988Y409004D01*
X401572Y409004D01*
X406730Y406868D01*
X410678Y402920D01*
X412814Y397762D01*
X412814Y392178D01*
X410678Y387020D01*
X406730Y383072D01*
X401572Y380936D01*
X395988Y380936D01*
G37*
%LPD*%
%LPC*%
G36*
X61978Y332676D02*
X61978Y332676D01*
X56820Y334812D01*
X52872Y338760D01*
X50736Y343918D01*
X50736Y349502D01*
X52872Y354660D01*
X56820Y358608D01*
X61978Y360744D01*
X67562Y360744D01*
X72720Y358608D01*
X76668Y354660D01*
X78804Y349502D01*
X78804Y343918D01*
X76668Y338760D01*
X72720Y334812D01*
X67562Y332676D01*
X61978Y332676D01*
G37*
%LPD*%
%LPC*%
G36*
X61978Y297624D02*
X61978Y297624D01*
X56820Y299760D01*
X52872Y303708D01*
X50736Y308866D01*
X50736Y314450D01*
X52872Y319608D01*
X56820Y323556D01*
X61978Y325692D01*
X67562Y325692D01*
X72720Y323556D01*
X76668Y319608D01*
X78804Y314450D01*
X78804Y308866D01*
X76668Y303708D01*
X72720Y299760D01*
X67562Y297624D01*
X61978Y297624D01*
G37*
%LPD*%
%LPC*%
G36*
X61978Y262826D02*
X61978Y262826D01*
X56820Y264962D01*
X52872Y268910D01*
X50736Y274068D01*
X50736Y279652D01*
X52872Y284810D01*
X56820Y288758D01*
X61978Y290894D01*
X67562Y290894D01*
X72720Y288758D01*
X76668Y284810D01*
X78804Y279652D01*
X78804Y274068D01*
X76668Y268910D01*
X72720Y264962D01*
X67562Y262826D01*
X61978Y262826D01*
G37*
%LPD*%
%LPC*%
G36*
X61978Y227774D02*
X61978Y227774D01*
X56820Y229910D01*
X52872Y233858D01*
X50736Y239016D01*
X50736Y244600D01*
X52872Y249758D01*
X56820Y253706D01*
X61978Y255842D01*
X67562Y255842D01*
X72720Y253706D01*
X76668Y249758D01*
X78804Y244600D01*
X78804Y239016D01*
X76668Y233858D01*
X72720Y229910D01*
X67562Y227774D01*
X61978Y227774D01*
G37*
%LPD*%
%LPC*%
G36*
X61978Y192976D02*
X61978Y192976D01*
X56820Y195112D01*
X52872Y199060D01*
X50736Y204218D01*
X50736Y209802D01*
X52872Y214960D01*
X56820Y218908D01*
X61978Y221044D01*
X67562Y221044D01*
X72720Y218908D01*
X76668Y214960D01*
X78804Y209802D01*
X78804Y204218D01*
X76668Y199060D01*
X72720Y195112D01*
X67562Y192976D01*
X61978Y192976D01*
G37*
%LPD*%
%LPC*%
G36*
X61978Y157924D02*
X61978Y157924D01*
X56820Y160060D01*
X52872Y164008D01*
X50736Y169166D01*
X50736Y174750D01*
X52872Y179908D01*
X56820Y183856D01*
X61978Y185992D01*
X67562Y185992D01*
X72720Y183856D01*
X76668Y179908D01*
X78804Y174750D01*
X78804Y169166D01*
X76668Y164008D01*
X72720Y160060D01*
X67562Y157924D01*
X61978Y157924D01*
G37*
%LPD*%
%LPC*%
G36*
X395988Y129476D02*
X395988Y129476D01*
X390830Y131612D01*
X386882Y135560D01*
X384746Y140718D01*
X384746Y146302D01*
X386882Y151460D01*
X390830Y155408D01*
X395988Y157544D01*
X401572Y157544D01*
X406730Y155408D01*
X410678Y151460D01*
X412814Y146302D01*
X412814Y140718D01*
X410678Y135560D01*
X406730Y131612D01*
X401572Y129476D01*
X395988Y129476D01*
G37*
%LPD*%
%LPC*%
G36*
X210311Y634963D02*
X210311Y634963D01*
X210311Y644836D01*
X211480Y644651D01*
X213200Y644092D01*
X214812Y643271D01*
X216276Y642207D01*
X217555Y640928D01*
X218619Y639464D01*
X219440Y637852D01*
X219999Y636132D01*
X220184Y634963D01*
X210311Y634963D01*
G37*
%LPD*%
%LPC*%
G36*
X197392Y634963D02*
X197392Y634963D01*
X197577Y636132D01*
X198136Y637852D01*
X198957Y639464D01*
X200021Y640928D01*
X201300Y642207D01*
X202764Y643271D01*
X204376Y644092D01*
X206096Y644651D01*
X207265Y644836D01*
X207265Y634963D01*
X197392Y634963D01*
G37*
%LPD*%
%LPC*%
G36*
X210311Y631917D02*
X210311Y631917D01*
X220184Y631917D01*
X219999Y630748D01*
X219440Y629028D01*
X218619Y627416D01*
X217555Y625952D01*
X216276Y624673D01*
X214812Y623609D01*
X213200Y622788D01*
X211480Y622229D01*
X210311Y622044D01*
X210311Y631917D01*
G37*
%LPD*%
%LPC*%
G36*
X206096Y622229D02*
X206096Y622229D01*
X204376Y622788D01*
X202764Y623609D01*
X201300Y624673D01*
X200021Y625952D01*
X198957Y627416D01*
X198136Y629028D01*
X197577Y630748D01*
X197392Y631917D01*
X207265Y631917D01*
X207265Y622044D01*
X206096Y622229D01*
G37*
%LPD*%
%LPC*%
G36*
X208787Y633439D02*
X208787Y633439D01*
X208787Y633441D01*
X208789Y633441D01*
X208789Y633439D01*
X208787Y633439D01*
G37*
%LPD*%
D10*
X64770Y462280D03*
X64770Y427228D03*
X64770Y346710D03*
X64770Y311658D03*
X64770Y276860D03*
X64770Y241808D03*
X398780Y213360D03*
X398780Y248412D03*
X398780Y283210D03*
X398780Y318262D03*
X398780Y394970D03*
X398780Y430022D03*
X398780Y464820D03*
X398780Y499872D03*
X398780Y534670D03*
X398780Y569722D03*
X243840Y633440D03*
X208788Y633440D03*
X64770Y207010D03*
X64770Y171958D03*
X398780Y143510D03*
X398780Y178562D03*
D11*
X398780Y318262D02*
X397002Y320040D01*
X328930Y481330D02*
X309880Y500380D01*
X246380Y500380D01*
D12*
X246380Y500380D03*
D11*
X328930Y481330D02*
X328930Y388112D01*
X390339Y326703D01*
X398780Y318262D01*
X396582Y316867D02*
X390339Y326703D01*
X396582Y316867D02*
X398780Y318262D01*
X400175Y320460D02*
X390339Y326703D01*
X400175Y320460D02*
X398780Y318262D01*
D13*
X246380Y474980D03*
D12*
X127000Y474980D03*
D14*
X136000Y474980D01*
X136000Y474980D01*
X240380Y474980D01*
X240380Y474980D01*
X246380Y474980D01*
D13*
X246380Y368300D03*
D14*
X123698Y368300D02*
X73211Y418787D01*
X73211Y418787D01*
X64770Y427228D01*
X240380Y368300D02*
X246380Y368300D01*
X240380Y368300D02*
X240380Y368300D01*
X123698Y368300D01*
D15*
X246380Y270510D03*
D14*
X241130Y270510D01*
X241130Y270510D01*
X125730Y270510D01*
X123698Y272542D01*
X123698Y368300D01*
D13*
X246380Y170180D03*
D14*
X240380Y170180D01*
X240380Y170180D01*
X123698Y170180D01*
X123698Y272542D01*
D13*
X246380Y74930D03*
D14*
X240380Y74930D01*
X240380Y74930D01*
X165100Y74930D01*
X123698Y116332D02*
X123698Y170180D01*
X123698Y116332D02*
X165100Y74930D01*
X246009Y473535D02*
X240380Y474980D01*
X246009Y476425D01*
X136000Y474980D02*
X127690Y477375D01*
X127690Y472585D02*
X136000Y474980D01*
X127690Y477375D02*
X127690Y477375D01*
X127690Y472585D02*
X127690Y472585D01*
X127000Y474980D01*
X240380Y368300D02*
X246009Y366855D01*
X246009Y369745D02*
X240380Y368300D01*
X241130Y270510D02*
X246086Y269303D01*
X246086Y271717D02*
X241130Y270510D01*
X240380Y170180D02*
X246009Y168735D01*
X246009Y171625D02*
X240380Y170180D01*
X240380Y74930D02*
X246009Y73485D01*
X246009Y76375D02*
X240380Y74930D01*
X240380Y474980D02*
X240380Y474980D01*
X246009Y473535D01*
X246009Y473535D01*
X246380Y474980D01*
X246009Y476425D02*
X240380Y474980D01*
X246009Y476425D02*
X246009Y476425D01*
X246380Y474980D01*
X246009Y473535D02*
X240380Y474980D01*
X246009Y476425D01*
X246009Y473535D02*
X240380Y474980D01*
X246009Y473535D02*
X246380Y474980D01*
X246009Y476425D02*
X240380Y474980D01*
X246009Y476425D02*
X246380Y474980D01*
X136000Y474980D02*
X127690Y477375D01*
X136000Y474980D02*
X136000Y474980D01*
X127690Y472585D01*
X127690Y477375D02*
X136000Y474980D01*
X127690Y477375D02*
X127000Y474980D01*
X127690Y472585D02*
X136000Y474980D01*
X127690Y472585D02*
X127000Y474980D01*
X127690Y477375D02*
X136000Y474980D01*
X127690Y477375D02*
X127000Y474980D01*
X127690Y472585D02*
X136000Y474980D01*
X127690Y472585D02*
X127000Y474980D01*
X240380Y368300D02*
X240380Y368300D01*
X246009Y366855D01*
X246009Y366855D01*
X246380Y368300D01*
X246009Y369745D02*
X240380Y368300D01*
X246009Y369745D02*
X246009Y369745D01*
X246380Y368300D01*
X246009Y366855D02*
X240380Y368300D01*
X246009Y369745D01*
X246009Y366855D02*
X240380Y368300D01*
X246009Y366855D02*
X246380Y368300D01*
X246009Y369745D02*
X240380Y368300D01*
X246009Y369745D02*
X246380Y368300D01*
X241130Y270510D02*
X241130Y270510D01*
X246086Y269303D01*
X246086Y269303D01*
X246380Y270510D01*
X246086Y271717D02*
X241130Y270510D01*
X246086Y271717D02*
X246086Y271717D01*
X246380Y270510D01*
X246086Y269303D02*
X241130Y270510D01*
X246086Y271717D01*
X246086Y269303D02*
X241130Y270510D01*
X246086Y269303D02*
X246380Y270510D01*
X246086Y271717D02*
X241130Y270510D01*
X246086Y271717D02*
X246380Y270510D01*
X240380Y170180D02*
X240380Y170180D01*
X246009Y168735D01*
X246009Y168735D01*
X246380Y170180D01*
X246009Y171625D02*
X240380Y170180D01*
X246009Y171625D02*
X246009Y171625D01*
X246380Y170180D01*
X246009Y168735D02*
X240380Y170180D01*
X246009Y171625D01*
X246009Y168735D02*
X240380Y170180D01*
X246009Y168735D02*
X246380Y170180D01*
X246009Y171625D02*
X240380Y170180D01*
X246009Y171625D02*
X246380Y170180D01*
X240380Y74930D02*
X240380Y74930D01*
X246009Y73485D01*
X246009Y73485D01*
X246380Y74930D01*
X246009Y76375D02*
X240380Y74930D01*
X246009Y76375D02*
X246009Y76375D01*
X246380Y74930D01*
X246009Y73485D02*
X240380Y74930D01*
X246009Y76375D01*
X246009Y73485D02*
X240380Y74930D01*
X246009Y73485D02*
X246380Y74930D01*
X246009Y76375D02*
X240380Y74930D01*
X246009Y76375D02*
X246380Y74930D01*
X73211Y418787D02*
X71031Y428617D01*
X71031Y428617D01*
X73211Y418787D02*
X73211Y418787D01*
X63381Y420967D01*
X73211Y418787D02*
X71031Y428617D01*
X64770Y427228D01*
X63381Y420967D02*
X73211Y418787D01*
X63381Y420967D02*
X63381Y420967D01*
X73211Y418787D02*
X71031Y428617D01*
X64770Y427228D01*
X63381Y420967D02*
X73211Y418787D01*
X63381Y420967D02*
X64770Y427228D01*
D12*
X116840Y487680D03*
D14*
X125840Y487680D01*
D13*
X246380Y487680D03*
D14*
X125840Y487680D02*
X125840Y487680D01*
X240380Y487680D01*
X240380Y487680D01*
X246380Y487680D01*
D13*
X270510Y381000D03*
D15*
X270510Y283210D03*
D14*
X265260Y283210D01*
X265260Y283210D01*
X237490Y283210D01*
X227330Y293370D01*
X227330Y309880D01*
X234950Y317500D01*
X250190Y317500D01*
X270510Y337820D01*
X270510Y375000D01*
X270510Y375000D01*
X270510Y381000D01*
D13*
X270510Y182880D03*
D14*
X264510Y182880D01*
X264510Y182880D01*
X238760Y182880D01*
X226060Y195580D01*
X226060Y204470D01*
X242570Y220980D02*
X259080Y220980D01*
X270510Y232410D01*
X270510Y277960D01*
X270510Y277960D01*
X270510Y283210D01*
X242570Y220980D02*
X226060Y204470D01*
D13*
X270510Y87630D03*
D14*
X264510Y87630D01*
X264510Y87630D01*
X234950Y87630D01*
X226060Y96520D01*
X226060Y109220D01*
X270510Y153670D02*
X270510Y176880D01*
X270510Y176880D01*
X270510Y182880D01*
X270510Y153670D02*
X226060Y109220D01*
X116840Y478680D02*
X116840Y487680D01*
X116840Y478680D02*
X116840Y478680D01*
X116840Y396240D01*
X132080Y381000D01*
X264510Y381000D01*
X264510Y381000D01*
X270510Y381000D01*
X125840Y487680D02*
X117530Y490075D01*
X117530Y485285D02*
X125840Y487680D01*
X117530Y490075D02*
X117530Y490075D01*
X117530Y485285D02*
X117530Y485285D01*
X116840Y487680D01*
X119235Y486990D02*
X116840Y478680D01*
X114445Y486990D01*
X119235Y486990D02*
X119235Y486990D01*
X114445Y486990D02*
X114445Y486990D01*
X116840Y487680D01*
X240380Y487680D02*
X246009Y486235D01*
X246009Y489125D02*
X240380Y487680D01*
X271955Y380629D02*
X270510Y375000D01*
X269065Y380629D01*
X271955Y380629D02*
X271955Y380629D01*
X269065Y380629D02*
X269065Y380629D01*
X270139Y379555D02*
X264510Y381000D01*
X270139Y382445D01*
X265260Y283210D02*
X270216Y282003D01*
X270216Y284417D02*
X265260Y283210D01*
X271717Y282916D02*
X270510Y277960D01*
X269303Y282916D01*
X271717Y282916D02*
X271717Y282916D01*
X269303Y282916D02*
X269303Y282916D01*
X264510Y182880D02*
X270139Y181435D01*
X270139Y184325D02*
X264510Y182880D01*
X271955Y182509D02*
X270510Y176880D01*
X269065Y182509D01*
X271955Y182509D02*
X271955Y182509D01*
X269065Y182509D02*
X269065Y182509D01*
X264510Y87630D02*
X270139Y86185D01*
X270139Y89075D02*
X264510Y87630D01*
X125840Y487680D02*
X117530Y490075D01*
X125840Y487680D02*
X125840Y487680D01*
X117530Y485285D01*
X117530Y490075D02*
X125840Y487680D01*
X117530Y490075D02*
X116840Y487680D01*
X117530Y485285D02*
X125840Y487680D01*
X117530Y485285D02*
X116840Y487680D01*
X117530Y490075D02*
X125840Y487680D01*
X117530Y490075D02*
X116840Y487680D01*
X117530Y485285D02*
X125840Y487680D01*
X117530Y485285D02*
X116840Y487680D01*
X119235Y486990D02*
X116840Y478680D01*
X116840Y478680D01*
X114445Y486990D01*
X119235Y486990D02*
X116840Y478680D01*
X119235Y486990D02*
X116840Y487680D01*
X114445Y486990D02*
X116840Y478680D01*
X114445Y486990D02*
X116840Y487680D01*
X119235Y486990D02*
X116840Y478680D01*
X119235Y486990D02*
X116840Y487680D01*
X114445Y486990D02*
X116840Y478680D01*
X114445Y486990D02*
X116840Y487680D01*
X240380Y487680D02*
X240380Y487680D01*
X246009Y486235D01*
X246009Y486235D01*
X246380Y487680D01*
X246009Y489125D02*
X240380Y487680D01*
X246009Y489125D02*
X246009Y489125D01*
X246380Y487680D01*
X246009Y486235D02*
X240380Y487680D01*
X246009Y489125D01*
X246009Y486235D02*
X240380Y487680D01*
X246009Y486235D02*
X246380Y487680D01*
X246009Y489125D02*
X240380Y487680D01*
X246009Y489125D02*
X246380Y487680D01*
X264510Y381000D02*
X264510Y381000D01*
X271955Y380629D02*
X270510Y375000D01*
X270510Y375000D01*
X269065Y380629D01*
X271955Y380629D02*
X270510Y375000D01*
X271955Y380629D02*
X270510Y381000D01*
X269065Y380629D02*
X270510Y375000D01*
X269065Y380629D02*
X270510Y381000D01*
X271955Y380629D02*
X270510Y375000D01*
X271955Y380629D02*
X270510Y381000D01*
X269065Y380629D02*
X270510Y375000D01*
X269065Y380629D02*
X270510Y381000D01*
X270139Y379555D02*
X264510Y381000D01*
X270139Y379555D02*
X270139Y379555D01*
X270510Y381000D01*
X270139Y382445D02*
X264510Y381000D01*
X270139Y382445D02*
X270139Y382445D01*
X270510Y381000D01*
X270139Y379555D02*
X264510Y381000D01*
X270139Y382445D01*
X270139Y379555D02*
X264510Y381000D01*
X270139Y379555D02*
X270510Y381000D01*
X270139Y382445D02*
X264510Y381000D01*
X270139Y382445D02*
X270510Y381000D01*
X265260Y283210D02*
X265260Y283210D01*
X270216Y282003D01*
X270216Y282003D01*
X270510Y283210D01*
X270216Y284417D02*
X265260Y283210D01*
X270216Y284417D02*
X270216Y284417D01*
X270510Y283210D01*
X270216Y282003D02*
X265260Y283210D01*
X270216Y284417D01*
X270216Y282003D02*
X265260Y283210D01*
X270216Y282003D02*
X270510Y283210D01*
X270216Y284417D02*
X265260Y283210D01*
X270216Y284417D02*
X270510Y283210D01*
X271717Y282916D02*
X270510Y277960D01*
X270510Y277960D01*
X269303Y282916D01*
X271717Y282916D02*
X270510Y277960D01*
X271717Y282916D02*
X270510Y283210D01*
X269303Y282916D02*
X270510Y277960D01*
X269303Y282916D02*
X270510Y283210D01*
X271717Y282916D02*
X270510Y277960D01*
X271717Y282916D02*
X270510Y283210D01*
X269303Y282916D02*
X270510Y277960D01*
X269303Y282916D02*
X270510Y283210D01*
X264510Y182880D02*
X264510Y182880D01*
X270139Y181435D01*
X270139Y181435D01*
X270510Y182880D01*
X270139Y184325D02*
X264510Y182880D01*
X270139Y184325D02*
X270139Y184325D01*
X270510Y182880D01*
X270139Y181435D02*
X264510Y182880D01*
X270139Y184325D01*
X270139Y181435D02*
X264510Y182880D01*
X270139Y181435D02*
X270510Y182880D01*
X270139Y184325D02*
X264510Y182880D01*
X270139Y184325D02*
X270510Y182880D01*
X271955Y182509D02*
X270510Y176880D01*
X270510Y176880D01*
X269065Y182509D01*
X271955Y182509D02*
X270510Y176880D01*
X271955Y182509D02*
X270510Y182880D01*
X269065Y182509D02*
X270510Y176880D01*
X269065Y182509D02*
X270510Y182880D01*
X271955Y182509D02*
X270510Y176880D01*
X271955Y182509D02*
X270510Y182880D01*
X269065Y182509D02*
X270510Y176880D01*
X269065Y182509D02*
X270510Y182880D01*
X264510Y87630D02*
X264510Y87630D01*
X270139Y86185D01*
X270139Y86185D01*
X270510Y87630D01*
X270139Y89075D02*
X264510Y87630D01*
X270139Y89075D02*
X270139Y89075D01*
X270510Y87630D01*
X270139Y86185D02*
X264510Y87630D01*
X270139Y89075D01*
X270139Y86185D02*
X264510Y87630D01*
X270139Y86185D02*
X270510Y87630D01*
X270139Y89075D02*
X264510Y87630D01*
X270139Y89075D02*
X270510Y87630D01*
D16*
X246380Y393700D03*
D11*
X288290Y393700D02*
X390339Y291651D01*
X398780Y283210D01*
X288290Y393700D02*
X246380Y393700D01*
X390339Y291651D02*
X396582Y281815D01*
X398780Y283210D01*
X400175Y285408D02*
X390339Y291651D01*
X400175Y285408D02*
X398780Y283210D01*
X324612Y178562D02*
X246380Y100330D01*
D16*
X246380Y100330D03*
D11*
X324612Y178562D02*
X386842Y178562D01*
X398780Y178562D01*
X398212Y176021D02*
X386842Y178562D01*
X398212Y176021D02*
X398780Y178562D01*
X398212Y181103D02*
X386842Y178562D01*
X398212Y181103D02*
X398780Y178562D01*
D12*
X246380Y295910D03*
D11*
X351282Y295910D01*
X390339Y256853D01*
X398780Y248412D01*
X396582Y247017D02*
X390339Y256853D01*
X396582Y247017D02*
X398780Y248412D01*
X400175Y250610D02*
X390339Y256853D01*
X400175Y250610D02*
X398780Y248412D01*
D16*
X246380Y195580D03*
D11*
X381000Y195580D01*
X390339Y204919D01*
X398780Y213360D01*
X400175Y211162D02*
X390339Y204919D01*
X400175Y211162D02*
X398780Y213360D01*
X396582Y214755D02*
X390339Y204919D01*
X396582Y214755D02*
X398780Y213360D01*
M02*
