G04 EAGLE Gerber RS-274X export*
G75*
%MOMM*%
%FSLAX34Y34*%
%LPD*%
%INSilkscreen Bottom*%
%IPPOS*%
%AMOC8*
5,1,8,0,0,1.08239X$1,22.5*%
G01*
%ADD10C,0.508000*%


D10*
X64770Y502666D02*
X64648Y502664D01*
X64526Y502658D01*
X64404Y502648D01*
X64283Y502635D01*
X64162Y502617D01*
X64042Y502596D01*
X63922Y502570D01*
X63804Y502541D01*
X63686Y502509D01*
X63569Y502472D01*
X63454Y502432D01*
X63340Y502388D01*
X63228Y502340D01*
X63117Y502289D01*
X63008Y502234D01*
X62900Y502176D01*
X62795Y502114D01*
X62692Y502049D01*
X62590Y501981D01*
X62491Y501909D01*
X62395Y501835D01*
X62300Y501757D01*
X62209Y501676D01*
X62119Y501593D01*
X62033Y501507D01*
X61950Y501417D01*
X61869Y501326D01*
X61791Y501231D01*
X61717Y501135D01*
X61645Y501036D01*
X61577Y500934D01*
X61512Y500831D01*
X61450Y500726D01*
X61392Y500618D01*
X61337Y500509D01*
X61286Y500398D01*
X61238Y500286D01*
X61194Y500172D01*
X61154Y500057D01*
X61117Y499940D01*
X61085Y499822D01*
X61056Y499704D01*
X61030Y499584D01*
X61009Y499464D01*
X60991Y499343D01*
X60978Y499222D01*
X60968Y499100D01*
X60962Y498978D01*
X60960Y498856D01*
X60962Y498734D01*
X60968Y498612D01*
X60978Y498490D01*
X60991Y498369D01*
X61009Y498248D01*
X61030Y498128D01*
X61056Y498008D01*
X61085Y497890D01*
X61117Y497772D01*
X61154Y497655D01*
X61194Y497540D01*
X61238Y497426D01*
X61286Y497314D01*
X61337Y497203D01*
X61392Y497094D01*
X61450Y496986D01*
X61512Y496881D01*
X61577Y496778D01*
X61645Y496676D01*
X61717Y496577D01*
X61791Y496481D01*
X61869Y496386D01*
X61950Y496295D01*
X62033Y496205D01*
X62119Y496119D01*
X62209Y496036D01*
X62300Y495955D01*
X62395Y495877D01*
X62491Y495803D01*
X62590Y495731D01*
X62692Y495663D01*
X62795Y495598D01*
X62900Y495536D01*
X63008Y495478D01*
X63117Y495423D01*
X63228Y495372D01*
X63340Y495324D01*
X63454Y495280D01*
X63569Y495240D01*
X63686Y495203D01*
X63804Y495171D01*
X63922Y495142D01*
X64042Y495116D01*
X64162Y495095D01*
X64283Y495077D01*
X64404Y495064D01*
X64526Y495054D01*
X64648Y495048D01*
X64770Y495046D01*
X64892Y495048D01*
X65014Y495054D01*
X65136Y495064D01*
X65257Y495077D01*
X65378Y495095D01*
X65498Y495116D01*
X65618Y495142D01*
X65736Y495171D01*
X65854Y495203D01*
X65971Y495240D01*
X66086Y495280D01*
X66200Y495324D01*
X66312Y495372D01*
X66423Y495423D01*
X66532Y495478D01*
X66640Y495536D01*
X66745Y495598D01*
X66848Y495663D01*
X66950Y495731D01*
X67049Y495803D01*
X67145Y495877D01*
X67240Y495955D01*
X67331Y496036D01*
X67421Y496119D01*
X67507Y496205D01*
X67590Y496295D01*
X67671Y496386D01*
X67749Y496481D01*
X67823Y496577D01*
X67895Y496676D01*
X67963Y496778D01*
X68028Y496881D01*
X68090Y496986D01*
X68148Y497094D01*
X68203Y497203D01*
X68254Y497314D01*
X68302Y497426D01*
X68346Y497540D01*
X68386Y497655D01*
X68423Y497772D01*
X68455Y497890D01*
X68484Y498008D01*
X68510Y498128D01*
X68531Y498248D01*
X68549Y498369D01*
X68562Y498490D01*
X68572Y498612D01*
X68578Y498734D01*
X68580Y498856D01*
X68578Y498978D01*
X68572Y499100D01*
X68562Y499222D01*
X68549Y499343D01*
X68531Y499464D01*
X68510Y499584D01*
X68484Y499704D01*
X68455Y499822D01*
X68423Y499940D01*
X68386Y500057D01*
X68346Y500172D01*
X68302Y500286D01*
X68254Y500398D01*
X68203Y500509D01*
X68148Y500618D01*
X68090Y500726D01*
X68028Y500831D01*
X67963Y500934D01*
X67895Y501036D01*
X67823Y501135D01*
X67749Y501231D01*
X67671Y501326D01*
X67590Y501417D01*
X67507Y501507D01*
X67421Y501593D01*
X67331Y501676D01*
X67240Y501757D01*
X67145Y501835D01*
X67049Y501909D01*
X66950Y501981D01*
X66848Y502049D01*
X66745Y502114D01*
X66640Y502176D01*
X66532Y502234D01*
X66423Y502289D01*
X66312Y502340D01*
X66200Y502388D01*
X66086Y502432D01*
X65971Y502472D01*
X65854Y502509D01*
X65736Y502541D01*
X65618Y502570D01*
X65498Y502596D01*
X65378Y502617D01*
X65257Y502635D01*
X65136Y502648D01*
X65014Y502658D01*
X64892Y502664D01*
X64770Y502666D01*
X64770Y387096D02*
X64648Y387094D01*
X64526Y387088D01*
X64404Y387078D01*
X64283Y387065D01*
X64162Y387047D01*
X64042Y387026D01*
X63922Y387000D01*
X63804Y386971D01*
X63686Y386939D01*
X63569Y386902D01*
X63454Y386862D01*
X63340Y386818D01*
X63228Y386770D01*
X63117Y386719D01*
X63008Y386664D01*
X62900Y386606D01*
X62795Y386544D01*
X62692Y386479D01*
X62590Y386411D01*
X62491Y386339D01*
X62395Y386265D01*
X62300Y386187D01*
X62209Y386106D01*
X62119Y386023D01*
X62033Y385937D01*
X61950Y385847D01*
X61869Y385756D01*
X61791Y385661D01*
X61717Y385565D01*
X61645Y385466D01*
X61577Y385364D01*
X61512Y385261D01*
X61450Y385156D01*
X61392Y385048D01*
X61337Y384939D01*
X61286Y384828D01*
X61238Y384716D01*
X61194Y384602D01*
X61154Y384487D01*
X61117Y384370D01*
X61085Y384252D01*
X61056Y384134D01*
X61030Y384014D01*
X61009Y383894D01*
X60991Y383773D01*
X60978Y383652D01*
X60968Y383530D01*
X60962Y383408D01*
X60960Y383286D01*
X60962Y383164D01*
X60968Y383042D01*
X60978Y382920D01*
X60991Y382799D01*
X61009Y382678D01*
X61030Y382558D01*
X61056Y382438D01*
X61085Y382320D01*
X61117Y382202D01*
X61154Y382085D01*
X61194Y381970D01*
X61238Y381856D01*
X61286Y381744D01*
X61337Y381633D01*
X61392Y381524D01*
X61450Y381416D01*
X61512Y381311D01*
X61577Y381208D01*
X61645Y381106D01*
X61717Y381007D01*
X61791Y380911D01*
X61869Y380816D01*
X61950Y380725D01*
X62033Y380635D01*
X62119Y380549D01*
X62209Y380466D01*
X62300Y380385D01*
X62395Y380307D01*
X62491Y380233D01*
X62590Y380161D01*
X62692Y380093D01*
X62795Y380028D01*
X62900Y379966D01*
X63008Y379908D01*
X63117Y379853D01*
X63228Y379802D01*
X63340Y379754D01*
X63454Y379710D01*
X63569Y379670D01*
X63686Y379633D01*
X63804Y379601D01*
X63922Y379572D01*
X64042Y379546D01*
X64162Y379525D01*
X64283Y379507D01*
X64404Y379494D01*
X64526Y379484D01*
X64648Y379478D01*
X64770Y379476D01*
X64892Y379478D01*
X65014Y379484D01*
X65136Y379494D01*
X65257Y379507D01*
X65378Y379525D01*
X65498Y379546D01*
X65618Y379572D01*
X65736Y379601D01*
X65854Y379633D01*
X65971Y379670D01*
X66086Y379710D01*
X66200Y379754D01*
X66312Y379802D01*
X66423Y379853D01*
X66532Y379908D01*
X66640Y379966D01*
X66745Y380028D01*
X66848Y380093D01*
X66950Y380161D01*
X67049Y380233D01*
X67145Y380307D01*
X67240Y380385D01*
X67331Y380466D01*
X67421Y380549D01*
X67507Y380635D01*
X67590Y380725D01*
X67671Y380816D01*
X67749Y380911D01*
X67823Y381007D01*
X67895Y381106D01*
X67963Y381208D01*
X68028Y381311D01*
X68090Y381416D01*
X68148Y381524D01*
X68203Y381633D01*
X68254Y381744D01*
X68302Y381856D01*
X68346Y381970D01*
X68386Y382085D01*
X68423Y382202D01*
X68455Y382320D01*
X68484Y382438D01*
X68510Y382558D01*
X68531Y382678D01*
X68549Y382799D01*
X68562Y382920D01*
X68572Y383042D01*
X68578Y383164D01*
X68580Y383286D01*
X68578Y383408D01*
X68572Y383530D01*
X68562Y383652D01*
X68549Y383773D01*
X68531Y383894D01*
X68510Y384014D01*
X68484Y384134D01*
X68455Y384252D01*
X68423Y384370D01*
X68386Y384487D01*
X68346Y384602D01*
X68302Y384716D01*
X68254Y384828D01*
X68203Y384939D01*
X68148Y385048D01*
X68090Y385156D01*
X68028Y385261D01*
X67963Y385364D01*
X67895Y385466D01*
X67823Y385565D01*
X67749Y385661D01*
X67671Y385756D01*
X67590Y385847D01*
X67507Y385937D01*
X67421Y386023D01*
X67331Y386106D01*
X67240Y386187D01*
X67145Y386265D01*
X67049Y386339D01*
X66950Y386411D01*
X66848Y386479D01*
X66745Y386544D01*
X66640Y386606D01*
X66532Y386664D01*
X66423Y386719D01*
X66312Y386770D01*
X66200Y386818D01*
X66086Y386862D01*
X65971Y386902D01*
X65854Y386939D01*
X65736Y386971D01*
X65618Y387000D01*
X65498Y387026D01*
X65378Y387047D01*
X65257Y387065D01*
X65136Y387078D01*
X65014Y387088D01*
X64892Y387094D01*
X64770Y387096D01*
X64770Y317246D02*
X64648Y317244D01*
X64526Y317238D01*
X64404Y317228D01*
X64283Y317215D01*
X64162Y317197D01*
X64042Y317176D01*
X63922Y317150D01*
X63804Y317121D01*
X63686Y317089D01*
X63569Y317052D01*
X63454Y317012D01*
X63340Y316968D01*
X63228Y316920D01*
X63117Y316869D01*
X63008Y316814D01*
X62900Y316756D01*
X62795Y316694D01*
X62692Y316629D01*
X62590Y316561D01*
X62491Y316489D01*
X62395Y316415D01*
X62300Y316337D01*
X62209Y316256D01*
X62119Y316173D01*
X62033Y316087D01*
X61950Y315997D01*
X61869Y315906D01*
X61791Y315811D01*
X61717Y315715D01*
X61645Y315616D01*
X61577Y315514D01*
X61512Y315411D01*
X61450Y315306D01*
X61392Y315198D01*
X61337Y315089D01*
X61286Y314978D01*
X61238Y314866D01*
X61194Y314752D01*
X61154Y314637D01*
X61117Y314520D01*
X61085Y314402D01*
X61056Y314284D01*
X61030Y314164D01*
X61009Y314044D01*
X60991Y313923D01*
X60978Y313802D01*
X60968Y313680D01*
X60962Y313558D01*
X60960Y313436D01*
X60962Y313314D01*
X60968Y313192D01*
X60978Y313070D01*
X60991Y312949D01*
X61009Y312828D01*
X61030Y312708D01*
X61056Y312588D01*
X61085Y312470D01*
X61117Y312352D01*
X61154Y312235D01*
X61194Y312120D01*
X61238Y312006D01*
X61286Y311894D01*
X61337Y311783D01*
X61392Y311674D01*
X61450Y311566D01*
X61512Y311461D01*
X61577Y311358D01*
X61645Y311256D01*
X61717Y311157D01*
X61791Y311061D01*
X61869Y310966D01*
X61950Y310875D01*
X62033Y310785D01*
X62119Y310699D01*
X62209Y310616D01*
X62300Y310535D01*
X62395Y310457D01*
X62491Y310383D01*
X62590Y310311D01*
X62692Y310243D01*
X62795Y310178D01*
X62900Y310116D01*
X63008Y310058D01*
X63117Y310003D01*
X63228Y309952D01*
X63340Y309904D01*
X63454Y309860D01*
X63569Y309820D01*
X63686Y309783D01*
X63804Y309751D01*
X63922Y309722D01*
X64042Y309696D01*
X64162Y309675D01*
X64283Y309657D01*
X64404Y309644D01*
X64526Y309634D01*
X64648Y309628D01*
X64770Y309626D01*
X64892Y309628D01*
X65014Y309634D01*
X65136Y309644D01*
X65257Y309657D01*
X65378Y309675D01*
X65498Y309696D01*
X65618Y309722D01*
X65736Y309751D01*
X65854Y309783D01*
X65971Y309820D01*
X66086Y309860D01*
X66200Y309904D01*
X66312Y309952D01*
X66423Y310003D01*
X66532Y310058D01*
X66640Y310116D01*
X66745Y310178D01*
X66848Y310243D01*
X66950Y310311D01*
X67049Y310383D01*
X67145Y310457D01*
X67240Y310535D01*
X67331Y310616D01*
X67421Y310699D01*
X67507Y310785D01*
X67590Y310875D01*
X67671Y310966D01*
X67749Y311061D01*
X67823Y311157D01*
X67895Y311256D01*
X67963Y311358D01*
X68028Y311461D01*
X68090Y311566D01*
X68148Y311674D01*
X68203Y311783D01*
X68254Y311894D01*
X68302Y312006D01*
X68346Y312120D01*
X68386Y312235D01*
X68423Y312352D01*
X68455Y312470D01*
X68484Y312588D01*
X68510Y312708D01*
X68531Y312828D01*
X68549Y312949D01*
X68562Y313070D01*
X68572Y313192D01*
X68578Y313314D01*
X68580Y313436D01*
X68578Y313558D01*
X68572Y313680D01*
X68562Y313802D01*
X68549Y313923D01*
X68531Y314044D01*
X68510Y314164D01*
X68484Y314284D01*
X68455Y314402D01*
X68423Y314520D01*
X68386Y314637D01*
X68346Y314752D01*
X68302Y314866D01*
X68254Y314978D01*
X68203Y315089D01*
X68148Y315198D01*
X68090Y315306D01*
X68028Y315411D01*
X67963Y315514D01*
X67895Y315616D01*
X67823Y315715D01*
X67749Y315811D01*
X67671Y315906D01*
X67590Y315997D01*
X67507Y316087D01*
X67421Y316173D01*
X67331Y316256D01*
X67240Y316337D01*
X67145Y316415D01*
X67049Y316489D01*
X66950Y316561D01*
X66848Y316629D01*
X66745Y316694D01*
X66640Y316756D01*
X66532Y316814D01*
X66423Y316869D01*
X66312Y316920D01*
X66200Y316968D01*
X66086Y317012D01*
X65971Y317052D01*
X65854Y317089D01*
X65736Y317121D01*
X65618Y317150D01*
X65498Y317176D01*
X65378Y317197D01*
X65257Y317215D01*
X65136Y317228D01*
X65014Y317238D01*
X64892Y317244D01*
X64770Y317246D01*
X398780Y180594D02*
X398902Y180592D01*
X399024Y180586D01*
X399146Y180576D01*
X399267Y180563D01*
X399388Y180545D01*
X399508Y180524D01*
X399628Y180498D01*
X399746Y180469D01*
X399864Y180437D01*
X399981Y180400D01*
X400096Y180360D01*
X400210Y180316D01*
X400322Y180268D01*
X400433Y180217D01*
X400542Y180162D01*
X400650Y180104D01*
X400755Y180042D01*
X400858Y179977D01*
X400960Y179909D01*
X401059Y179837D01*
X401155Y179763D01*
X401250Y179685D01*
X401341Y179604D01*
X401431Y179521D01*
X401517Y179435D01*
X401600Y179345D01*
X401681Y179254D01*
X401759Y179159D01*
X401833Y179063D01*
X401905Y178964D01*
X401973Y178862D01*
X402038Y178759D01*
X402100Y178654D01*
X402158Y178546D01*
X402213Y178437D01*
X402264Y178326D01*
X402312Y178214D01*
X402356Y178100D01*
X402396Y177985D01*
X402433Y177868D01*
X402465Y177750D01*
X402494Y177632D01*
X402520Y177512D01*
X402541Y177392D01*
X402559Y177271D01*
X402572Y177150D01*
X402582Y177028D01*
X402588Y176906D01*
X402590Y176784D01*
X402588Y176662D01*
X402582Y176540D01*
X402572Y176418D01*
X402559Y176297D01*
X402541Y176176D01*
X402520Y176056D01*
X402494Y175936D01*
X402465Y175818D01*
X402433Y175700D01*
X402396Y175583D01*
X402356Y175468D01*
X402312Y175354D01*
X402264Y175242D01*
X402213Y175131D01*
X402158Y175022D01*
X402100Y174914D01*
X402038Y174809D01*
X401973Y174706D01*
X401905Y174604D01*
X401833Y174505D01*
X401759Y174409D01*
X401681Y174314D01*
X401600Y174223D01*
X401517Y174133D01*
X401431Y174047D01*
X401341Y173964D01*
X401250Y173883D01*
X401155Y173805D01*
X401059Y173731D01*
X400960Y173659D01*
X400858Y173591D01*
X400755Y173526D01*
X400650Y173464D01*
X400542Y173406D01*
X400433Y173351D01*
X400322Y173300D01*
X400210Y173252D01*
X400096Y173208D01*
X399981Y173168D01*
X399864Y173131D01*
X399746Y173099D01*
X399628Y173070D01*
X399508Y173044D01*
X399388Y173023D01*
X399267Y173005D01*
X399146Y172992D01*
X399024Y172982D01*
X398902Y172976D01*
X398780Y172974D01*
X398658Y172976D01*
X398536Y172982D01*
X398414Y172992D01*
X398293Y173005D01*
X398172Y173023D01*
X398052Y173044D01*
X397932Y173070D01*
X397814Y173099D01*
X397696Y173131D01*
X397579Y173168D01*
X397464Y173208D01*
X397350Y173252D01*
X397238Y173300D01*
X397127Y173351D01*
X397018Y173406D01*
X396910Y173464D01*
X396805Y173526D01*
X396702Y173591D01*
X396600Y173659D01*
X396501Y173731D01*
X396405Y173805D01*
X396310Y173883D01*
X396219Y173964D01*
X396129Y174047D01*
X396043Y174133D01*
X395960Y174223D01*
X395879Y174314D01*
X395801Y174409D01*
X395727Y174505D01*
X395655Y174604D01*
X395587Y174706D01*
X395522Y174809D01*
X395460Y174914D01*
X395402Y175022D01*
X395347Y175131D01*
X395296Y175242D01*
X395248Y175354D01*
X395204Y175468D01*
X395164Y175583D01*
X395127Y175700D01*
X395095Y175818D01*
X395066Y175936D01*
X395040Y176056D01*
X395019Y176176D01*
X395001Y176297D01*
X394988Y176418D01*
X394978Y176540D01*
X394972Y176662D01*
X394970Y176784D01*
X394972Y176906D01*
X394978Y177028D01*
X394988Y177150D01*
X395001Y177271D01*
X395019Y177392D01*
X395040Y177512D01*
X395066Y177632D01*
X395095Y177750D01*
X395127Y177868D01*
X395164Y177985D01*
X395204Y178100D01*
X395248Y178214D01*
X395296Y178326D01*
X395347Y178437D01*
X395402Y178546D01*
X395460Y178654D01*
X395522Y178759D01*
X395587Y178862D01*
X395655Y178964D01*
X395727Y179063D01*
X395801Y179159D01*
X395879Y179254D01*
X395960Y179345D01*
X396043Y179435D01*
X396129Y179521D01*
X396219Y179604D01*
X396310Y179685D01*
X396405Y179763D01*
X396501Y179837D01*
X396600Y179909D01*
X396702Y179977D01*
X396805Y180042D01*
X396910Y180104D01*
X397018Y180162D01*
X397127Y180217D01*
X397238Y180268D01*
X397350Y180316D01*
X397464Y180360D01*
X397579Y180400D01*
X397696Y180437D01*
X397814Y180469D01*
X397932Y180498D01*
X398052Y180524D01*
X398172Y180545D01*
X398293Y180563D01*
X398414Y180576D01*
X398536Y180586D01*
X398658Y180592D01*
X398780Y180594D01*
X398780Y242824D02*
X398902Y242826D01*
X399024Y242832D01*
X399146Y242842D01*
X399267Y242855D01*
X399388Y242873D01*
X399508Y242894D01*
X399628Y242920D01*
X399746Y242949D01*
X399864Y242981D01*
X399981Y243018D01*
X400096Y243058D01*
X400210Y243102D01*
X400322Y243150D01*
X400433Y243201D01*
X400542Y243256D01*
X400650Y243314D01*
X400755Y243376D01*
X400858Y243441D01*
X400960Y243509D01*
X401059Y243581D01*
X401155Y243655D01*
X401250Y243733D01*
X401341Y243814D01*
X401431Y243897D01*
X401517Y243983D01*
X401600Y244073D01*
X401681Y244164D01*
X401759Y244259D01*
X401833Y244355D01*
X401905Y244454D01*
X401973Y244556D01*
X402038Y244659D01*
X402100Y244764D01*
X402158Y244872D01*
X402213Y244981D01*
X402264Y245092D01*
X402312Y245204D01*
X402356Y245318D01*
X402396Y245433D01*
X402433Y245550D01*
X402465Y245668D01*
X402494Y245786D01*
X402520Y245906D01*
X402541Y246026D01*
X402559Y246147D01*
X402572Y246268D01*
X402582Y246390D01*
X402588Y246512D01*
X402590Y246634D01*
X402588Y246756D01*
X402582Y246878D01*
X402572Y247000D01*
X402559Y247121D01*
X402541Y247242D01*
X402520Y247362D01*
X402494Y247482D01*
X402465Y247600D01*
X402433Y247718D01*
X402396Y247835D01*
X402356Y247950D01*
X402312Y248064D01*
X402264Y248176D01*
X402213Y248287D01*
X402158Y248396D01*
X402100Y248504D01*
X402038Y248609D01*
X401973Y248712D01*
X401905Y248814D01*
X401833Y248913D01*
X401759Y249009D01*
X401681Y249104D01*
X401600Y249195D01*
X401517Y249285D01*
X401431Y249371D01*
X401341Y249454D01*
X401250Y249535D01*
X401155Y249613D01*
X401059Y249687D01*
X400960Y249759D01*
X400858Y249827D01*
X400755Y249892D01*
X400650Y249954D01*
X400542Y250012D01*
X400433Y250067D01*
X400322Y250118D01*
X400210Y250166D01*
X400096Y250210D01*
X399981Y250250D01*
X399864Y250287D01*
X399746Y250319D01*
X399628Y250348D01*
X399508Y250374D01*
X399388Y250395D01*
X399267Y250413D01*
X399146Y250426D01*
X399024Y250436D01*
X398902Y250442D01*
X398780Y250444D01*
X398658Y250442D01*
X398536Y250436D01*
X398414Y250426D01*
X398293Y250413D01*
X398172Y250395D01*
X398052Y250374D01*
X397932Y250348D01*
X397814Y250319D01*
X397696Y250287D01*
X397579Y250250D01*
X397464Y250210D01*
X397350Y250166D01*
X397238Y250118D01*
X397127Y250067D01*
X397018Y250012D01*
X396910Y249954D01*
X396805Y249892D01*
X396702Y249827D01*
X396600Y249759D01*
X396501Y249687D01*
X396405Y249613D01*
X396310Y249535D01*
X396219Y249454D01*
X396129Y249371D01*
X396043Y249285D01*
X395960Y249195D01*
X395879Y249104D01*
X395801Y249009D01*
X395727Y248913D01*
X395655Y248814D01*
X395587Y248712D01*
X395522Y248609D01*
X395460Y248504D01*
X395402Y248396D01*
X395347Y248287D01*
X395296Y248176D01*
X395248Y248064D01*
X395204Y247950D01*
X395164Y247835D01*
X395127Y247718D01*
X395095Y247600D01*
X395066Y247482D01*
X395040Y247362D01*
X395019Y247242D01*
X395001Y247121D01*
X394988Y247000D01*
X394978Y246878D01*
X394972Y246756D01*
X394970Y246634D01*
X394972Y246512D01*
X394978Y246390D01*
X394988Y246268D01*
X395001Y246147D01*
X395019Y246026D01*
X395040Y245906D01*
X395066Y245786D01*
X395095Y245668D01*
X395127Y245550D01*
X395164Y245433D01*
X395204Y245318D01*
X395248Y245204D01*
X395296Y245092D01*
X395347Y244981D01*
X395402Y244872D01*
X395460Y244764D01*
X395522Y244659D01*
X395587Y244556D01*
X395655Y244454D01*
X395727Y244355D01*
X395801Y244259D01*
X395879Y244164D01*
X395960Y244073D01*
X396043Y243983D01*
X396129Y243897D01*
X396219Y243814D01*
X396310Y243733D01*
X396405Y243655D01*
X396501Y243581D01*
X396600Y243509D01*
X396702Y243441D01*
X396805Y243376D01*
X396910Y243314D01*
X397018Y243256D01*
X397127Y243201D01*
X397238Y243150D01*
X397350Y243102D01*
X397464Y243058D01*
X397579Y243018D01*
X397696Y242981D01*
X397814Y242949D01*
X397932Y242920D01*
X398052Y242894D01*
X398172Y242873D01*
X398293Y242855D01*
X398414Y242842D01*
X398536Y242832D01*
X398658Y242826D01*
X398780Y242824D01*
X398780Y354584D02*
X398902Y354586D01*
X399024Y354592D01*
X399146Y354602D01*
X399267Y354615D01*
X399388Y354633D01*
X399508Y354654D01*
X399628Y354680D01*
X399746Y354709D01*
X399864Y354741D01*
X399981Y354778D01*
X400096Y354818D01*
X400210Y354862D01*
X400322Y354910D01*
X400433Y354961D01*
X400542Y355016D01*
X400650Y355074D01*
X400755Y355136D01*
X400858Y355201D01*
X400960Y355269D01*
X401059Y355341D01*
X401155Y355415D01*
X401250Y355493D01*
X401341Y355574D01*
X401431Y355657D01*
X401517Y355743D01*
X401600Y355833D01*
X401681Y355924D01*
X401759Y356019D01*
X401833Y356115D01*
X401905Y356214D01*
X401973Y356316D01*
X402038Y356419D01*
X402100Y356524D01*
X402158Y356632D01*
X402213Y356741D01*
X402264Y356852D01*
X402312Y356964D01*
X402356Y357078D01*
X402396Y357193D01*
X402433Y357310D01*
X402465Y357428D01*
X402494Y357546D01*
X402520Y357666D01*
X402541Y357786D01*
X402559Y357907D01*
X402572Y358028D01*
X402582Y358150D01*
X402588Y358272D01*
X402590Y358394D01*
X402588Y358516D01*
X402582Y358638D01*
X402572Y358760D01*
X402559Y358881D01*
X402541Y359002D01*
X402520Y359122D01*
X402494Y359242D01*
X402465Y359360D01*
X402433Y359478D01*
X402396Y359595D01*
X402356Y359710D01*
X402312Y359824D01*
X402264Y359936D01*
X402213Y360047D01*
X402158Y360156D01*
X402100Y360264D01*
X402038Y360369D01*
X401973Y360472D01*
X401905Y360574D01*
X401833Y360673D01*
X401759Y360769D01*
X401681Y360864D01*
X401600Y360955D01*
X401517Y361045D01*
X401431Y361131D01*
X401341Y361214D01*
X401250Y361295D01*
X401155Y361373D01*
X401059Y361447D01*
X400960Y361519D01*
X400858Y361587D01*
X400755Y361652D01*
X400650Y361714D01*
X400542Y361772D01*
X400433Y361827D01*
X400322Y361878D01*
X400210Y361926D01*
X400096Y361970D01*
X399981Y362010D01*
X399864Y362047D01*
X399746Y362079D01*
X399628Y362108D01*
X399508Y362134D01*
X399388Y362155D01*
X399267Y362173D01*
X399146Y362186D01*
X399024Y362196D01*
X398902Y362202D01*
X398780Y362204D01*
X398658Y362202D01*
X398536Y362196D01*
X398414Y362186D01*
X398293Y362173D01*
X398172Y362155D01*
X398052Y362134D01*
X397932Y362108D01*
X397814Y362079D01*
X397696Y362047D01*
X397579Y362010D01*
X397464Y361970D01*
X397350Y361926D01*
X397238Y361878D01*
X397127Y361827D01*
X397018Y361772D01*
X396910Y361714D01*
X396805Y361652D01*
X396702Y361587D01*
X396600Y361519D01*
X396501Y361447D01*
X396405Y361373D01*
X396310Y361295D01*
X396219Y361214D01*
X396129Y361131D01*
X396043Y361045D01*
X395960Y360955D01*
X395879Y360864D01*
X395801Y360769D01*
X395727Y360673D01*
X395655Y360574D01*
X395587Y360472D01*
X395522Y360369D01*
X395460Y360264D01*
X395402Y360156D01*
X395347Y360047D01*
X395296Y359936D01*
X395248Y359824D01*
X395204Y359710D01*
X395164Y359595D01*
X395127Y359478D01*
X395095Y359360D01*
X395066Y359242D01*
X395040Y359122D01*
X395019Y359002D01*
X395001Y358881D01*
X394988Y358760D01*
X394978Y358638D01*
X394972Y358516D01*
X394970Y358394D01*
X394972Y358272D01*
X394978Y358150D01*
X394988Y358028D01*
X395001Y357907D01*
X395019Y357786D01*
X395040Y357666D01*
X395066Y357546D01*
X395095Y357428D01*
X395127Y357310D01*
X395164Y357193D01*
X395204Y357078D01*
X395248Y356964D01*
X395296Y356852D01*
X395347Y356741D01*
X395402Y356632D01*
X395460Y356524D01*
X395522Y356419D01*
X395587Y356316D01*
X395655Y356214D01*
X395727Y356115D01*
X395801Y356019D01*
X395879Y355924D01*
X395960Y355833D01*
X396043Y355743D01*
X396129Y355657D01*
X396219Y355574D01*
X396310Y355493D01*
X396405Y355415D01*
X396501Y355341D01*
X396600Y355269D01*
X396702Y355201D01*
X396805Y355136D01*
X396910Y355074D01*
X397018Y355016D01*
X397127Y354961D01*
X397238Y354910D01*
X397350Y354862D01*
X397464Y354818D01*
X397579Y354778D01*
X397696Y354741D01*
X397814Y354709D01*
X397932Y354680D01*
X398052Y354654D01*
X398172Y354633D01*
X398293Y354615D01*
X398414Y354602D01*
X398536Y354592D01*
X398658Y354586D01*
X398780Y354584D01*
X398780Y424434D02*
X398902Y424436D01*
X399024Y424442D01*
X399146Y424452D01*
X399267Y424465D01*
X399388Y424483D01*
X399508Y424504D01*
X399628Y424530D01*
X399746Y424559D01*
X399864Y424591D01*
X399981Y424628D01*
X400096Y424668D01*
X400210Y424712D01*
X400322Y424760D01*
X400433Y424811D01*
X400542Y424866D01*
X400650Y424924D01*
X400755Y424986D01*
X400858Y425051D01*
X400960Y425119D01*
X401059Y425191D01*
X401155Y425265D01*
X401250Y425343D01*
X401341Y425424D01*
X401431Y425507D01*
X401517Y425593D01*
X401600Y425683D01*
X401681Y425774D01*
X401759Y425869D01*
X401833Y425965D01*
X401905Y426064D01*
X401973Y426166D01*
X402038Y426269D01*
X402100Y426374D01*
X402158Y426482D01*
X402213Y426591D01*
X402264Y426702D01*
X402312Y426814D01*
X402356Y426928D01*
X402396Y427043D01*
X402433Y427160D01*
X402465Y427278D01*
X402494Y427396D01*
X402520Y427516D01*
X402541Y427636D01*
X402559Y427757D01*
X402572Y427878D01*
X402582Y428000D01*
X402588Y428122D01*
X402590Y428244D01*
X402588Y428366D01*
X402582Y428488D01*
X402572Y428610D01*
X402559Y428731D01*
X402541Y428852D01*
X402520Y428972D01*
X402494Y429092D01*
X402465Y429210D01*
X402433Y429328D01*
X402396Y429445D01*
X402356Y429560D01*
X402312Y429674D01*
X402264Y429786D01*
X402213Y429897D01*
X402158Y430006D01*
X402100Y430114D01*
X402038Y430219D01*
X401973Y430322D01*
X401905Y430424D01*
X401833Y430523D01*
X401759Y430619D01*
X401681Y430714D01*
X401600Y430805D01*
X401517Y430895D01*
X401431Y430981D01*
X401341Y431064D01*
X401250Y431145D01*
X401155Y431223D01*
X401059Y431297D01*
X400960Y431369D01*
X400858Y431437D01*
X400755Y431502D01*
X400650Y431564D01*
X400542Y431622D01*
X400433Y431677D01*
X400322Y431728D01*
X400210Y431776D01*
X400096Y431820D01*
X399981Y431860D01*
X399864Y431897D01*
X399746Y431929D01*
X399628Y431958D01*
X399508Y431984D01*
X399388Y432005D01*
X399267Y432023D01*
X399146Y432036D01*
X399024Y432046D01*
X398902Y432052D01*
X398780Y432054D01*
X398658Y432052D01*
X398536Y432046D01*
X398414Y432036D01*
X398293Y432023D01*
X398172Y432005D01*
X398052Y431984D01*
X397932Y431958D01*
X397814Y431929D01*
X397696Y431897D01*
X397579Y431860D01*
X397464Y431820D01*
X397350Y431776D01*
X397238Y431728D01*
X397127Y431677D01*
X397018Y431622D01*
X396910Y431564D01*
X396805Y431502D01*
X396702Y431437D01*
X396600Y431369D01*
X396501Y431297D01*
X396405Y431223D01*
X396310Y431145D01*
X396219Y431064D01*
X396129Y430981D01*
X396043Y430895D01*
X395960Y430805D01*
X395879Y430714D01*
X395801Y430619D01*
X395727Y430523D01*
X395655Y430424D01*
X395587Y430322D01*
X395522Y430219D01*
X395460Y430114D01*
X395402Y430006D01*
X395347Y429897D01*
X395296Y429786D01*
X395248Y429674D01*
X395204Y429560D01*
X395164Y429445D01*
X395127Y429328D01*
X395095Y429210D01*
X395066Y429092D01*
X395040Y428972D01*
X395019Y428852D01*
X395001Y428731D01*
X394988Y428610D01*
X394978Y428488D01*
X394972Y428366D01*
X394970Y428244D01*
X394972Y428122D01*
X394978Y428000D01*
X394988Y427878D01*
X395001Y427757D01*
X395019Y427636D01*
X395040Y427516D01*
X395066Y427396D01*
X395095Y427278D01*
X395127Y427160D01*
X395164Y427043D01*
X395204Y426928D01*
X395248Y426814D01*
X395296Y426702D01*
X395347Y426591D01*
X395402Y426482D01*
X395460Y426374D01*
X395522Y426269D01*
X395587Y426166D01*
X395655Y426064D01*
X395727Y425965D01*
X395801Y425869D01*
X395879Y425774D01*
X395960Y425683D01*
X396043Y425593D01*
X396129Y425507D01*
X396219Y425424D01*
X396310Y425343D01*
X396405Y425265D01*
X396501Y425191D01*
X396600Y425119D01*
X396702Y425051D01*
X396805Y424986D01*
X396910Y424924D01*
X397018Y424866D01*
X397127Y424811D01*
X397238Y424760D01*
X397350Y424712D01*
X397464Y424668D01*
X397579Y424628D01*
X397696Y424591D01*
X397814Y424559D01*
X397932Y424530D01*
X398052Y424504D01*
X398172Y424483D01*
X398293Y424465D01*
X398414Y424452D01*
X398536Y424442D01*
X398658Y424436D01*
X398780Y424434D01*
X398780Y494284D02*
X398902Y494286D01*
X399024Y494292D01*
X399146Y494302D01*
X399267Y494315D01*
X399388Y494333D01*
X399508Y494354D01*
X399628Y494380D01*
X399746Y494409D01*
X399864Y494441D01*
X399981Y494478D01*
X400096Y494518D01*
X400210Y494562D01*
X400322Y494610D01*
X400433Y494661D01*
X400542Y494716D01*
X400650Y494774D01*
X400755Y494836D01*
X400858Y494901D01*
X400960Y494969D01*
X401059Y495041D01*
X401155Y495115D01*
X401250Y495193D01*
X401341Y495274D01*
X401431Y495357D01*
X401517Y495443D01*
X401600Y495533D01*
X401681Y495624D01*
X401759Y495719D01*
X401833Y495815D01*
X401905Y495914D01*
X401973Y496016D01*
X402038Y496119D01*
X402100Y496224D01*
X402158Y496332D01*
X402213Y496441D01*
X402264Y496552D01*
X402312Y496664D01*
X402356Y496778D01*
X402396Y496893D01*
X402433Y497010D01*
X402465Y497128D01*
X402494Y497246D01*
X402520Y497366D01*
X402541Y497486D01*
X402559Y497607D01*
X402572Y497728D01*
X402582Y497850D01*
X402588Y497972D01*
X402590Y498094D01*
X402588Y498216D01*
X402582Y498338D01*
X402572Y498460D01*
X402559Y498581D01*
X402541Y498702D01*
X402520Y498822D01*
X402494Y498942D01*
X402465Y499060D01*
X402433Y499178D01*
X402396Y499295D01*
X402356Y499410D01*
X402312Y499524D01*
X402264Y499636D01*
X402213Y499747D01*
X402158Y499856D01*
X402100Y499964D01*
X402038Y500069D01*
X401973Y500172D01*
X401905Y500274D01*
X401833Y500373D01*
X401759Y500469D01*
X401681Y500564D01*
X401600Y500655D01*
X401517Y500745D01*
X401431Y500831D01*
X401341Y500914D01*
X401250Y500995D01*
X401155Y501073D01*
X401059Y501147D01*
X400960Y501219D01*
X400858Y501287D01*
X400755Y501352D01*
X400650Y501414D01*
X400542Y501472D01*
X400433Y501527D01*
X400322Y501578D01*
X400210Y501626D01*
X400096Y501670D01*
X399981Y501710D01*
X399864Y501747D01*
X399746Y501779D01*
X399628Y501808D01*
X399508Y501834D01*
X399388Y501855D01*
X399267Y501873D01*
X399146Y501886D01*
X399024Y501896D01*
X398902Y501902D01*
X398780Y501904D01*
X398658Y501902D01*
X398536Y501896D01*
X398414Y501886D01*
X398293Y501873D01*
X398172Y501855D01*
X398052Y501834D01*
X397932Y501808D01*
X397814Y501779D01*
X397696Y501747D01*
X397579Y501710D01*
X397464Y501670D01*
X397350Y501626D01*
X397238Y501578D01*
X397127Y501527D01*
X397018Y501472D01*
X396910Y501414D01*
X396805Y501352D01*
X396702Y501287D01*
X396600Y501219D01*
X396501Y501147D01*
X396405Y501073D01*
X396310Y500995D01*
X396219Y500914D01*
X396129Y500831D01*
X396043Y500745D01*
X395960Y500655D01*
X395879Y500564D01*
X395801Y500469D01*
X395727Y500373D01*
X395655Y500274D01*
X395587Y500172D01*
X395522Y500069D01*
X395460Y499964D01*
X395402Y499856D01*
X395347Y499747D01*
X395296Y499636D01*
X395248Y499524D01*
X395204Y499410D01*
X395164Y499295D01*
X395127Y499178D01*
X395095Y499060D01*
X395066Y498942D01*
X395040Y498822D01*
X395019Y498702D01*
X395001Y498581D01*
X394988Y498460D01*
X394978Y498338D01*
X394972Y498216D01*
X394970Y498094D01*
X394972Y497972D01*
X394978Y497850D01*
X394988Y497728D01*
X395001Y497607D01*
X395019Y497486D01*
X395040Y497366D01*
X395066Y497246D01*
X395095Y497128D01*
X395127Y497010D01*
X395164Y496893D01*
X395204Y496778D01*
X395248Y496664D01*
X395296Y496552D01*
X395347Y496441D01*
X395402Y496332D01*
X395460Y496224D01*
X395522Y496119D01*
X395587Y496016D01*
X395655Y495914D01*
X395727Y495815D01*
X395801Y495719D01*
X395879Y495624D01*
X395960Y495533D01*
X396043Y495443D01*
X396129Y495357D01*
X396219Y495274D01*
X396310Y495193D01*
X396405Y495115D01*
X396501Y495041D01*
X396600Y494969D01*
X396702Y494901D01*
X396805Y494836D01*
X396910Y494774D01*
X397018Y494716D01*
X397127Y494661D01*
X397238Y494610D01*
X397350Y494562D01*
X397464Y494518D01*
X397579Y494478D01*
X397696Y494441D01*
X397814Y494409D01*
X397932Y494380D01*
X398052Y494354D01*
X398172Y494333D01*
X398293Y494315D01*
X398414Y494302D01*
X398536Y494292D01*
X398658Y494286D01*
X398780Y494284D01*
X284226Y633440D02*
X284224Y633562D01*
X284218Y633684D01*
X284208Y633806D01*
X284195Y633927D01*
X284177Y634048D01*
X284156Y634168D01*
X284130Y634288D01*
X284101Y634406D01*
X284069Y634524D01*
X284032Y634641D01*
X283992Y634756D01*
X283948Y634870D01*
X283900Y634982D01*
X283849Y635093D01*
X283794Y635202D01*
X283736Y635310D01*
X283674Y635415D01*
X283609Y635518D01*
X283541Y635620D01*
X283469Y635719D01*
X283395Y635815D01*
X283317Y635910D01*
X283236Y636001D01*
X283153Y636091D01*
X283067Y636177D01*
X282977Y636260D01*
X282886Y636341D01*
X282791Y636419D01*
X282695Y636493D01*
X282596Y636565D01*
X282494Y636633D01*
X282391Y636698D01*
X282286Y636760D01*
X282178Y636818D01*
X282069Y636873D01*
X281958Y636924D01*
X281846Y636972D01*
X281732Y637016D01*
X281617Y637056D01*
X281500Y637093D01*
X281382Y637125D01*
X281264Y637154D01*
X281144Y637180D01*
X281024Y637201D01*
X280903Y637219D01*
X280782Y637232D01*
X280660Y637242D01*
X280538Y637248D01*
X280416Y637250D01*
X280294Y637248D01*
X280172Y637242D01*
X280050Y637232D01*
X279929Y637219D01*
X279808Y637201D01*
X279688Y637180D01*
X279568Y637154D01*
X279450Y637125D01*
X279332Y637093D01*
X279215Y637056D01*
X279100Y637016D01*
X278986Y636972D01*
X278874Y636924D01*
X278763Y636873D01*
X278654Y636818D01*
X278546Y636760D01*
X278441Y636698D01*
X278338Y636633D01*
X278236Y636565D01*
X278137Y636493D01*
X278041Y636419D01*
X277946Y636341D01*
X277855Y636260D01*
X277765Y636177D01*
X277679Y636091D01*
X277596Y636001D01*
X277515Y635910D01*
X277437Y635815D01*
X277363Y635719D01*
X277291Y635620D01*
X277223Y635518D01*
X277158Y635415D01*
X277096Y635310D01*
X277038Y635202D01*
X276983Y635093D01*
X276932Y634982D01*
X276884Y634870D01*
X276840Y634756D01*
X276800Y634641D01*
X276763Y634524D01*
X276731Y634406D01*
X276702Y634288D01*
X276676Y634168D01*
X276655Y634048D01*
X276637Y633927D01*
X276624Y633806D01*
X276614Y633684D01*
X276608Y633562D01*
X276606Y633440D01*
X276608Y633318D01*
X276614Y633196D01*
X276624Y633074D01*
X276637Y632953D01*
X276655Y632832D01*
X276676Y632712D01*
X276702Y632592D01*
X276731Y632474D01*
X276763Y632356D01*
X276800Y632239D01*
X276840Y632124D01*
X276884Y632010D01*
X276932Y631898D01*
X276983Y631787D01*
X277038Y631678D01*
X277096Y631570D01*
X277158Y631465D01*
X277223Y631362D01*
X277291Y631260D01*
X277363Y631161D01*
X277437Y631065D01*
X277515Y630970D01*
X277596Y630879D01*
X277679Y630789D01*
X277765Y630703D01*
X277855Y630620D01*
X277946Y630539D01*
X278041Y630461D01*
X278137Y630387D01*
X278236Y630315D01*
X278338Y630247D01*
X278441Y630182D01*
X278546Y630120D01*
X278654Y630062D01*
X278763Y630007D01*
X278874Y629956D01*
X278986Y629908D01*
X279100Y629864D01*
X279215Y629824D01*
X279332Y629787D01*
X279450Y629755D01*
X279568Y629726D01*
X279688Y629700D01*
X279808Y629679D01*
X279929Y629661D01*
X280050Y629648D01*
X280172Y629638D01*
X280294Y629632D01*
X280416Y629630D01*
X280538Y629632D01*
X280660Y629638D01*
X280782Y629648D01*
X280903Y629661D01*
X281024Y629679D01*
X281144Y629700D01*
X281264Y629726D01*
X281382Y629755D01*
X281500Y629787D01*
X281617Y629824D01*
X281732Y629864D01*
X281846Y629908D01*
X281958Y629956D01*
X282069Y630007D01*
X282178Y630062D01*
X282286Y630120D01*
X282391Y630182D01*
X282494Y630247D01*
X282596Y630315D01*
X282695Y630387D01*
X282791Y630461D01*
X282886Y630539D01*
X282977Y630620D01*
X283067Y630703D01*
X283153Y630789D01*
X283236Y630879D01*
X283317Y630970D01*
X283395Y631065D01*
X283469Y631161D01*
X283541Y631260D01*
X283609Y631362D01*
X283674Y631465D01*
X283736Y631570D01*
X283794Y631678D01*
X283849Y631787D01*
X283900Y631898D01*
X283948Y632010D01*
X283992Y632124D01*
X284032Y632239D01*
X284069Y632356D01*
X284101Y632474D01*
X284130Y632592D01*
X284156Y632712D01*
X284177Y632832D01*
X284195Y632953D01*
X284208Y633074D01*
X284218Y633196D01*
X284224Y633318D01*
X284226Y633440D01*
X64770Y247396D02*
X64648Y247394D01*
X64526Y247388D01*
X64404Y247378D01*
X64283Y247365D01*
X64162Y247347D01*
X64042Y247326D01*
X63922Y247300D01*
X63804Y247271D01*
X63686Y247239D01*
X63569Y247202D01*
X63454Y247162D01*
X63340Y247118D01*
X63228Y247070D01*
X63117Y247019D01*
X63008Y246964D01*
X62900Y246906D01*
X62795Y246844D01*
X62692Y246779D01*
X62590Y246711D01*
X62491Y246639D01*
X62395Y246565D01*
X62300Y246487D01*
X62209Y246406D01*
X62119Y246323D01*
X62033Y246237D01*
X61950Y246147D01*
X61869Y246056D01*
X61791Y245961D01*
X61717Y245865D01*
X61645Y245766D01*
X61577Y245664D01*
X61512Y245561D01*
X61450Y245456D01*
X61392Y245348D01*
X61337Y245239D01*
X61286Y245128D01*
X61238Y245016D01*
X61194Y244902D01*
X61154Y244787D01*
X61117Y244670D01*
X61085Y244552D01*
X61056Y244434D01*
X61030Y244314D01*
X61009Y244194D01*
X60991Y244073D01*
X60978Y243952D01*
X60968Y243830D01*
X60962Y243708D01*
X60960Y243586D01*
X60962Y243464D01*
X60968Y243342D01*
X60978Y243220D01*
X60991Y243099D01*
X61009Y242978D01*
X61030Y242858D01*
X61056Y242738D01*
X61085Y242620D01*
X61117Y242502D01*
X61154Y242385D01*
X61194Y242270D01*
X61238Y242156D01*
X61286Y242044D01*
X61337Y241933D01*
X61392Y241824D01*
X61450Y241716D01*
X61512Y241611D01*
X61577Y241508D01*
X61645Y241406D01*
X61717Y241307D01*
X61791Y241211D01*
X61869Y241116D01*
X61950Y241025D01*
X62033Y240935D01*
X62119Y240849D01*
X62209Y240766D01*
X62300Y240685D01*
X62395Y240607D01*
X62491Y240533D01*
X62590Y240461D01*
X62692Y240393D01*
X62795Y240328D01*
X62900Y240266D01*
X63008Y240208D01*
X63117Y240153D01*
X63228Y240102D01*
X63340Y240054D01*
X63454Y240010D01*
X63569Y239970D01*
X63686Y239933D01*
X63804Y239901D01*
X63922Y239872D01*
X64042Y239846D01*
X64162Y239825D01*
X64283Y239807D01*
X64404Y239794D01*
X64526Y239784D01*
X64648Y239778D01*
X64770Y239776D01*
X64892Y239778D01*
X65014Y239784D01*
X65136Y239794D01*
X65257Y239807D01*
X65378Y239825D01*
X65498Y239846D01*
X65618Y239872D01*
X65736Y239901D01*
X65854Y239933D01*
X65971Y239970D01*
X66086Y240010D01*
X66200Y240054D01*
X66312Y240102D01*
X66423Y240153D01*
X66532Y240208D01*
X66640Y240266D01*
X66745Y240328D01*
X66848Y240393D01*
X66950Y240461D01*
X67049Y240533D01*
X67145Y240607D01*
X67240Y240685D01*
X67331Y240766D01*
X67421Y240849D01*
X67507Y240935D01*
X67590Y241025D01*
X67671Y241116D01*
X67749Y241211D01*
X67823Y241307D01*
X67895Y241406D01*
X67963Y241508D01*
X68028Y241611D01*
X68090Y241716D01*
X68148Y241824D01*
X68203Y241933D01*
X68254Y242044D01*
X68302Y242156D01*
X68346Y242270D01*
X68386Y242385D01*
X68423Y242502D01*
X68455Y242620D01*
X68484Y242738D01*
X68510Y242858D01*
X68531Y242978D01*
X68549Y243099D01*
X68562Y243220D01*
X68572Y243342D01*
X68578Y243464D01*
X68580Y243586D01*
X68578Y243708D01*
X68572Y243830D01*
X68562Y243952D01*
X68549Y244073D01*
X68531Y244194D01*
X68510Y244314D01*
X68484Y244434D01*
X68455Y244552D01*
X68423Y244670D01*
X68386Y244787D01*
X68346Y244902D01*
X68302Y245016D01*
X68254Y245128D01*
X68203Y245239D01*
X68148Y245348D01*
X68090Y245456D01*
X68028Y245561D01*
X67963Y245664D01*
X67895Y245766D01*
X67823Y245865D01*
X67749Y245961D01*
X67671Y246056D01*
X67590Y246147D01*
X67507Y246237D01*
X67421Y246323D01*
X67331Y246406D01*
X67240Y246487D01*
X67145Y246565D01*
X67049Y246639D01*
X66950Y246711D01*
X66848Y246779D01*
X66745Y246844D01*
X66640Y246906D01*
X66532Y246964D01*
X66423Y247019D01*
X66312Y247070D01*
X66200Y247118D01*
X66086Y247162D01*
X65971Y247202D01*
X65854Y247239D01*
X65736Y247271D01*
X65618Y247300D01*
X65498Y247326D01*
X65378Y247347D01*
X65257Y247365D01*
X65136Y247378D01*
X65014Y247388D01*
X64892Y247394D01*
X64770Y247396D01*
X398780Y110744D02*
X398902Y110742D01*
X399024Y110736D01*
X399146Y110726D01*
X399267Y110713D01*
X399388Y110695D01*
X399508Y110674D01*
X399628Y110648D01*
X399746Y110619D01*
X399864Y110587D01*
X399981Y110550D01*
X400096Y110510D01*
X400210Y110466D01*
X400322Y110418D01*
X400433Y110367D01*
X400542Y110312D01*
X400650Y110254D01*
X400755Y110192D01*
X400858Y110127D01*
X400960Y110059D01*
X401059Y109987D01*
X401155Y109913D01*
X401250Y109835D01*
X401341Y109754D01*
X401431Y109671D01*
X401517Y109585D01*
X401600Y109495D01*
X401681Y109404D01*
X401759Y109309D01*
X401833Y109213D01*
X401905Y109114D01*
X401973Y109012D01*
X402038Y108909D01*
X402100Y108804D01*
X402158Y108696D01*
X402213Y108587D01*
X402264Y108476D01*
X402312Y108364D01*
X402356Y108250D01*
X402396Y108135D01*
X402433Y108018D01*
X402465Y107900D01*
X402494Y107782D01*
X402520Y107662D01*
X402541Y107542D01*
X402559Y107421D01*
X402572Y107300D01*
X402582Y107178D01*
X402588Y107056D01*
X402590Y106934D01*
X402588Y106812D01*
X402582Y106690D01*
X402572Y106568D01*
X402559Y106447D01*
X402541Y106326D01*
X402520Y106206D01*
X402494Y106086D01*
X402465Y105968D01*
X402433Y105850D01*
X402396Y105733D01*
X402356Y105618D01*
X402312Y105504D01*
X402264Y105392D01*
X402213Y105281D01*
X402158Y105172D01*
X402100Y105064D01*
X402038Y104959D01*
X401973Y104856D01*
X401905Y104754D01*
X401833Y104655D01*
X401759Y104559D01*
X401681Y104464D01*
X401600Y104373D01*
X401517Y104283D01*
X401431Y104197D01*
X401341Y104114D01*
X401250Y104033D01*
X401155Y103955D01*
X401059Y103881D01*
X400960Y103809D01*
X400858Y103741D01*
X400755Y103676D01*
X400650Y103614D01*
X400542Y103556D01*
X400433Y103501D01*
X400322Y103450D01*
X400210Y103402D01*
X400096Y103358D01*
X399981Y103318D01*
X399864Y103281D01*
X399746Y103249D01*
X399628Y103220D01*
X399508Y103194D01*
X399388Y103173D01*
X399267Y103155D01*
X399146Y103142D01*
X399024Y103132D01*
X398902Y103126D01*
X398780Y103124D01*
X398658Y103126D01*
X398536Y103132D01*
X398414Y103142D01*
X398293Y103155D01*
X398172Y103173D01*
X398052Y103194D01*
X397932Y103220D01*
X397814Y103249D01*
X397696Y103281D01*
X397579Y103318D01*
X397464Y103358D01*
X397350Y103402D01*
X397238Y103450D01*
X397127Y103501D01*
X397018Y103556D01*
X396910Y103614D01*
X396805Y103676D01*
X396702Y103741D01*
X396600Y103809D01*
X396501Y103881D01*
X396405Y103955D01*
X396310Y104033D01*
X396219Y104114D01*
X396129Y104197D01*
X396043Y104283D01*
X395960Y104373D01*
X395879Y104464D01*
X395801Y104559D01*
X395727Y104655D01*
X395655Y104754D01*
X395587Y104856D01*
X395522Y104959D01*
X395460Y105064D01*
X395402Y105172D01*
X395347Y105281D01*
X395296Y105392D01*
X395248Y105504D01*
X395204Y105618D01*
X395164Y105733D01*
X395127Y105850D01*
X395095Y105968D01*
X395066Y106086D01*
X395040Y106206D01*
X395019Y106326D01*
X395001Y106447D01*
X394988Y106568D01*
X394978Y106690D01*
X394972Y106812D01*
X394970Y106934D01*
X394972Y107056D01*
X394978Y107178D01*
X394988Y107300D01*
X395001Y107421D01*
X395019Y107542D01*
X395040Y107662D01*
X395066Y107782D01*
X395095Y107900D01*
X395127Y108018D01*
X395164Y108135D01*
X395204Y108250D01*
X395248Y108364D01*
X395296Y108476D01*
X395347Y108587D01*
X395402Y108696D01*
X395460Y108804D01*
X395522Y108909D01*
X395587Y109012D01*
X395655Y109114D01*
X395727Y109213D01*
X395801Y109309D01*
X395879Y109404D01*
X395960Y109495D01*
X396043Y109585D01*
X396129Y109671D01*
X396219Y109754D01*
X396310Y109835D01*
X396405Y109913D01*
X396501Y109987D01*
X396600Y110059D01*
X396702Y110127D01*
X396805Y110192D01*
X396910Y110254D01*
X397018Y110312D01*
X397127Y110367D01*
X397238Y110418D01*
X397350Y110466D01*
X397464Y110510D01*
X397579Y110550D01*
X397696Y110587D01*
X397814Y110619D01*
X397932Y110648D01*
X398052Y110674D01*
X398172Y110695D01*
X398293Y110713D01*
X398414Y110726D01*
X398536Y110736D01*
X398658Y110742D01*
X398780Y110744D01*
M02*
