G04 EAGLE Gerber RS-274X export*
G75*
%MOMM*%
%FSLAX34Y34*%
%LPD*%
%INSolderpaste Top*%
%IPPOS*%
%AMOC8*
5,1,8,0,0,1.08239X$1,22.5*%
G01*
%ADD10R,1.000000X1.100000*%
%ADD11R,1.300000X1.500000*%
%ADD12R,1.968500X0.599100*%
%ADD13R,2.510000X3.200000*%
%ADD14R,1.100000X1.000000*%
%ADD15R,1.600000X1.803000*%
%ADD16C,0.130000*%


D10*
X246380Y461890D03*
X246380Y444890D03*
D11*
X206400Y123190D03*
X225400Y123190D03*
D10*
X246380Y355210D03*
X246380Y338210D03*
X245110Y257420D03*
X245110Y240420D03*
X246380Y157090D03*
X246380Y140090D03*
X247650Y61840D03*
X247650Y44840D03*
D11*
X201320Y520700D03*
X220320Y520700D03*
X203860Y415290D03*
X222860Y415290D03*
X206400Y317500D03*
X225400Y317500D03*
X206400Y218440D03*
X225400Y218440D03*
D12*
X222854Y462280D03*
X222854Y474980D03*
X222854Y487680D03*
X222854Y500380D03*
X173386Y500380D03*
X173386Y487680D03*
X173386Y474980D03*
X173386Y462280D03*
D13*
X198120Y481330D03*
D12*
X222854Y355600D03*
X222854Y368300D03*
X222854Y381000D03*
X222854Y393700D03*
X173386Y393700D03*
X173386Y381000D03*
X173386Y368300D03*
X173386Y355600D03*
D13*
X198120Y374650D03*
D12*
X222854Y257810D03*
X222854Y270510D03*
X222854Y283210D03*
X222854Y295910D03*
X173386Y295910D03*
X173386Y283210D03*
X173386Y270510D03*
X173386Y257810D03*
D13*
X198120Y276860D03*
D12*
X222854Y157480D03*
X222854Y170180D03*
X222854Y182880D03*
X222854Y195580D03*
X173386Y195580D03*
X173386Y182880D03*
X173386Y170180D03*
X173386Y157480D03*
D13*
X198120Y176530D03*
D12*
X222854Y62230D03*
X222854Y74930D03*
X222854Y87630D03*
X222854Y100330D03*
X173386Y100330D03*
X173386Y87630D03*
X173386Y74930D03*
X173386Y62230D03*
D13*
X198120Y81280D03*
D14*
X271780Y461890D03*
X271780Y444890D03*
X138430Y82940D03*
X138430Y99940D03*
X271780Y355210D03*
X271780Y338210D03*
X270510Y257420D03*
X270510Y240420D03*
X271780Y157090D03*
X271780Y140090D03*
X273050Y61840D03*
X273050Y44840D03*
D10*
X132470Y500380D03*
X149470Y500380D03*
D14*
X140970Y376310D03*
X140970Y393310D03*
X140970Y278520D03*
X140970Y295520D03*
X144780Y178190D03*
X144780Y195190D03*
D15*
X267930Y549910D03*
X239490Y549910D03*
D10*
X201050Y550200D03*
X218050Y550200D03*
D16*
X287010Y441900D02*
X295410Y441900D01*
X287010Y441900D02*
X287010Y447100D01*
X295410Y447100D01*
X295410Y441900D01*
X295410Y443135D02*
X287010Y443135D01*
X287010Y444370D02*
X295410Y444370D01*
X295410Y445605D02*
X287010Y445605D01*
X287010Y446840D02*
X295410Y446840D01*
X321810Y441900D02*
X330210Y441900D01*
X321810Y441900D02*
X321810Y447100D01*
X330210Y447100D01*
X330210Y441900D01*
X330210Y443135D02*
X321810Y443135D01*
X321810Y444370D02*
X330210Y444370D01*
X330210Y445605D02*
X321810Y445605D01*
X321810Y446840D02*
X330210Y446840D01*
X295410Y335220D02*
X287010Y335220D01*
X287010Y340420D01*
X295410Y340420D01*
X295410Y335220D01*
X295410Y336455D02*
X287010Y336455D01*
X287010Y337690D02*
X295410Y337690D01*
X295410Y338925D02*
X287010Y338925D01*
X287010Y340160D02*
X295410Y340160D01*
X321810Y335220D02*
X330210Y335220D01*
X321810Y335220D02*
X321810Y340420D01*
X330210Y340420D01*
X330210Y335220D01*
X330210Y336455D02*
X321810Y336455D01*
X321810Y337690D02*
X330210Y337690D01*
X330210Y338925D02*
X321810Y338925D01*
X321810Y340160D02*
X330210Y340160D01*
X295410Y237430D02*
X287010Y237430D01*
X287010Y242630D01*
X295410Y242630D01*
X295410Y237430D01*
X295410Y238665D02*
X287010Y238665D01*
X287010Y239900D02*
X295410Y239900D01*
X295410Y241135D02*
X287010Y241135D01*
X287010Y242370D02*
X295410Y242370D01*
X321810Y237430D02*
X330210Y237430D01*
X321810Y237430D02*
X321810Y242630D01*
X330210Y242630D01*
X330210Y237430D01*
X330210Y238665D02*
X321810Y238665D01*
X321810Y239900D02*
X330210Y239900D01*
X330210Y241135D02*
X321810Y241135D01*
X321810Y242370D02*
X330210Y242370D01*
X295410Y138370D02*
X287010Y138370D01*
X287010Y143570D01*
X295410Y143570D01*
X295410Y138370D01*
X295410Y139605D02*
X287010Y139605D01*
X287010Y140840D02*
X295410Y140840D01*
X295410Y142075D02*
X287010Y142075D01*
X287010Y143310D02*
X295410Y143310D01*
X321810Y138370D02*
X330210Y138370D01*
X321810Y138370D02*
X321810Y143570D01*
X330210Y143570D01*
X330210Y138370D01*
X330210Y139605D02*
X321810Y139605D01*
X321810Y140840D02*
X330210Y140840D01*
X330210Y142075D02*
X321810Y142075D01*
X321810Y143310D02*
X330210Y143310D01*
X295410Y41850D02*
X287010Y41850D01*
X287010Y47050D01*
X295410Y47050D01*
X295410Y41850D01*
X295410Y43085D02*
X287010Y43085D01*
X287010Y44320D02*
X295410Y44320D01*
X295410Y45555D02*
X287010Y45555D01*
X287010Y46790D02*
X295410Y46790D01*
X321810Y41850D02*
X330210Y41850D01*
X321810Y41850D02*
X321810Y47050D01*
X330210Y47050D01*
X330210Y41850D01*
X330210Y43085D02*
X321810Y43085D01*
X321810Y44320D02*
X330210Y44320D01*
X330210Y45555D02*
X321810Y45555D01*
X321810Y46790D02*
X330210Y46790D01*
M02*
