G04 EAGLE Gerber RS-274X export*
G75*
%MOMM*%
%FSLAX34Y34*%
%LPD*%
%INSoldermask Top*%
%IPPOS*%
%AMOC8*
5,1,8,0,0,1.08239X$1,22.5*%
G01*
%ADD10C,3.203200*%
%ADD11R,1.203200X1.303200*%
%ADD12R,1.503200X1.703200*%
%ADD13R,2.171700X0.802300*%
%ADD14R,2.713200X3.403200*%
%ADD15R,1.303200X1.203200*%
%ADD16R,1.803200X2.006200*%
%ADD17C,1.993900*%
%ADD18C,0.332747*%
%ADD19C,1.209600*%
%ADD20C,1.009600*%
%ADD21C,0.959600*%
%ADD22C,1.159600*%


D10*
X50000Y650000D03*
X50000Y50000D03*
X410160Y650000D03*
X410160Y50000D03*
D11*
X246380Y461890D03*
X246380Y444890D03*
D12*
X206400Y123190D03*
X225400Y123190D03*
D11*
X246380Y355210D03*
X246380Y338210D03*
X245110Y257420D03*
X245110Y240420D03*
X246380Y157090D03*
X246380Y140090D03*
X247650Y61840D03*
X247650Y44840D03*
D12*
X201320Y520700D03*
X220320Y520700D03*
X203860Y415290D03*
X222860Y415290D03*
X206400Y317500D03*
X225400Y317500D03*
X206400Y218440D03*
X225400Y218440D03*
D13*
X222854Y462280D03*
X222854Y474980D03*
X222854Y487680D03*
X222854Y500380D03*
X173386Y500380D03*
X173386Y487680D03*
X173386Y474980D03*
X173386Y462280D03*
D14*
X198120Y481330D03*
D13*
X222854Y355600D03*
X222854Y368300D03*
X222854Y381000D03*
X222854Y393700D03*
X173386Y393700D03*
X173386Y381000D03*
X173386Y368300D03*
X173386Y355600D03*
D14*
X198120Y374650D03*
D13*
X222854Y257810D03*
X222854Y270510D03*
X222854Y283210D03*
X222854Y295910D03*
X173386Y295910D03*
X173386Y283210D03*
X173386Y270510D03*
X173386Y257810D03*
D14*
X198120Y276860D03*
D13*
X222854Y157480D03*
X222854Y170180D03*
X222854Y182880D03*
X222854Y195580D03*
X173386Y195580D03*
X173386Y182880D03*
X173386Y170180D03*
X173386Y157480D03*
D14*
X198120Y176530D03*
D13*
X222854Y62230D03*
X222854Y74930D03*
X222854Y87630D03*
X222854Y100330D03*
X173386Y100330D03*
X173386Y87630D03*
X173386Y74930D03*
X173386Y62230D03*
D14*
X198120Y81280D03*
D15*
X271780Y461890D03*
X271780Y444890D03*
X138430Y82940D03*
X138430Y99940D03*
X271780Y355210D03*
X271780Y338210D03*
X270510Y257420D03*
X270510Y240420D03*
X271780Y157090D03*
X271780Y140090D03*
X273050Y61840D03*
X273050Y44840D03*
D11*
X132470Y500380D03*
X149470Y500380D03*
D15*
X140970Y376310D03*
X140970Y393310D03*
X140970Y278520D03*
X140970Y295520D03*
X144780Y178190D03*
X144780Y195190D03*
D16*
X267930Y549910D03*
X239490Y549910D03*
D11*
X201050Y550200D03*
X218050Y550200D03*
D17*
X64770Y462280D03*
X64770Y427228D03*
X64770Y346710D03*
X64770Y311658D03*
X64770Y276860D03*
X64770Y241808D03*
X398780Y213360D03*
X398780Y248412D03*
X398780Y283210D03*
X398780Y318262D03*
X398780Y394970D03*
X398780Y430022D03*
X398780Y464820D03*
X398780Y499872D03*
X398780Y534670D03*
X398780Y569722D03*
X243840Y633440D03*
X208788Y633440D03*
X64770Y207010D03*
X64770Y171958D03*
X398780Y143510D03*
X398780Y178562D03*
D18*
X295413Y441897D02*
X287007Y441897D01*
X287007Y447103D01*
X295413Y447103D01*
X295413Y441897D01*
X295413Y445058D02*
X287007Y445058D01*
X321807Y441897D02*
X330213Y441897D01*
X321807Y441897D02*
X321807Y447103D01*
X330213Y447103D01*
X330213Y441897D01*
X330213Y445058D02*
X321807Y445058D01*
X295413Y335217D02*
X287007Y335217D01*
X287007Y340423D01*
X295413Y340423D01*
X295413Y335217D01*
X295413Y338378D02*
X287007Y338378D01*
X321807Y335217D02*
X330213Y335217D01*
X321807Y335217D02*
X321807Y340423D01*
X330213Y340423D01*
X330213Y335217D01*
X330213Y338378D02*
X321807Y338378D01*
X295413Y237427D02*
X287007Y237427D01*
X287007Y242633D01*
X295413Y242633D01*
X295413Y237427D01*
X295413Y240588D02*
X287007Y240588D01*
X321807Y237427D02*
X330213Y237427D01*
X321807Y237427D02*
X321807Y242633D01*
X330213Y242633D01*
X330213Y237427D01*
X330213Y240588D02*
X321807Y240588D01*
X295413Y138367D02*
X287007Y138367D01*
X287007Y143573D01*
X295413Y143573D01*
X295413Y138367D01*
X295413Y141528D02*
X287007Y141528D01*
X321807Y138367D02*
X330213Y138367D01*
X321807Y138367D02*
X321807Y143573D01*
X330213Y143573D01*
X330213Y138367D01*
X330213Y141528D02*
X321807Y141528D01*
X295413Y41847D02*
X287007Y41847D01*
X287007Y47053D01*
X295413Y47053D01*
X295413Y41847D01*
X295413Y45008D02*
X287007Y45008D01*
X321807Y41847D02*
X330213Y41847D01*
X321807Y41847D02*
X321807Y47053D01*
X330213Y47053D01*
X330213Y41847D01*
X330213Y45008D02*
X321807Y45008D01*
D19*
X246380Y500380D03*
D20*
X246380Y474980D03*
D19*
X127000Y474980D03*
D20*
X246380Y368300D03*
D21*
X246380Y270510D03*
D20*
X246380Y170180D03*
X246380Y74930D03*
D19*
X116840Y487680D03*
D20*
X246380Y487680D03*
X270510Y381000D03*
D21*
X270510Y283210D03*
D20*
X270510Y182880D03*
X270510Y87630D03*
D22*
X246380Y393700D03*
X246380Y100330D03*
D19*
X246380Y295910D03*
D22*
X246380Y195580D03*
M02*
