G04 EAGLE Gerber RS-274X export*
G75*
%MOMM*%
%FSLAX34Y34*%
%LPD*%
%IN*%
%IPPOS*%
%AMOC8*
5,1,8,0,0,1.08239X$1,22.5*%
G01*
%ADD10C,0.254000*%


D10*
X0Y0D02*
X462700Y0D01*
X462700Y700000D01*
X0Y700000D01*
X0Y0D01*
X65000Y649464D02*
X64924Y648396D01*
X64771Y647335D01*
X64543Y646288D01*
X64241Y645260D01*
X63867Y644256D01*
X63422Y643281D01*
X62908Y642341D01*
X62329Y641440D01*
X61687Y640582D01*
X60985Y639772D01*
X60228Y639015D01*
X59418Y638313D01*
X58560Y637671D01*
X57659Y637092D01*
X56719Y636578D01*
X55744Y636133D01*
X54740Y635759D01*
X53712Y635457D01*
X52665Y635229D01*
X51604Y635076D01*
X50536Y635000D01*
X49464Y635000D01*
X48396Y635076D01*
X47335Y635229D01*
X46288Y635457D01*
X45260Y635759D01*
X44256Y636133D01*
X43281Y636578D01*
X42341Y637092D01*
X41440Y637671D01*
X40582Y638313D01*
X39772Y639015D01*
X39015Y639772D01*
X38313Y640582D01*
X37671Y641440D01*
X37092Y642341D01*
X36578Y643281D01*
X36133Y644256D01*
X35759Y645260D01*
X35457Y646288D01*
X35229Y647335D01*
X35076Y648396D01*
X35000Y649464D01*
X35000Y650536D01*
X35076Y651604D01*
X35229Y652665D01*
X35457Y653712D01*
X35759Y654740D01*
X36133Y655744D01*
X36578Y656719D01*
X37092Y657659D01*
X37671Y658560D01*
X38313Y659418D01*
X39015Y660228D01*
X39772Y660985D01*
X40582Y661687D01*
X41440Y662329D01*
X42341Y662908D01*
X43281Y663422D01*
X44256Y663867D01*
X45260Y664241D01*
X46288Y664543D01*
X47335Y664771D01*
X48396Y664924D01*
X49464Y665000D01*
X50536Y665000D01*
X51604Y664924D01*
X52665Y664771D01*
X53712Y664543D01*
X54740Y664241D01*
X55744Y663867D01*
X56719Y663422D01*
X57659Y662908D01*
X58560Y662329D01*
X59418Y661687D01*
X60228Y660985D01*
X60985Y660228D01*
X61687Y659418D01*
X62329Y658560D01*
X62908Y657659D01*
X63422Y656719D01*
X63867Y655744D01*
X64241Y654740D01*
X64543Y653712D01*
X64771Y652665D01*
X64924Y651604D01*
X65000Y650536D01*
X65000Y649464D01*
X65000Y49464D02*
X64924Y48396D01*
X64771Y47335D01*
X64543Y46288D01*
X64241Y45260D01*
X63867Y44256D01*
X63422Y43281D01*
X62908Y42341D01*
X62329Y41440D01*
X61687Y40582D01*
X60985Y39772D01*
X60228Y39015D01*
X59418Y38313D01*
X58560Y37671D01*
X57659Y37092D01*
X56719Y36578D01*
X55744Y36133D01*
X54740Y35759D01*
X53712Y35457D01*
X52665Y35229D01*
X51604Y35076D01*
X50536Y35000D01*
X49464Y35000D01*
X48396Y35076D01*
X47335Y35229D01*
X46288Y35457D01*
X45260Y35759D01*
X44256Y36133D01*
X43281Y36578D01*
X42341Y37092D01*
X41440Y37671D01*
X40582Y38313D01*
X39772Y39015D01*
X39015Y39772D01*
X38313Y40582D01*
X37671Y41440D01*
X37092Y42341D01*
X36578Y43281D01*
X36133Y44256D01*
X35759Y45260D01*
X35457Y46288D01*
X35229Y47335D01*
X35076Y48396D01*
X35000Y49464D01*
X35000Y50536D01*
X35076Y51604D01*
X35229Y52665D01*
X35457Y53712D01*
X35759Y54740D01*
X36133Y55744D01*
X36578Y56719D01*
X37092Y57659D01*
X37671Y58560D01*
X38313Y59418D01*
X39015Y60228D01*
X39772Y60985D01*
X40582Y61687D01*
X41440Y62329D01*
X42341Y62908D01*
X43281Y63422D01*
X44256Y63867D01*
X45260Y64241D01*
X46288Y64543D01*
X47335Y64771D01*
X48396Y64924D01*
X49464Y65000D01*
X50536Y65000D01*
X51604Y64924D01*
X52665Y64771D01*
X53712Y64543D01*
X54740Y64241D01*
X55744Y63867D01*
X56719Y63422D01*
X57659Y62908D01*
X58560Y62329D01*
X59418Y61687D01*
X60228Y60985D01*
X60985Y60228D01*
X61687Y59418D01*
X62329Y58560D01*
X62908Y57659D01*
X63422Y56719D01*
X63867Y55744D01*
X64241Y54740D01*
X64543Y53712D01*
X64771Y52665D01*
X64924Y51604D01*
X65000Y50536D01*
X65000Y49464D01*
X425160Y649464D02*
X425084Y648396D01*
X424931Y647335D01*
X424703Y646288D01*
X424401Y645260D01*
X424027Y644256D01*
X423582Y643281D01*
X423068Y642341D01*
X422489Y641440D01*
X421847Y640582D01*
X421145Y639772D01*
X420388Y639015D01*
X419578Y638313D01*
X418720Y637671D01*
X417819Y637092D01*
X416879Y636578D01*
X415904Y636133D01*
X414900Y635759D01*
X413872Y635457D01*
X412825Y635229D01*
X411764Y635076D01*
X410696Y635000D01*
X409624Y635000D01*
X408556Y635076D01*
X407495Y635229D01*
X406448Y635457D01*
X405420Y635759D01*
X404416Y636133D01*
X403441Y636578D01*
X402501Y637092D01*
X401600Y637671D01*
X400742Y638313D01*
X399932Y639015D01*
X399175Y639772D01*
X398473Y640582D01*
X397831Y641440D01*
X397252Y642341D01*
X396738Y643281D01*
X396293Y644256D01*
X395919Y645260D01*
X395617Y646288D01*
X395389Y647335D01*
X395236Y648396D01*
X395160Y649464D01*
X395160Y650536D01*
X395236Y651604D01*
X395389Y652665D01*
X395617Y653712D01*
X395919Y654740D01*
X396293Y655744D01*
X396738Y656719D01*
X397252Y657659D01*
X397831Y658560D01*
X398473Y659418D01*
X399175Y660228D01*
X399932Y660985D01*
X400742Y661687D01*
X401600Y662329D01*
X402501Y662908D01*
X403441Y663422D01*
X404416Y663867D01*
X405420Y664241D01*
X406448Y664543D01*
X407495Y664771D01*
X408556Y664924D01*
X409624Y665000D01*
X410696Y665000D01*
X411764Y664924D01*
X412825Y664771D01*
X413872Y664543D01*
X414900Y664241D01*
X415904Y663867D01*
X416879Y663422D01*
X417819Y662908D01*
X418720Y662329D01*
X419578Y661687D01*
X420388Y660985D01*
X421145Y660228D01*
X421847Y659418D01*
X422489Y658560D01*
X423068Y657659D01*
X423582Y656719D01*
X424027Y655744D01*
X424401Y654740D01*
X424703Y653712D01*
X424931Y652665D01*
X425084Y651604D01*
X425160Y650536D01*
X425160Y649464D01*
X425160Y49464D02*
X425084Y48396D01*
X424931Y47335D01*
X424703Y46288D01*
X424401Y45260D01*
X424027Y44256D01*
X423582Y43281D01*
X423068Y42341D01*
X422489Y41440D01*
X421847Y40582D01*
X421145Y39772D01*
X420388Y39015D01*
X419578Y38313D01*
X418720Y37671D01*
X417819Y37092D01*
X416879Y36578D01*
X415904Y36133D01*
X414900Y35759D01*
X413872Y35457D01*
X412825Y35229D01*
X411764Y35076D01*
X410696Y35000D01*
X409624Y35000D01*
X408556Y35076D01*
X407495Y35229D01*
X406448Y35457D01*
X405420Y35759D01*
X404416Y36133D01*
X403441Y36578D01*
X402501Y37092D01*
X401600Y37671D01*
X400742Y38313D01*
X399932Y39015D01*
X399175Y39772D01*
X398473Y40582D01*
X397831Y41440D01*
X397252Y42341D01*
X396738Y43281D01*
X396293Y44256D01*
X395919Y45260D01*
X395617Y46288D01*
X395389Y47335D01*
X395236Y48396D01*
X395160Y49464D01*
X395160Y50536D01*
X395236Y51604D01*
X395389Y52665D01*
X395617Y53712D01*
X395919Y54740D01*
X396293Y55744D01*
X396738Y56719D01*
X397252Y57659D01*
X397831Y58560D01*
X398473Y59418D01*
X399175Y60228D01*
X399932Y60985D01*
X400742Y61687D01*
X401600Y62329D01*
X402501Y62908D01*
X403441Y63422D01*
X404416Y63867D01*
X405420Y64241D01*
X406448Y64543D01*
X407495Y64771D01*
X408556Y64924D01*
X409624Y65000D01*
X410696Y65000D01*
X411764Y64924D01*
X412825Y64771D01*
X413872Y64543D01*
X414900Y64241D01*
X415904Y63867D01*
X416879Y63422D01*
X417819Y62908D01*
X418720Y62329D01*
X419578Y61687D01*
X420388Y60985D01*
X421145Y60228D01*
X421847Y59418D01*
X422489Y58560D01*
X423068Y57659D01*
X423582Y56719D01*
X424027Y55744D01*
X424401Y54740D01*
X424703Y53712D01*
X424931Y52665D01*
X425084Y51604D01*
X425160Y50536D01*
X425160Y49464D01*
M02*
