M48
;GenerationSoftware,Autodesk,EAGLE,9.5.1*%
;CreationDate,2020-08-01T17:41:30Z*%
FMAT,2
ICI,OFF
METRIC,TZ,000.000
T6C0.350
T5C0.400
T4C0.550
T3C0.600
T2C1.194
T1C3.000
%
G90
M71
T1
X41016Y5000
X5000Y65000
X5000Y5000
X41016Y65000
T2
X39878Y21336
X39878Y24841
X39878Y28321
X39878Y31826
X39878Y39497
X6477Y24181
X39878Y43002
X39878Y46482
X39878Y49987
X39878Y53467
X39878Y56972
X20879Y63344
X6477Y20701
X6477Y17196
X39878Y14351
X39878Y17856
X6477Y46228
X24384Y63344
X6477Y42723
X6477Y34671
X6477Y31166
X6477Y27686
T3
X24638Y50038
X12700Y47498
X11684Y48768
X24638Y29591
T4
X24638Y39370
X24638Y10033
X24638Y19558
T5
X24638Y47498
X24638Y36830
X24638Y7493
X24638Y48768
X27051Y38100
X27051Y18288
X27051Y8763
X24638Y17018
T6
X24638Y27051
X27051Y28321
M30